  0
SECTION
  2
HEADER
  9
$ACADVER
  1
AC1021
  9
$ACADMAINTVER
 70
25
  9
$DWGCODEPAGE
  3
ANSI_1252
  9
$LASTSAVEDBY
  1
ezdxf
  9
$INSBASE
 10
0.0
 20
0.0
 30
0.0
  9
$EXTMIN
 10
1e+20
 20
1e+20
 30
1e+20
  9
$EXTMAX
 10
-1e+20
 20
-1e+20
 30
-1e+20
  9
$LIMMIN
 10
0.0
 20
0.0
  9
$LIMMAX
 10
420.0
 20
297.0
  9
$ORTHOMODE
 70
0
  9
$REGENMODE
 70
1
  9
$FILLMODE
 70
1
  9
$QTEXTMODE
 70
0
  9
$MIRRTEXT
 70
1
  9
$LTSCALE
 40
1.0
  9
$ATTMODE
 70
1
  9
$TEXTSIZE
 40
2.5
  9
$TRACEWID
 40
1.0
  9
$TEXTSTYLE
  7
OpenSans
  9
$CLAYER
  8
0
  9
$CELTYPE
  6
ByLayer
  9
$CECOLOR
 62
256
  9
$CELTSCALE
 40
1.0
  9
$DISPSILH
 70
0
  9
$DIMSCALE
 40
1.0
  9
$DIMASZ
 40
0.175
  9
$DIMEXO
 40
0.125
  9
$DIMDLI
 40
3.75
  9
$DIMRND
 40
0.0
  9
$DIMDLE
 40
0.0
  9
$DIMEXE
 40
0.375
  9
$DIMTP
 40
0.0
  9
$DIMTM
 40
0.0
  9
$DIMTXT
 40
0.25
  9
$DIMCEN
 40
2.5
  9
$DIMTSZ
 40
0.0
  9
$DIMTOL
 70
0
  9
$DIMLIM
 70
0
  9
$DIMTIH
 70
0
  9
$DIMTOH
 70
0
  9
$DIMSE1
 70
0
  9
$DIMSE2
 70
0
  9
$DIMTAD
 70
1
  9
$DIMZIN
 70
12
  9
$DIMBLK
  1
ARCHTICK
  9
$DIMASO
 70
1
  9
$DIMSHO
 70
1
  9
$DIMPOST
  1

  9
$DIMAPOST
  1

  9
$DIMALT
 70
0
  9
$DIMALTD
 70
3
  9
$DIMALTF
 40
0.03937007874
  9
$DIMLFAC
 40
100.0
  9
$DIMTOFL
 70
1
  9
$DIMTVP
 40
0.0
  9
$DIMTIX
 70
0
  9
$DIMSOXD
 70
0
  9
$DIMSAH
 70
0
  9
$DIMBLK1
  1

  9
$DIMBLK2
  1

  9
$DIMSTYLE
  2
EZDXF
  9
$DIMCLRD
 70
0
  9
$DIMCLRE
 70
0
  9
$DIMCLRT
 70
0
  9
$DIMTFAC
 40
0.5
  9
$DIMGAP
 40
0.1
  9
$DIMJUST
 70
0
  9
$DIMSD1
 70
0
  9
$DIMSD2
 70
0
  9
$DIMTOLJ
 70
0
  9
$DIMTZIN
 70
8
  9
$DIMALTZ
 70
0
  9
$DIMALTTZ
 70
0
  9
$DIMUPT
 70
1
  9
$DIMDEC
 70
2
  9
$DIMTDEC
 70
2
  9
$DIMALTU
 70
2
  9
$DIMALTTD
 70
3
  9
$DIMTXSTY
  7
OpenSansCondensed-Light
  9
$DIMAUNIT
 70
0
  9
$DIMADEC
 70
2
  9
$DIMALTRND
 40
0.0
  9
$DIMAZIN
 70
3
  9
$DIMDSEP
 70
46
  9
$DIMATFIT
 70
3
  9
$DIMFRAC
 70
0
  9
$DIMLDRBLK
  1

  9
$DIMLUNIT
 70
2
  9
$DIMLWD
 70
-2
  9
$DIMLWE
 70
-2
  9
$DIMTMOVE
 70
2
  9
$DIMFXL
 40
1.0
  9
$DIMFXLON
 70
0
  9
$DIMJOGANG
 40
0.785398163397
  9
$DIMTFILL
 70
0
  9
$DIMTFILLCLR
 70
0
  9
$DIMARCSYM
 70
0
  9
$DIMLTYPE
  6

  9
$DIMLTEX1
  6

  9
$DIMLTEX2
  6

  9
$LUNITS
 70
2
  9
$LUPREC
 70
4
  9
$SKETCHINC
 40
1.0
  9
$FILLETRAD
 40
10.0
  9
$AUNITS
 70
0
  9
$AUPREC
 70
2
  9
$MENU
  1
.
  9
$ELEVATION
 40
0.0
  9
$PELEVATION
 40
0.0
  9
$THICKNESS
 40
0.0
  9
$LIMCHECK
 70
0
  9
$CHAMFERA
 40
0.0
  9
$CHAMFERB
 40
0.0
  9
$CHAMFERC
 40
0.0
  9
$CHAMFERD
 40
0.0
  9
$SKPOLY
 70
0
  9
$TDCREATE
 40
2461307.711134259
  9
$TDUCREATE
 40
2458532.153996898
  9
$TDUPDATE
 40
2461307.711134259
  9
$TDUUPDATE
 40
2458532.1544311
  9
$TDINDWG
 40
0.0
  9
$TDUSRTIMER
 40
0.0
  9
$USRTIMER
 70
1
  9
$ANGBASE
 50
0.0
  9
$ANGDIR
 70
0
  9
$PDMODE
 70
0
  9
$PDSIZE
 40
0.0
  9
$PLINEWID
 40
0.0
  9
$SPLFRAME
 70
0
  9
$SPLINETYPE
 70
6
  9
$SPLINESEGS
 70
8
  9
$HANDSEED
  5
57E
  9
$SURFTAB1
 70
6
  9
$SURFTAB2
 70
6
  9
$SURFTYPE
 70
6
  9
$SURFU
 70
6
  9
$SURFV
 70
6
  9
$UCSBASE
  2

  9
$UCSNAME
  2

  9
$UCSORG
 10
0.0
 20
0.0
 30
0.0
  9
$UCSXDIR
 10
1.0
 20
0.0
 30
0.0
  9
$UCSYDIR
 10
0.0
 20
1.0
 30
0.0
  9
$UCSORTHOREF
  2

  9
$UCSORTHOVIEW
 70
0
  9
$UCSORGTOP
 10
0.0
 20
0.0
 30
0.0
  9
$UCSORGBOTTOM
 10
0.0
 20
0.0
 30
0.0
  9
$UCSORGLEFT
 10
0.0
 20
0.0
 30
0.0
  9
$UCSORGRIGHT
 10
0.0
 20
0.0
 30
0.0
  9
$UCSORGFRONT
 10
0.0
 20
0.0
 30
0.0
  9
$UCSORGBACK
 10
0.0
 20
0.0
 30
0.0
  9
$PUCSBASE
  2

  9
$PUCSNAME
  2

  9
$PUCSORG
 10
0.0
 20
0.0
 30
0.0
  9
$PUCSXDIR
 10
1.0
 20
0.0
 30
0.0
  9
$PUCSYDIR
 10
0.0
 20
1.0
 30
0.0
  9
$PUCSORTHOREF
  2

  9
$PUCSORTHOVIEW
 70
0
  9
$PUCSORGTOP
 10
0.0
 20
0.0
 30
0.0
  9
$PUCSORGBOTTOM
 10
0.0
 20
0.0
 30
0.0
  9
$PUCSORGLEFT
 10
0.0
 20
0.0
 30
0.0
  9
$PUCSORGRIGHT
 10
0.0
 20
0.0
 30
0.0
  9
$PUCSORGFRONT
 10
0.0
 20
0.0
 30
0.0
  9
$PUCSORGBACK
 10
0.0
 20
0.0
 30
0.0
  9
$USERI1
 70
0
  9
$USERI2
 70
0
  9
$USERI3
 70
0
  9
$USERI4
 70
0
  9
$USERI5
 70
0
  9
$USERR1
 40
0.0
  9
$USERR2
 40
0.0
  9
$USERR3
 40
0.0
  9
$USERR4
 40
0.0
  9
$USERR5
 40
0.0
  9
$WORLDVIEW
 70
1
  9
$SHADEDGE
 70
3
  9
$SHADEDIF
 70
70
  9
$TILEMODE
 70
1
  9
$MAXACTVP
 70
64
  9
$PINSBASE
 10
0.0
 20
0.0
 30
0.0
  9
$PLIMCHECK
 70
0
  9
$PEXTMIN
 10
1e+20
 20
1e+20
 30
1e+20
  9
$PEXTMAX
 10
-1e+20
 20
-1e+20
 30
-1e+20
  9
$PLIMMIN
 10
0.0
 20
0.0
  9
$PLIMMAX
 10
420.0
 20
297.0
  9
$UNITMODE
 70
0
  9
$VISRETAIN
 70
1
  9
$PLINEGEN
 70
0
  9
$PSLTSCALE
 70
1
  9
$TREEDEPTH
 70
3020
  9
$CMLSTYLE
  2
Standard
  9
$CMLJUST
 70
0
  9
$CMLSCALE
 40
20.0
  9
$PROXYGRAPHICS
 70
1
  9
$MEASUREMENT
 70
1
  9
$CELWEIGHT
370
-1
  9
$ENDCAPS
280
0
  9
$JOINSTYLE
280
0
  9
$LWDISPLAY
290
0
  9
$INSUNITS
 70
4
  9
$HYPERLINKBASE
  1

  9
$STYLESHEET
  1

  9
$XEDIT
290
1
  9
$CEPSNTYPE
380
0
  9
$PSTYLEMODE
290
1
  9
$FINGERPRINTGUID
  2
{923BC622-7D3D-48C8-A9CC-E56F2A1A70EE}
  9
$VERSIONGUID
  2
{D324C682-7405-4E9A-B324-B95860E563DA}
  9
$EXTNAMES
290
1
  9
$PSVPSCALE
 40
0.0
  9
$OLESTARTUP
290
0
  9
$SORTENTS
280
127
  9
$INDEXCTL
280
0
  9
$HIDETEXT
280
1
  9
$XCLIPFRAME
290
1
  9
$HALOGAP
280
0
  9
$OBSCOLOR
 70
257
  9
$OBSLTYPE
280
0
  9
$INTERSECTIONDISPLAY
280
0
  9
$INTERSECTIONCOLOR
 70
257
  9
$DIMASSOC
280
2
  9
$PROJECTNAME
  1

  9
$CAMERADISPLAY
290
0
  9
$LENSLENGTH
 40
50.0
  9
$CAMERAHEIGHT
 40
0.0
  9
$STEPSPERSEC
 40
24.0
  9
$STEPSIZE
 40
100.0
  9
$3DDWFPREC
 40
2.0
  9
$PSOLWIDTH
 40
0.005
  9
$PSOLHEIGHT
 40
0.08
  9
$LOFTANG1
 40
1.570796326795
  9
$LOFTANG2
 40
1.570796326795
  9
$LOFTMAG1
 40
0.0
  9
$LOFTMAG2
 40
0.0
  9
$LOFTPARAM
 70
7
  9
$LOFTNORMALS
280
1
  9
$LATITUDE
 40
37.795
  9
$LONGITUDE
 40
-122.394
  9
$NORTHDIRECTION
 40
0.0
  9
$TIMEZONE
 70
-8000
  9
$LIGHTGLYPHDISPLAY
280
1
  9
$TILEMODELIGHTSYNCH
280
1
  9
$CMATERIAL
347
20
  9
$SOLIDHIST
280
0
  9
$SHOWHIST
280
1
  9
$DWFFRAME
280
2
  9
$DGNFRAME
280
2
  9
$REALWORLDSCALE
290
1
  9
$INTERFERECOLOR
 62
256
  9
$CSHADOW
280
0
  9
$SHADOWPLANELOCATION
 40
0.0
  0
ENDSEC
  0
SECTION
  2
CLASSES
  0
CLASS
  1
ACDBDICTIONARYWDFLT
  2
AcDbDictionaryWithDefault
  3
ObjectDBX Classes
 90
0
 91
0
280
0
281
0
  0
CLASS
  1
SUN
  2
AcDbSun
  3
SCENEOE
 90
1153
 91
0
280
0
281
0
  0
CLASS
  1
VISUALSTYLE
  2
AcDbVisualStyle
  3
ObjectDBX Classes
 90
4095
 91
0
280
0
281
0
  0
CLASS
  1
MATERIAL
  2
AcDbMaterial
  3
ObjectDBX Classes
 90
1153
 91
0
280
0
281
0
  0
CLASS
  1
SCALE
  2
AcDbScale
  3
ObjectDBX Classes
 90
1153
 91
0
280
0
281
0
  0
CLASS
  1
TABLESTYLE
  2
AcDbTableStyle
  3
ObjectDBX Classes
 90
4095
 91
0
280
0
281
0
  0
CLASS
  1
MLEADERSTYLE
  2
AcDbMLeaderStyle
  3
ACDB_MLEADERSTYLE_CLASS
 90
4095
 91
0
280
0
281
0
  0
CLASS
  1
DICTIONARYVAR
  2
AcDbDictionaryVar
  3
ObjectDBX Classes
 90
0
 91
0
280
0
281
0
  0
CLASS
  1
CELLSTYLEMAP
  2
AcDbCellStyleMap
  3
ObjectDBX Classes
 90
1152
 91
0
280
0
281
0
  0
CLASS
  1
MENTALRAYRENDERSETTINGS
  2
AcDbMentalRayRenderSettings
  3
SCENEOE
 90
1024
 91
0
280
0
281
0
  0
CLASS
  1
ACDBDETAILVIEWSTYLE
  2
AcDbDetailViewStyle
  3
ObjectDBX Classes
 90
1025
 91
0
280
0
281
0
  0
CLASS
  1
ACDBSECTIONVIEWSTYLE
  2
AcDbSectionViewStyle
  3
ObjectDBX Classes
 90
1025
 91
0
280
0
281
0
  0
CLASS
  1
RASTERVARIABLES
  2
AcDbRasterVariables
  3
ISM
 90
0
 91
0
280
0
281
0
  0
CLASS
  1
LAYOUT
  2
AcDbLayout
  3
ObjectDBX Classes
 90
0
 91
0
280
0
281
0
  0
CLASS
  1
ACDBPLACEHOLDER
  2
AcDbPlaceHolder
  3
ObjectDBX Classes
 90
0
 91
0
280
0
281
0
  0
ENDSEC
  0
SECTION
  2
TABLES
  0
TABLE
  2
VPORT
  5
8
330
0
100
AcDbSymbolTable
 70
1
  0
VPORT
  5
23
330
8
100
AcDbSymbolTableRecord
100
AcDbViewportTableRecord
  2
*Active
 70
0
 10
0.0
 20
0.0
 11
1.0
 21
1.0
 12
0.0
 22
0.0
 13
0.0
 23
0.0
 14
0.5
 24
0.5
 15
0.5
 25
0.5
 16
0.0
 26
0.0
 36
1.0
 17
0.0
 27
0.0
 37
0.0
 40
1000.0
 41
1.34
 42
50.0
 43
0.0
 44
0.0
 50
0.0
 51
0.0
 71
0
 72
1000
 73
1
 74
3
 75
0
 76
0
 77
0
 78
0
281
0
 65
0
146
0.0
  0
ENDTAB
  0
TABLE
  2
LTYPE
  5
2
330
0
100
AcDbSymbolTable
 70
21
  0
LTYPE
  5
24
330
2
100
AcDbSymbolTableRecord
100
AcDbLinetypeTableRecord
  2
ByBlock
 70
0
  3

 72
65
 73
0
 40
0.0
  0
LTYPE
  5
25
330
2
100
AcDbSymbolTableRecord
100
AcDbLinetypeTableRecord
  2
ByLayer
 70
0
  3

 72
65
 73
0
 40
0.0
  0
LTYPE
  5
26
330
2
100
AcDbSymbolTableRecord
100
AcDbLinetypeTableRecord
  2
Continuous
 70
0
  3

 72
65
 73
0
 40
0.0
  0
LTYPE
  5
2F
330
2
100
AcDbSymbolTableRecord
100
AcDbLinetypeTableRecord
  2
CENTER
 70
0
  3
Center ____ _ ____ _ ____ _ ____ _ ____ _ ____
 72
65
 73
4
 40
5.08
 49
3.175
 74
0
 49
-0.635
 74
0
 49
0.635
 74
0
 49
-0.635
 74
0
  0
LTYPE
  5
30
330
2
100
AcDbSymbolTableRecord
100
AcDbLinetypeTableRecord
  2
CENTERX2
 70
0
  3
Center (2x) ________  __  ________  __  ________
 72
65
 73
4
 40
8.89
 49
6.35
 74
0
 49
-0.635
 74
0
 49
1.27
 74
0
 49
-0.635
 74
0
  0
LTYPE
  5
31
330
2
100
AcDbSymbolTableRecord
100
AcDbLinetypeTableRecord
  2
CENTER2
 70
0
  3
Center (.5x) ____ _ ____ _ ____ _ ____ _ ____
 72
65
 73
4
 40
2.54
 49
1.587
 74
0
 49
-0.318
 74
0
 49
0.318
 74
0
 49
-0.318
 74
0
  0
LTYPE
  5
32
330
2
100
AcDbSymbolTableRecord
100
AcDbLinetypeTableRecord
  2
DASHED
 70
0
  3
Dashed __ __ __ __ __ __ __ __ __ __ __ __ __ _
 72
65
 73
2
 40
1.524
 49
1.27
 74
0
 49
-0.254
 74
0
  0
LTYPE
  5
33
330
2
100
AcDbSymbolTableRecord
100
AcDbLinetypeTableRecord
  2
DASHEDX2
 70
0
  3
Dashed (2x) ____  ____  ____  ____  ____  ____
 72
65
 73
2
 40
3.048
 49
2.54
 74
0
 49
-0.508
 74
0
  0
LTYPE
  5
34
330
2
100
AcDbSymbolTableRecord
100
AcDbLinetypeTableRecord
  2
DASHED2
 70
0
  3
Dashed (.5x) _ _ _ _ _ _ _ _ _ _ _ _ _ _
 72
65
 73
2
 40
0.762
 49
0.635
 74
0
 49
-0.127
 74
0
  0
LTYPE
  5
35
330
2
100
AcDbSymbolTableRecord
100
AcDbLinetypeTableRecord
  2
PHANTOM
 70
0
  3
Phantom ______  __  __  ______  __  __  ______
 72
65
 73
6
 40
6.35
 49
3.175
 74
0
 49
-0.635
 74
0
 49
0.635
 74
0
 49
-0.635
 74
0
 49
0.635
 74
0
 49
-0.635
 74
0
  0
LTYPE
  5
36
330
2
100
AcDbSymbolTableRecord
100
AcDbLinetypeTableRecord
  2
PHANTOMX2
 70
0
  3
Phantom (2x)____________    ____    ____    ____________
 72
65
 73
6
 40
10.795
 49
6.35
 74
0
 49
-0.635
 74
0
 49
1.27
 74
0
 49
-0.635
 74
0
 49
1.27
 74
0
 49
-0.635
 74
0
  0
LTYPE
  5
37
330
2
100
AcDbSymbolTableRecord
100
AcDbLinetypeTableRecord
  2
PHANTOM2
 70
0
  3
Phantom (.5x) ___ _ _ ___ _ _ ___ _ _ ___ _ _ ___
 72
65
 73
6
 40
3.175
 49
1.587
 74
0
 49
-0.318
 74
0
 49
0.318
 74
0
 49
-0.318
 74
0
 49
0.318
 74
0
 49
-0.318
 74
0
  0
LTYPE
  5
38
330
2
100
AcDbSymbolTableRecord
100
AcDbLinetypeTableRecord
  2
DASHDOT
 70
0
  3
Dash dot __ . __ . __ . __ . __ . __ . __ . __
 72
65
 73
4
 40
3.556
 49
2.54
 74
0
 49
-0.508
 74
0
 49
0.0
 74
0
 49
-0.508
 74
0
  0
LTYPE
  5
39
330
2
100
AcDbSymbolTableRecord
100
AcDbLinetypeTableRecord
  2
DASHDOTX2
 70
0
  3
Dash dot (2x) ____  .  ____  .  ____  .  ____
 72
65
 73
4
 40
6.096
 49
5.08
 74
0
 49
-0.508
 74
0
 49
0.0
 74
0
 49
-0.508
 74
0
  0
LTYPE
  5
3A
330
2
100
AcDbSymbolTableRecord
100
AcDbLinetypeTableRecord
  2
DASHDOT2
 70
0
  3
Dash dot (.5x) _ . _ . _ . _ . _ . _ . _ . _
 72
65
 73
4
 40
1.778
 49
1.27
 74
0
 49
-0.254
 74
0
 49
0.0
 74
0
 49
-0.254
 74
0
  0
LTYPE
  5
3B
330
2
100
AcDbSymbolTableRecord
100
AcDbLinetypeTableRecord
  2
DOT
 70
0
  3
Dot .  .  .  .  .  .  .  .  .  .  .  .  .  .  .  .
 72
65
 73
2
 40
0.508
 49
0.0
 74
0
 49
-0.508
 74
0
  0
LTYPE
  5
3C
330
2
100
AcDbSymbolTableRecord
100
AcDbLinetypeTableRecord
  2
DOTX2
 70
0
  3
Dot (2x) .    .    .    .    .    .    .    . 
 72
65
 73
2
 40
1.016
 49
0.0
 74
0
 49
-1.016
 74
0
  0
LTYPE
  5
3D
330
2
100
AcDbSymbolTableRecord
100
AcDbLinetypeTableRecord
  2
DOT2
 70
0
  3
Dot (.5) . . . . . . . . . . . . . . . . . . . 
 72
65
 73
2
 40
0.254
 49
0.0
 74
0
 49
-0.254
 74
0
  0
LTYPE
  5
3E
330
2
100
AcDbSymbolTableRecord
100
AcDbLinetypeTableRecord
  2
DIVIDE
 70
0
  3
Divide __ . . __ . . __ . . __ . . __ . . __
 72
65
 73
6
 40
4.064
 49
2.54
 74
0
 49
-0.508
 74
0
 49
0.0
 74
0
 49
-0.508
 74
0
 49
0.0
 74
0
 49
-0.508
 74
0
  0
LTYPE
  5
3F
330
2
100
AcDbSymbolTableRecord
100
AcDbLinetypeTableRecord
  2
DIVIDEX2
 70
0
  3
Divide (2x) ____  . .  ____  . .  ____  . .  ____
 72
65
 73
6
 40
6.604
 49
5.08
 74
0
 49
-0.508
 74
0
 49
0.0
 74
0
 49
-0.508
 74
0
 49
0.0
 74
0
 49
-0.508
 74
0
  0
LTYPE
  5
40
330
2
100
AcDbSymbolTableRecord
100
AcDbLinetypeTableRecord
  2
DIVIDE2
 70
0
  3
Divide(.5x) _ . _ . _ . _ . _ . _ . _ . _
 72
65
 73
6
 40
2.032
 49
1.27
 74
0
 49
-0.254
 74
0
 49
0.0
 74
0
 49
-0.254
 74
0
 49
0.0
 74
0
 49
-0.254
 74
0
  0
ENDTAB
  0
TABLE
  2
LAYER
  5
1
330
0
100
AcDbSymbolTable
 70
16
  0
LAYER
  5
27
330
1
100
AcDbSymbolTableRecord
100
AcDbLayerTableRecord
  2
0
 70
0
 62
7
  6
Continuous
370
-3
390
13
347
21
  0
LAYER
  5
28
330
1
100
AcDbSymbolTableRecord
100
AcDbLayerTableRecord
  2
Defpoints
 70
0
 62
7
  6
Continuous
290
0
370
-3
390
13
347
21
  0
LAYER
  5
8C
330
1
100
AcDbSymbolTableRecord
100
AcDbLayerTableRecord
  2
FRAME
 70
0
 62
8
  6
CONTINUOUS
370
25
390
13
347
21
  0
LAYER
  5
8D
330
1
100
AcDbSymbolTableRecord
100
AcDbLayerTableRecord
  2
TITLE
 70
0
 62
7
  6
CONTINUOUS
370
25
390
13
347
21
  0
LAYER
  5
8E
330
1
100
AcDbSymbolTableRecord
100
AcDbLayerTableRecord
  2
PANEL_18
 70
0
 62
3
  6
CONTINUOUS
370
25
390
13
347
21
  0
LAYER
  5
8F
330
1
100
AcDbSymbolTableRecord
100
AcDbLayerTableRecord
  2
PANEL_15
 70
0
 62
4
  6
CONTINUOUS
370
18
390
13
347
21
  0
LAYER
  5
90
330
1
100
AcDbSymbolTableRecord
100
AcDbLayerTableRecord
  2
PANEL_9
 70
0
 62
5
  6
CONTINUOUS
370
18
390
13
347
21
  0
LAYER
  5
91
330
1
100
AcDbSymbolTableRecord
100
AcDbLayerTableRecord
  2
PANEL_5
 70
0
 62
6
  6
CONTINUOUS
370
13
390
13
347
21
  0
LAYER
  5
92
330
1
100
AcDbSymbolTableRecord
100
AcDbLayerTableRecord
  2
EDGE_1MM
 70
0
 62
1
  6
CONTINUOUS
370
70
390
13
347
21
  0
LAYER
  5
93
330
1
100
AcDbSymbolTableRecord
100
AcDbLayerTableRecord
  2
EDGE_04MM
 70
0
 62
2
  6
CONTINUOUS
370
35
390
13
347
21
  0
LAYER
  5
94
330
1
100
AcDbSymbolTableRecord
100
AcDbLayerTableRecord
  2
EDGE_NONE
 70
0
 62
9
  6
DASHED
370
9
390
13
347
21
  0
LAYER
  5
95
330
1
100
AcDbSymbolTableRecord
100
AcDbLayerTableRecord
  2
DIM
 70
0
 62
7
  6
CONTINUOUS
370
13
390
13
347
21
  0
LAYER
  5
96
330
1
100
AcDbSymbolTableRecord
100
AcDbLayerTableRecord
  2
ELEV_STRUCT
 70
0
 62
3
  6
CONTINUOUS
370
35
390
13
347
21
  0
LAYER
  5
97
330
1
100
AcDbSymbolTableRecord
100
AcDbLayerTableRecord
  2
ELEV_FRONT
 70
0
 62
5
  6
CONTINUOUS
370
25
390
13
347
21
  0
LAYER
  5
98
330
1
100
AcDbSymbolTableRecord
100
AcDbLayerTableRecord
  2
ELEV_HW
 70
0
 62
4
  6
CENTER
370
18
390
13
347
21
  0
LAYER
  5
99
330
1
100
AcDbSymbolTableRecord
100
AcDbLayerTableRecord
  2
NOTE
 70
0
 62
2
  6
CONTINUOUS
370
13
390
13
347
21
  0
ENDTAB
  0
TABLE
  2
STYLE
  5
5
330
0
100
AcDbSymbolTable
 70
27
  0
STYLE
  5
29
330
5
100
AcDbSymbolTableRecord
100
AcDbTextStyleTableRecord
  2
Standard
 70
0
 40
0.0
 41
1.0
 50
0.0
 71
0
 42
2.5
  3
txt
  4

  0
STYLE
  5
41
330
5
100
AcDbSymbolTableRecord
100
AcDbTextStyleTableRecord
  2
OpenSans-Light
 70
0
 40
0.0
 41
1.0
 50
0.0
 71
0
 42
2.5
  3
OpenSans-Light.ttf
  4

  0
STYLE
  5
42
330
5
100
AcDbSymbolTableRecord
100
AcDbTextStyleTableRecord
  2
OpenSans-Light-Italic
 70
0
 40
0.0
 41
1.0
 50
0.0
 71
0
 42
2.5
  3
OpenSans-LightItalic.ttf
  4

  0
STYLE
  5
43
330
5
100
AcDbSymbolTableRecord
100
AcDbTextStyleTableRecord
  2
OpenSans
 70
0
 40
0.0
 41
1.0
 50
0.0
 71
0
 42
2.5
  3
OpenSans-Regular.ttf
  4

  0
STYLE
  5
44
330
5
100
AcDbSymbolTableRecord
100
AcDbTextStyleTableRecord
  2
OpenSans-Italic
 70
0
 40
0.0
 41
1.0
 50
0.0
 71
0
 42
2.5
  3
OpenSans-Italic.ttf
  4

  0
STYLE
  5
45
330
5
100
AcDbSymbolTableRecord
100
AcDbTextStyleTableRecord
  2
OpenSans-SemiBold
 70
0
 40
0.0
 41
1.0
 50
0.0
 71
0
 42
2.5
  3
OpenSans-SemiBold.ttf
  4

  0
STYLE
  5
46
330
5
100
AcDbSymbolTableRecord
100
AcDbTextStyleTableRecord
  2
OpenSans-SemiBoldItalic
 70
0
 40
0.0
 41
1.0
 50
0.0
 71
0
 42
2.5
  3
OpenSans-SemiBoldItalic.ttf
  4

  0
STYLE
  5
47
330
5
100
AcDbSymbolTableRecord
100
AcDbTextStyleTableRecord
  2
OpenSans-Bold
 70
0
 40
0.0
 41
1.0
 50
0.0
 71
0
 42
2.5
  3
OpenSans-Bold.ttf
  4

  0
STYLE
  5
48
330
5
100
AcDbSymbolTableRecord
100
AcDbTextStyleTableRecord
  2
OpenSans-BoldItalic
 70
0
 40
0.0
 41
1.0
 50
0.0
 71
0
 42
2.5
  3
OpenSans-BoldItalic.ttf
  4

  0
STYLE
  5
49
330
5
100
AcDbSymbolTableRecord
100
AcDbTextStyleTableRecord
  2
OpenSans-ExtraBold
 70
0
 40
0.0
 41
1.0
 50
0.0
 71
0
 42
2.5
  3
OpenSans-ExtraBold.ttf
  4

  0
STYLE
  5
4A
330
5
100
AcDbSymbolTableRecord
100
AcDbTextStyleTableRecord
  2
OpenSans-ExtraBoldItalic
 70
0
 40
0.0
 41
1.0
 50
0.0
 71
0
 42
2.5
  3
OpenSans-ExtraBoldItalic.ttf
  4

  0
STYLE
  5
4B
330
5
100
AcDbSymbolTableRecord
100
AcDbTextStyleTableRecord
  2
OpenSansCondensed-Bold
 70
0
 40
0.0
 41
1.0
 50
0.0
 71
0
 42
2.5
  3
OpenSansCondensed-Bold.ttf
  4

  0
STYLE
  5
4C
330
5
100
AcDbSymbolTableRecord
100
AcDbTextStyleTableRecord
  2
OpenSansCondensed-Light
 70
0
 40
0.0
 41
1.0
 50
0.0
 71
0
 42
2.5
  3
OpenSansCondensed-Light.ttf
  4

  0
STYLE
  5
4D
330
5
100
AcDbSymbolTableRecord
100
AcDbTextStyleTableRecord
  2
OpenSansCondensed-Italic
 70
0
 40
0.0
 41
1.0
 50
0.0
 71
0
 42
2.5
  3
OpenSansCondensed-LightItalic.ttf
  4

  0
STYLE
  5
4E
330
5
100
AcDbSymbolTableRecord
100
AcDbTextStyleTableRecord
  2
LiberationSans
 70
0
 40
0.0
 41
1.0
 50
0.0
 71
0
 42
2.5
  3
LiberationSans-Regular.ttf
  4

  0
STYLE
  5
4F
330
5
100
AcDbSymbolTableRecord
100
AcDbTextStyleTableRecord
  2
LiberationSans-Bold
 70
0
 40
0.0
 41
1.0
 50
0.0
 71
0
 42
2.5
  3
LiberationSans-Bold.ttf
  4

  0
STYLE
  5
50
330
5
100
AcDbSymbolTableRecord
100
AcDbTextStyleTableRecord
  2
LiberationSans-BoldItalic
 70
0
 40
0.0
 41
1.0
 50
0.0
 71
0
 42
2.5
  3
LiberationSans-BoldItalic.ttf
  4

  0
STYLE
  5
51
330
5
100
AcDbSymbolTableRecord
100
AcDbTextStyleTableRecord
  2
LiberationSans-Italic
 70
0
 40
0.0
 41
1.0
 50
0.0
 71
0
 42
2.5
  3
LiberationSans-Italic.ttf
  4

  0
STYLE
  5
52
330
5
100
AcDbSymbolTableRecord
100
AcDbTextStyleTableRecord
  2
LiberationSerif
 70
0
 40
0.0
 41
1.0
 50
0.0
 71
0
 42
2.5
  3
LiberationSerif-Regular.ttf
  4

  0
STYLE
  5
53
330
5
100
AcDbSymbolTableRecord
100
AcDbTextStyleTableRecord
  2
LiberationSerif-Bold
 70
0
 40
0.0
 41
1.0
 50
0.0
 71
0
 42
2.5
  3
LiberationSerif-Bold.ttf
  4

  0
STYLE
  5
54
330
5
100
AcDbSymbolTableRecord
100
AcDbTextStyleTableRecord
  2
LiberationSerif-BoldItalic
 70
0
 40
0.0
 41
1.0
 50
0.0
 71
0
 42
2.5
  3
LiberationSerif-BoldItalic.ttf
  4

  0
STYLE
  5
55
330
5
100
AcDbSymbolTableRecord
100
AcDbTextStyleTableRecord
  2
LiberationSerif-Italic
 70
0
 40
0.0
 41
1.0
 50
0.0
 71
0
 42
2.5
  3
LiberationSerif-Italic.ttf
  4

  0
STYLE
  5
56
330
5
100
AcDbSymbolTableRecord
100
AcDbTextStyleTableRecord
  2
LiberationMono
 70
0
 40
0.0
 41
1.0
 50
0.0
 71
0
 42
2.5
  3
LiberationMono-Regular.ttf
  4

  0
STYLE
  5
57
330
5
100
AcDbSymbolTableRecord
100
AcDbTextStyleTableRecord
  2
LiberationMono-Bold
 70
0
 40
0.0
 41
1.0
 50
0.0
 71
0
 42
2.5
  3
LiberationMono-Bold.ttf
  4

  0
STYLE
  5
58
330
5
100
AcDbSymbolTableRecord
100
AcDbTextStyleTableRecord
  2
LiberationMono-BoldItalic
 70
0
 40
0.0
 41
1.0
 50
0.0
 71
0
 42
2.5
  3
LiberationMono-BoldItalic.ttf
  4

  0
STYLE
  5
59
330
5
100
AcDbSymbolTableRecord
100
AcDbTextStyleTableRecord
  2
LiberationMono-Italic
 70
0
 40
0.0
 41
1.0
 50
0.0
 71
0
 42
2.5
  3
LiberationMono-Italic.ttf
  4

  0
STYLE
  5
8A
330
5
100
AcDbSymbolTableRecord
100
AcDbTextStyleTableRecord
  2
HZ
 70
0
 40
0.0
 41
1.0
 50
0.0
 71
0
 42
2.5
  3
simfang.ttf
  4

  0
ENDTAB
  0
TABLE
  2
VIEW
  5
7
330
0
100
AcDbSymbolTable
 70
0
  0
ENDTAB
  0
TABLE
  2
UCS
  5
6
330
0
100
AcDbSymbolTable
 70
0
  0
ENDTAB
  0
TABLE
  2
APPID
  5
3
330
0
100
AcDbSymbolTable
 70
3
  0
APPID
  5
2A
330
3
100
AcDbSymbolTableRecord
100
AcDbRegAppTableRecord
  2
ACAD
 70
0
  0
APPID
  5
57B
330
3
100
AcDbSymbolTableRecord
100
AcDbRegAppTableRecord
  2
HATCHBACKGROUNDCOLOR
 70
0
  0
APPID
  5
57C
330
3
100
AcDbSymbolTableRecord
100
AcDbRegAppTableRecord
  2
EZDXF
 70
0
  0
ENDTAB
  0
TABLE
  2
DIMSTYLE
  5
4
330
0
100
AcDbSymbolTable
 70
13
100
AcDbDimStyleTable
  0
DIMSTYLE
105
2B
330
4
100
AcDbSymbolTableRecord
100
AcDbDimStyleTableRecord
  2
Standard
 70
0
 40
1.0
 41
2.5
 42
0.625
 43
3.75
 44
1.25
 45
0.0
 46
0.0
 47
0.0
 48
0.0
 49
2.5
140
2.5
141
2.5
142
0.0
143
0.03937007874
144
1.0
145
0.0
146
1.0
147
0.625
148
0.0
 69
0
 70
0
 71
0
 72
0
 73
0
 74
0
 75
0
 76
0
 77
1
 78
8
 79
3
170
0
171
3
172
1
173
0
174
0
175
0
176
0
177
0
178
0
179
2
271
2
272
2
273
2
274
3
275
0
276
0
277
2
278
44
279
0
280
0
281
0
282
0
283
0
284
8
285
0
286
0
288
0
289
3
290
0
371
-2
372
-2
  0
DIMSTYLE
105
73
330
4
100
AcDbSymbolTableRecord
100
AcDbDimStyleTableRecord
  2
EZDXF
 70
0
 40
1.0
 41
0.175
 42
0.125
 43
3.75
 44
0.375
 45
0.0
 46
0.0
 47
0.0
 48
0.0
 49
2.5
140
0.25
141
2.5
142
0.0
143
0.03937007874
144
100.0
145
0.0
146
0.5
147
0.1
148
0.0
 69
0
 70
0
 71
0
 72
0
 73
0
 74
0
 75
0
 76
0
 77
1
 78
12
 79
3
170
0
171
3
172
1
173
0
174
0
175
0
176
0
177
0
178
0
179
2
271
2
272
2
273
2
274
3
275
0
276
0
277
2
278
46
279
2
280
0
281
0
282
0
283
0
284
8
285
0
286
0
288
1
289
3
290
0
340
4C
342
74
371
-2
372
-2
  0
DIMSTYLE
105
7C
330
4
100
AcDbSymbolTableRecord
100
AcDbDimStyleTableRecord
  2
EZ_M_100_H25_CM
 70
0
 40
1.0
 41
0.25
 42
0.125
 43
3.75
 44
0.375
 45
0.0
 46
0.0
 47
0.0
 48
0.0
 49
2.5
140
0.25
141
2.5
142
0.125
143
0.03937007874
144
100.0
145
0.0
146
0.5
147
0.1
148
0.0
 69
0
 70
0
 71
0
 72
0
 73
0
 74
0
 75
0
 76
0
 77
1
 78
12
 79
3
170
0
171
3
172
1
173
0
174
0
175
0
176
0
177
0
178
0
179
2
271
2
272
2
273
2
274
3
275
0
276
0
277
2
278
46
279
2
280
0
281
0
282
0
283
0
284
8
285
0
286
0
288
1
289
3
290
0
340
4C
371
-2
372
-2
  0
DIMSTYLE
105
7D
330
4
100
AcDbSymbolTableRecord
100
AcDbDimStyleTableRecord
  2
EZ_M_50_H25_CM
 70
0
 40
1.0
 41
0.125
 42
0.0625
 43
3.75
 44
0.1875
 45
0.0
 46
0.0
 47
0.0
 48
0.0
 49
2.5
140
0.125
141
2.5
142
0.0625
143
0.03937007874
144
100.0
145
0.0
146
0.5
147
0.05
148
0.0
 69
0
 70
0
 71
0
 72
0
 73
0
 74
0
 75
0
 76
0
 77
1
 78
12
 79
3
170
0
171
3
172
1
173
0
174
0
175
0
176
0
177
0
178
0
179
2
271
2
272
2
273
2
274
3
275
0
276
0
277
2
278
46
279
2
280
0
281
0
282
0
283
0
284
8
285
0
286
0
288
1
289
3
290
0
340
4C
371
-2
372
-2
  0
DIMSTYLE
105
7E
330
4
100
AcDbSymbolTableRecord
100
AcDbDimStyleTableRecord
  2
EZ_M_25_H25_CM
 70
0
 40
1.0
 41
0.0625
 42
0.03125
 43
3.75
 44
0.09375
 45
0.0
 46
0.0
 47
0.0
 48
0.0
 49
2.5
140
0.0625
141
2.5
142
0.03125
143
0.03937007874
144
100.0
145
0.0
146
0.5
147
0.025
148
0.0
 69
0
 70
0
 71
0
 72
0
 73
0
 74
0
 75
0
 76
0
 77
1
 78
12
 79
3
170
0
171
3
172
1
173
0
174
0
175
0
176
0
177
0
178
0
179
2
271
2
272
2
273
2
274
3
275
0
276
0
277
2
278
46
279
2
280
0
281
0
282
0
283
0
284
8
285
0
286
0
288
1
289
3
290
0
340
4C
371
-2
372
-2
  0
DIMSTYLE
105
7F
330
4
100
AcDbSymbolTableRecord
100
AcDbDimStyleTableRecord
  2
EZ_M_20_H25_CM
 70
0
 40
1.0
 41
0.05
 42
0.025
 43
3.75
 44
0.07500000000000001
 45
0.0
 46
0.0
 47
0.0
 48
0.0
 49
2.5
140
0.05
141
2.5
142
0.025
143
0.03937007874
144
100.0
145
0.0
146
0.5
147
0.020000000000000004
148
0.0
 69
0
 70
0
 71
0
 72
0
 73
0
 74
0
 75
0
 76
0
 77
1
 78
12
 79
3
170
0
171
3
172
1
173
0
174
0
175
0
176
0
177
0
178
0
179
2
271
2
272
2
273
2
274
3
275
0
276
0
277
2
278
46
279
2
280
0
281
0
282
0
283
0
284
8
285
0
286
0
288
1
289
3
290
0
340
4C
371
-2
372
-2
  0
DIMSTYLE
105
80
330
4
100
AcDbSymbolTableRecord
100
AcDbDimStyleTableRecord
  2
EZ_M_10_H25_CM
 70
0
 40
1.0
 41
0.025
 42
0.0125
 43
3.75
 44
0.037500000000000006
 45
0.0
 46
0.0
 47
0.0
 48
0.0
 49
2.5
140
0.025
141
2.5
142
0.0125
143
0.03937007874
144
100.0
145
0.0
146
0.5
147
0.010000000000000002
148
0.0
 69
0
 70
0
 71
0
 72
0
 73
0
 74
0
 75
0
 76
0
 77
1
 78
12
 79
3
170
0
171
3
172
1
173
0
174
0
175
0
176
0
177
0
178
0
179
2
271
2
272
2
273
2
274
3
275
0
276
0
277
2
278
46
279
2
280
0
281
0
282
0
283
0
284
8
285
0
286
0
288
1
289
3
290
0
340
4C
371
-2
372
-2
  0
DIMSTYLE
105
81
330
4
100
AcDbSymbolTableRecord
100
AcDbDimStyleTableRecord
  2
EZ_M_5_H25_CM
 70
0
 40
1.0
 41
0.0125
 42
0.00625
 43
3.75
 44
0.018750000000000003
 45
0.0
 46
0.0
 47
0.0
 48
0.0
 49
2.5
140
0.0125
141
2.5
142
0.00625
143
0.03937007874
144
100.0
145
0.0
146
0.5
147
0.005000000000000001
148
0.0
 69
0
 70
0
 71
0
 72
0
 73
0
 74
0
 75
0
 76
0
 77
1
 78
12
 79
3
170
0
171
3
172
1
173
0
174
0
175
0
176
0
177
0
178
0
179
2
271
2
272
2
273
2
274
3
275
0
276
0
277
2
278
46
279
2
280
0
281
0
282
0
283
0
284
8
285
0
286
0
288
1
289
3
290
0
340
4C
371
-2
372
-2
  0
DIMSTYLE
105
82
330
4
100
AcDbSymbolTableRecord
100
AcDbDimStyleTableRecord
  2
EZ_M_1_H25_CM
 70
0
 40
1.0
 41
0.0025
 42
0.00125
 43
3.75
 44
0.00375
 45
0.0
 46
0.0
 47
0.0
 48
0.0
 49
2.5
140
0.0025
141
2.5
142
0.00125
143
0.03937007874
144
100.0
145
0.0
146
0.5
147
0.001
148
0.0
 69
0
 70
0
 71
0
 72
0
 73
0
 74
0
 75
0
 76
0
 77
1
 78
12
 79
3
170
0
171
3
172
1
173
0
174
0
175
0
176
0
177
0
178
0
179
2
271
2
272
2
273
2
274
3
275
0
276
0
277
2
278
46
279
2
280
0
281
0
282
0
283
0
284
8
285
0
286
0
288
1
289
3
290
0
340
4C
371
-2
372
-2
  0
DIMSTYLE
105
83
330
4
100
AcDbSymbolTableRecord
100
AcDbDimStyleTableRecord
  2
EZ_RADIUS
 70
0
 40
1.0
 41
0.25
 42
0.125
 43
3.75
 44
0.375
 45
0.0
 46
0.0
 47
0.0
 48
0.0
 49
2.5
140
0.25
141
0.0
142
0.0
143
0.03937007874
144
100.0
145
0.0
146
0.5
147
0.1
148
0.0
 69
0
 70
0
 71
0
 72
0
 73
0
 74
0
 75
0
 76
0
 77
1
 78
12
 79
3
170
0
171
3
172
0
173
0
174
0
175
0
176
0
177
0
178
0
179
2
271
2
272
2
273
2
274
3
275
0
276
0
277
2
278
46
279
1
280
0
281
0
282
0
283
0
284
8
285
0
286
0
288
1
289
3
290
0
340
4C
342
84
371
-2
372
-2
  0
DIMSTYLE
105
88
330
4
100
AcDbSymbolTableRecord
100
AcDbDimStyleTableRecord
  2
EZ_RADIUS_INSIDE
 70
0
 40
1.0
 41
0.25
 42
0.125
 43
3.75
 44
0.375
 45
0.0
 46
0.0
 47
0.0
 48
0.0
 49
2.5
140
0.25
141
0.0
142
0.0
143
0.03937007874
144
100.0
145
0.0
146
0.5
147
0.1
148
0.0
 69
0
 70
0
 71
0
 72
0
 73
0
 74
0
 75
0
 76
0
 77
0
 78
12
 79
3
170
0
171
3
172
0
173
0
174
1
175
0
176
0
177
0
178
0
179
2
271
2
272
2
273
2
274
3
275
0
276
0
277
2
278
46
279
0
280
0
281
0
282
0
283
0
284
8
285
0
286
0
288
1
289
0
290
0
340
4C
342
84
371
-2
372
-2
  0
DIMSTYLE
105
89
330
4
100
AcDbSymbolTableRecord
100
AcDbDimStyleTableRecord
  2
EZ_CURVED
 70
0
 40
1.0
 41
0.25
 42
0.125
 43
3.75
 44
0.375
 45
0.0
 46
0.0
 47
0.0
 48
0.0
 49
2.5
140
0.25
141
2.5
142
0.0
143
0.03937007874
144
100.0
145
0.0
146
0.5
147
0.1
148
0.0
 69
0
 70
0
 71
0
 72
0
 73
0
 74
0
 75
0
 76
0
 77
1
 78
12
 79
2
 90
2
170
0
171
3
172
1
173
0
174
0
175
0
176
0
177
0
178
0
179
2
271
2
272
2
273
2
274
3
275
0
276
0
277
2
278
46
279
2
280
0
281
0
282
0
283
0
284
8
285
0
286
0
288
1
289
3
290
0
340
4C
371
-2
372
-2
  0
DIMSTYLE
105
8B
330
4
100
AcDbSymbolTableRecord
100
AcDbDimStyleTableRecord
  2
FURN
 70
0
 40
1.0
 41
18.0
 42
8.0
 43
3.75
 44
6.0
 45
0.0
 46
0.0
 47
0.0
 48
0.0
 49
2.5
140
25.0
141
2.5
142
0.0
143
0.03937007874
144
1.0
145
0.0
146
0.5
147
0.1
148
0.0
 69
0
 70
0
 71
0
 72
0
 73
0
 74
0
 75
0
 76
0
 77
1
 78
12
 79
3
170
0
171
3
172
1
173
0
174
0
175
0
176
7
177
0
178
7
179
2
271
0
272
2
273
2
274
3
275
0
276
0
277
2
278
46
279
2
280
0
281
0
282
0
283
0
284
8
285
0
286
0
288
1
289
3
290
0
340
8A
342
74
371
-2
372
-2
  0
ENDTAB
  0
TABLE
  2
BLOCK_RECORD
  5
9
330
0
100
AcDbSymbolTable
 70
68
  0
BLOCK_RECORD
  5
17
330
9
100
AcDbSymbolTableRecord
100
AcDbBlockTableRecord
  2
*Model_Space
340
1A
 70
0
280
1
281
0
  0
BLOCK_RECORD
  5
1B
330
9
100
AcDbSymbolTableRecord
100
AcDbBlockTableRecord
  2
*Paper_Space
340
1E
 70
0
280
1
281
0
  0
BLOCK_RECORD
  5
74
330
9
100
AcDbSymbolTableRecord
100
AcDbBlockTableRecord
  2
_ARCHTICK
340
0
 70
0
280
1
281
0
  0
BLOCK_RECORD
  5
78
330
9
100
AcDbSymbolTableRecord
100
AcDbBlockTableRecord
  2
_CLOSEDFILLED
340
0
 70
0
280
1
281
0
  0
BLOCK_RECORD
  5
84
330
9
100
AcDbSymbolTableRecord
100
AcDbBlockTableRecord
  2
_CLOSEDBLANK
340
0
 70
0
280
1
281
0
  0
BLOCK_RECORD
  5
B0
330
9
100
AcDbSymbolTableRecord
100
AcDbBlockTableRecord
  2
*D1
340
0
 70
0
280
1
281
0
  0
BLOCK_RECORD
  5
BF
330
9
100
AcDbSymbolTableRecord
100
AcDbBlockTableRecord
  2
*D2
340
0
 70
0
280
1
281
0
  0
BLOCK_RECORD
  5
CE
330
9
100
AcDbSymbolTableRecord
100
AcDbBlockTableRecord
  2
*D3
340
0
 70
0
280
1
281
0
  0
BLOCK_RECORD
  5
DD
330
9
100
AcDbSymbolTableRecord
100
AcDbBlockTableRecord
  2
*D4
340
0
 70
0
280
1
281
0
  0
BLOCK_RECORD
  5
EC
330
9
100
AcDbSymbolTableRecord
100
AcDbBlockTableRecord
  2
*D5
340
0
 70
0
280
1
281
0
  0
BLOCK_RECORD
  5
FB
330
9
100
AcDbSymbolTableRecord
100
AcDbBlockTableRecord
  2
*D6
340
0
 70
0
280
1
281
0
  0
BLOCK_RECORD
  5
10A
330
9
100
AcDbSymbolTableRecord
100
AcDbBlockTableRecord
  2
*D7
340
0
 70
0
280
1
281
0
  0
BLOCK_RECORD
  5
127
330
9
100
AcDbSymbolTableRecord
100
AcDbBlockTableRecord
  2
*D8
340
0
 70
0
280
1
281
0
  0
BLOCK_RECORD
  5
136
330
9
100
AcDbSymbolTableRecord
100
AcDbBlockTableRecord
  2
*D9
340
0
 70
0
280
1
281
0
  0
BLOCK_RECORD
  5
14D
330
9
100
AcDbSymbolTableRecord
100
AcDbBlockTableRecord
  2
*D10
340
0
 70
0
280
1
281
0
  0
BLOCK_RECORD
  5
15C
330
9
100
AcDbSymbolTableRecord
100
AcDbBlockTableRecord
  2
*D11
340
0
 70
0
280
1
281
0
  0
BLOCK_RECORD
  5
174
330
9
100
AcDbSymbolTableRecord
100
AcDbBlockTableRecord
  2
*D12
340
0
 70
0
280
1
281
0
  0
BLOCK_RECORD
  5
183
330
9
100
AcDbSymbolTableRecord
100
AcDbBlockTableRecord
  2
*D13
340
0
 70
0
280
1
281
0
  0
BLOCK_RECORD
  5
19B
330
9
100
AcDbSymbolTableRecord
100
AcDbBlockTableRecord
  2
*D14
340
0
 70
0
280
1
281
0
  0
BLOCK_RECORD
  5
1AA
330
9
100
AcDbSymbolTableRecord
100
AcDbBlockTableRecord
  2
*D15
340
0
 70
0
280
1
281
0
  0
BLOCK_RECORD
  5
1C2
330
9
100
AcDbSymbolTableRecord
100
AcDbBlockTableRecord
  2
*D16
340
0
 70
0
280
1
281
0
  0
BLOCK_RECORD
  5
1D1
330
9
100
AcDbSymbolTableRecord
100
AcDbBlockTableRecord
  2
*D17
340
0
 70
0
280
1
281
0
  0
BLOCK_RECORD
  5
1E8
330
9
100
AcDbSymbolTableRecord
100
AcDbBlockTableRecord
  2
*D18
340
0
 70
0
280
1
281
0
  0
BLOCK_RECORD
  5
1F7
330
9
100
AcDbSymbolTableRecord
100
AcDbBlockTableRecord
  2
*D19
340
0
 70
0
280
1
281
0
  0
BLOCK_RECORD
  5
20F
330
9
100
AcDbSymbolTableRecord
100
AcDbBlockTableRecord
  2
*D20
340
0
 70
0
280
1
281
0
  0
BLOCK_RECORD
  5
21E
330
9
100
AcDbSymbolTableRecord
100
AcDbBlockTableRecord
  2
*D21
340
0
 70
0
280
1
281
0
  0
BLOCK_RECORD
  5
236
330
9
100
AcDbSymbolTableRecord
100
AcDbBlockTableRecord
  2
*D22
340
0
 70
0
280
1
281
0
  0
BLOCK_RECORD
  5
245
330
9
100
AcDbSymbolTableRecord
100
AcDbBlockTableRecord
  2
*D23
340
0
 70
0
280
1
281
0
  0
BLOCK_RECORD
  5
25E
330
9
100
AcDbSymbolTableRecord
100
AcDbBlockTableRecord
  2
*D24
340
0
 70
0
280
1
281
0
  0
BLOCK_RECORD
  5
26D
330
9
100
AcDbSymbolTableRecord
100
AcDbBlockTableRecord
  2
*D25
340
0
 70
0
280
1
281
0
  0
BLOCK_RECORD
  5
286
330
9
100
AcDbSymbolTableRecord
100
AcDbBlockTableRecord
  2
*D26
340
0
 70
0
280
1
281
0
  0
BLOCK_RECORD
  5
295
330
9
100
AcDbSymbolTableRecord
100
AcDbBlockTableRecord
  2
*D27
340
0
 70
0
280
1
281
0
  0
BLOCK_RECORD
  5
2AE
330
9
100
AcDbSymbolTableRecord
100
AcDbBlockTableRecord
  2
*D28
340
0
 70
0
280
1
281
0
  0
BLOCK_RECORD
  5
2BD
330
9
100
AcDbSymbolTableRecord
100
AcDbBlockTableRecord
  2
*D29
340
0
 70
0
280
1
281
0
  0
BLOCK_RECORD
  5
2D6
330
9
100
AcDbSymbolTableRecord
100
AcDbBlockTableRecord
  2
*D30
340
0
 70
0
280
1
281
0
  0
BLOCK_RECORD
  5
2E5
330
9
100
AcDbSymbolTableRecord
100
AcDbBlockTableRecord
  2
*D31
340
0
 70
0
280
1
281
0
  0
BLOCK_RECORD
  5
2FE
330
9
100
AcDbSymbolTableRecord
100
AcDbBlockTableRecord
  2
*D32
340
0
 70
0
280
1
281
0
  0
BLOCK_RECORD
  5
30D
330
9
100
AcDbSymbolTableRecord
100
AcDbBlockTableRecord
  2
*D33
340
0
 70
0
280
1
281
0
  0
BLOCK_RECORD
  5
326
330
9
100
AcDbSymbolTableRecord
100
AcDbBlockTableRecord
  2
*D34
340
0
 70
0
280
1
281
0
  0
BLOCK_RECORD
  5
335
330
9
100
AcDbSymbolTableRecord
100
AcDbBlockTableRecord
  2
*D35
340
0
 70
0
280
1
281
0
  0
BLOCK_RECORD
  5
34D
330
9
100
AcDbSymbolTableRecord
100
AcDbBlockTableRecord
  2
*D36
340
0
 70
0
280
1
281
0
  0
BLOCK_RECORD
  5
35C
330
9
100
AcDbSymbolTableRecord
100
AcDbBlockTableRecord
  2
*D37
340
0
 70
0
280
1
281
0
  0
BLOCK_RECORD
  5
374
330
9
100
AcDbSymbolTableRecord
100
AcDbBlockTableRecord
  2
*D38
340
0
 70
0
280
1
281
0
  0
BLOCK_RECORD
  5
383
330
9
100
AcDbSymbolTableRecord
100
AcDbBlockTableRecord
  2
*D39
340
0
 70
0
280
1
281
0
  0
BLOCK_RECORD
  5
39B
330
9
100
AcDbSymbolTableRecord
100
AcDbBlockTableRecord
  2
*D40
340
0
 70
0
280
1
281
0
  0
BLOCK_RECORD
  5
3AA
330
9
100
AcDbSymbolTableRecord
100
AcDbBlockTableRecord
  2
*D41
340
0
 70
0
280
1
281
0
  0
BLOCK_RECORD
  5
3C2
330
9
100
AcDbSymbolTableRecord
100
AcDbBlockTableRecord
  2
*D42
340
0
 70
0
280
1
281
0
  0
BLOCK_RECORD
  5
3D1
330
9
100
AcDbSymbolTableRecord
100
AcDbBlockTableRecord
  2
*D43
340
0
 70
0
280
1
281
0
  0
BLOCK_RECORD
  5
3E9
330
9
100
AcDbSymbolTableRecord
100
AcDbBlockTableRecord
  2
*D44
340
0
 70
0
280
1
281
0
  0
BLOCK_RECORD
  5
3F8
330
9
100
AcDbSymbolTableRecord
100
AcDbBlockTableRecord
  2
*D45
340
0
 70
0
280
1
281
0
  0
BLOCK_RECORD
  5
410
330
9
100
AcDbSymbolTableRecord
100
AcDbBlockTableRecord
  2
*D46
340
0
 70
0
280
1
281
0
  0
BLOCK_RECORD
  5
41F
330
9
100
AcDbSymbolTableRecord
100
AcDbBlockTableRecord
  2
*D47
340
0
 70
0
280
1
281
0
  0
BLOCK_RECORD
  5
438
330
9
100
AcDbSymbolTableRecord
100
AcDbBlockTableRecord
  2
*D48
340
0
 70
0
280
1
281
0
  0
BLOCK_RECORD
  5
447
330
9
100
AcDbSymbolTableRecord
100
AcDbBlockTableRecord
  2
*D49
340
0
 70
0
280
1
281
0
  0
BLOCK_RECORD
  5
460
330
9
100
AcDbSymbolTableRecord
100
AcDbBlockTableRecord
  2
*D50
340
0
 70
0
280
1
281
0
  0
BLOCK_RECORD
  5
46F
330
9
100
AcDbSymbolTableRecord
100
AcDbBlockTableRecord
  2
*D51
340
0
 70
0
280
1
281
0
  0
BLOCK_RECORD
  5
488
330
9
100
AcDbSymbolTableRecord
100
AcDbBlockTableRecord
  2
*D52
340
0
 70
0
280
1
281
0
  0
BLOCK_RECORD
  5
497
330
9
100
AcDbSymbolTableRecord
100
AcDbBlockTableRecord
  2
*D53
340
0
 70
0
280
1
281
0
  0
BLOCK_RECORD
  5
4B0
330
9
100
AcDbSymbolTableRecord
100
AcDbBlockTableRecord
  2
*D54
340
0
 70
0
280
1
281
0
  0
BLOCK_RECORD
  5
4BF
330
9
100
AcDbSymbolTableRecord
100
AcDbBlockTableRecord
  2
*D55
340
0
 70
0
280
1
281
0
  0
BLOCK_RECORD
  5
4D6
330
9
100
AcDbSymbolTableRecord
100
AcDbBlockTableRecord
  2
*D56
340
0
 70
0
280
1
281
0
  0
BLOCK_RECORD
  5
4E5
330
9
100
AcDbSymbolTableRecord
100
AcDbBlockTableRecord
  2
*D57
340
0
 70
0
280
1
281
0
  0
BLOCK_RECORD
  5
4FC
330
9
100
AcDbSymbolTableRecord
100
AcDbBlockTableRecord
  2
*D58
340
0
 70
0
280
1
281
0
  0
BLOCK_RECORD
  5
50B
330
9
100
AcDbSymbolTableRecord
100
AcDbBlockTableRecord
  2
*D59
340
0
 70
0
280
1
281
0
  0
BLOCK_RECORD
  5
522
330
9
100
AcDbSymbolTableRecord
100
AcDbBlockTableRecord
  2
*D60
340
0
 70
0
280
1
281
0
  0
BLOCK_RECORD
  5
531
330
9
100
AcDbSymbolTableRecord
100
AcDbBlockTableRecord
  2
*D61
340
0
 70
0
280
1
281
0
  0
BLOCK_RECORD
  5
549
330
9
100
AcDbSymbolTableRecord
100
AcDbBlockTableRecord
  2
*D62
340
0
 70
0
280
1
281
0
  0
BLOCK_RECORD
  5
558
330
9
100
AcDbSymbolTableRecord
100
AcDbBlockTableRecord
  2
*D63
340
0
 70
0
280
1
281
0
  0
ENDTAB
  0
ENDSEC
  0
SECTION
  2
BLOCKS
  0
BLOCK
  5
18
330
17
100
AcDbEntity
  8
0
100
AcDbBlockBegin
  2
*Model_Space
 70
0
 10
0.0
 20
0.0
 30
0.0
  3
*Model_Space
  1

  0
ENDBLK
  5
19
330
17
100
AcDbEntity
  8
0
100
AcDbBlockEnd
  0
BLOCK
  5
1C
330
1B
100
AcDbEntity
  8
0
100
AcDbBlockBegin
  2
*Paper_Space
 70
0
 10
0.0
 20
0.0
 30
0.0
  3
*Paper_Space
  1

  0
ENDBLK
  5
1D
330
1B
100
AcDbEntity
  8
0
100
AcDbBlockEnd
  0
BLOCK
  5
75
330
74
100
AcDbEntity
  8
0
100
AcDbBlockBegin
  2
_ARCHTICK
 70
0
 10
0.0
 20
0.0
 30
0.0
  3
_ARCHTICK
  1

  0
LWPOLYLINE
  5
77
330
74
100
AcDbEntity
  8
0
  6
BYBLOCK
 62
0
100
AcDbPolyline
 90
2
 70
0
 43
0.15
 10
-0.5
 20
-0.5
 10
0.5
 20
0.5
  0
ENDBLK
  5
76
330
74
100
AcDbEntity
  8
0
100
AcDbBlockEnd
  0
BLOCK
  5
79
330
78
100
AcDbEntity
  8
0
100
AcDbBlockBegin
  2
_CLOSEDFILLED
 70
0
 10
0.0
 20
0.0
 30
0.0
  3
_CLOSEDFILLED
  1

  0
SOLID
  5
7B
330
78
100
AcDbEntity
  8
0
  6
BYBLOCK
 62
0
100
AcDbTrace
 10
-1.0
 20
0.16439898372402537
 30
0.0
 11
0.0
 21
0.0
 31
0.0
 12
-1.0
 22
-0.16439898372402537
 32
0.0
 13
-1.0
 23
-0.16439898372402537
 33
0.0
  0
ENDBLK
  5
7A
330
78
100
AcDbEntity
  8
0
100
AcDbBlockEnd
  0
BLOCK
  5
85
330
84
100
AcDbEntity
  8
0
100
AcDbBlockBegin
  2
_CLOSEDBLANK
 70
0
 10
0.0
 20
0.0
 30
0.0
  3
_CLOSEDBLANK
  1

  0
LWPOLYLINE
  5
87
330
84
100
AcDbEntity
  8
0
  6
BYBLOCK
 62
0
100
AcDbPolyline
 90
3
 70
1
 10
-1.0
 20
0.16439898372402537
 10
0.0
 20
0.0
 10
-1.0
 20
-0.16439898372402537
  0
ENDBLK
  5
86
330
84
100
AcDbEntity
  8
0
100
AcDbBlockEnd
  0
BLOCK
  5
B1
330
B0
100
AcDbEntity
  8
0
100
AcDbBlockBegin
  2
*D1
 70
1
 10
0.0
 20
0.0
 30
0.0
  3
*D1
  1

  0
LINE
  5
B3
330
B0
100
AcDbEntity
  8
0
100
AcDbLine
 10
-128.0
 20
0.0
 30
0.0
 11
-186.0
 21
0.0
 31
0.0
  0
LINE
  5
B4
330
B0
100
AcDbEntity
  8
0
100
AcDbLine
 10
-128.0
 20
2400.0
 30
0.0
 11
-186.0
 21
2400.0
 31
0.0
  0
INSERT
  5
B5
330
B0
100
AcDbEntity
  8
0
 62
7
100
AcDbBlockReference
  2
_ARCHTICK
 10
-180.0
 20
0.0
 30
0.0
 41
18.0
 42
18.0
 50
270.0
  0
INSERT
  5
B7
330
B0
100
AcDbEntity
  8
0
 62
7
100
AcDbBlockReference
  2
_ARCHTICK
 10
-180.0
 20
2400.0
 30
0.0
 41
18.0
 42
18.0
 50
90.0
  0
LINE
  5
B9
330
B0
100
AcDbEntity
  8
0
 62
7
100
AcDbLine
 10
-180.0
 20
0.0
 30
0.0
 11
-180.0
 21
2400.0
 31
0.0
  0
MTEXT
  5
BA
330
B0
100
AcDbEntity
  8
0
 62
7
100
AcDbMText
 10
-192.6
 20
1200.0
 30
0.0
 40
25.0
 71
5
  1
2400
  7
HZ
 50
90.0
  0
POINT
  5
BB
330
B0
100
AcDbEntity
  8
Defpoints
100
AcDbPoint
 10
-180.0
 20
0.0
 30
0.0
  0
POINT
  5
BC
330
B0
100
AcDbEntity
  8
Defpoints
100
AcDbPoint
 10
-120.0
 20
0.0
 30
0.0
  0
POINT
  5
BD
330
B0
100
AcDbEntity
  8
Defpoints
100
AcDbPoint
 10
-120.0
 20
2400.0
 30
0.0
  0
ENDBLK
  5
B2
330
B0
100
AcDbEntity
  8
0
100
AcDbBlockEnd
  0
BLOCK
  5
C0
330
BF
100
AcDbEntity
  8
0
100
AcDbBlockBegin
  2
*D2
 70
1
 10
0.0
 20
0.0
 30
0.0
  3
*D2
  1

  0
LINE
  5
C2
330
BF
100
AcDbEntity
  8
0
100
AcDbLine
 10
-68.0
 20
80.0
 30
0.0
 11
-126.0
 21
80.0
 31
0.0
  0
LINE
  5
C3
330
BF
100
AcDbEntity
  8
0
100
AcDbLine
 10
-68.0
 20
2400.0
 30
0.0
 11
-126.0
 21
2400.0
 31
0.0
  0
INSERT
  5
C4
330
BF
100
AcDbEntity
  8
0
 62
7
100
AcDbBlockReference
  2
_ARCHTICK
 10
-120.0
 20
80.0
 30
0.0
 41
18.0
 42
18.0
 50
270.0
  0
INSERT
  5
C6
330
BF
100
AcDbEntity
  8
0
 62
7
100
AcDbBlockReference
  2
_ARCHTICK
 10
-120.0
 20
2400.0
 30
0.0
 41
18.0
 42
18.0
 50
90.0
  0
LINE
  5
C8
330
BF
100
AcDbEntity
  8
0
 62
7
100
AcDbLine
 10
-120.0
 20
80.0
 30
0.0
 11
-120.0
 21
2400.0
 31
0.0
  0
MTEXT
  5
C9
330
BF
100
AcDbEntity
  8
0
 62
7
100
AcDbMText
 10
-132.6
 20
1240.0
 30
0.0
 40
25.0
 71
5
  1
2320
  7
HZ
 50
90.0
  0
POINT
  5
CA
330
BF
100
AcDbEntity
  8
Defpoints
100
AcDbPoint
 10
-120.0
 20
80.0
 30
0.0
  0
POINT
  5
CB
330
BF
100
AcDbEntity
  8
Defpoints
100
AcDbPoint
 10
-60.0
 20
80.0
 30
0.0
  0
POINT
  5
CC
330
BF
100
AcDbEntity
  8
Defpoints
100
AcDbPoint
 10
-60.0
 20
2400.0
 30
0.0
  0
ENDBLK
  5
C1
330
BF
100
AcDbEntity
  8
0
100
AcDbBlockEnd
  0
BLOCK
  5
CF
330
CE
100
AcDbEntity
  8
0
100
AcDbBlockBegin
  2
*D3
 70
1
 10
0.0
 20
0.0
 30
0.0
  3
*D3
  1

  0
LINE
  5
D1
330
CE
100
AcDbEntity
  8
0
100
AcDbLine
 10
-198.0
 20
0.0
 30
0.0
 11
-256.0
 21
0.0
 31
0.0
  0
LINE
  5
D2
330
CE
100
AcDbEntity
  8
0
100
AcDbLine
 10
-198.0
 20
80.0
 30
0.0
 11
-256.0
 21
80.0
 31
0.0
  0
INSERT
  5
D3
330
CE
100
AcDbEntity
  8
0
 62
7
100
AcDbBlockReference
  2
_ARCHTICK
 10
-250.0
 20
0.0
 30
0.0
 41
18.0
 42
18.0
 50
270.0
  0
INSERT
  5
D5
330
CE
100
AcDbEntity
  8
0
 62
7
100
AcDbBlockReference
  2
_ARCHTICK
 10
-250.0
 20
80.0
 30
0.0
 41
18.0
 42
18.0
 50
90.0
  0
LINE
  5
D7
330
CE
100
AcDbEntity
  8
0
 62
7
100
AcDbLine
 10
-250.0
 20
0.0
 30
0.0
 11
-250.0
 21
80.0
 31
0.0
  0
MTEXT
  5
D8
330
CE
100
AcDbEntity
  8
0
 62
7
100
AcDbMText
 10
-262.6
 20
40.0
 30
0.0
 40
25.0
 71
5
  1
80
  7
HZ
 50
90.0
  0
POINT
  5
D9
330
CE
100
AcDbEntity
  8
Defpoints
100
AcDbPoint
 10
-250.0
 20
0.0
 30
0.0
  0
POINT
  5
DA
330
CE
100
AcDbEntity
  8
Defpoints
100
AcDbPoint
 10
-190.0
 20
0.0
 30
0.0
  0
POINT
  5
DB
330
CE
100
AcDbEntity
  8
Defpoints
100
AcDbPoint
 10
-190.0
 20
80.0
 30
0.0
  0
ENDBLK
  5
D0
330
CE
100
AcDbEntity
  8
0
100
AcDbBlockEnd
  0
BLOCK
  5
DE
330
DD
100
AcDbEntity
  8
0
100
AcDbBlockBegin
  2
*D4
 70
1
 10
0.0
 20
0.0
 30
0.0
  3
*D4
  1

  0
LINE
  5
E0
330
DD
100
AcDbEntity
  8
0
100
AcDbLine
 10
0.0
 20
-128.0
 30
0.0
 11
0.0
 21
-186.0
 31
0.0
  0
LINE
  5
E1
330
DD
100
AcDbEntity
  8
0
100
AcDbLine
 10
2400.0
 20
-128.0
 30
0.0
 11
2400.0
 21
-186.0
 31
0.0
  0
INSERT
  5
E2
330
DD
100
AcDbEntity
  8
0
 62
7
100
AcDbBlockReference
  2
_ARCHTICK
 10
0.0
 20
-180.0
 30
0.0
 41
18.0
 42
18.0
 50
180.0
  0
INSERT
  5
E4
330
DD
100
AcDbEntity
  8
0
 62
7
100
AcDbBlockReference
  2
_ARCHTICK
 10
2400.0
 20
-180.0
 30
0.0
 41
18.0
 42
18.0
  0
LINE
  5
E6
330
DD
100
AcDbEntity
  8
0
 62
7
100
AcDbLine
 10
0.0
 20
-180.0
 30
0.0
 11
2400.0
 21
-180.0
 31
0.0
  0
MTEXT
  5
E7
330
DD
100
AcDbEntity
  8
0
 62
7
100
AcDbMText
 10
1200.0
 20
-167.4
 30
0.0
 40
25.0
 71
5
  1
2400
  7
HZ
  0
POINT
  5
E8
330
DD
100
AcDbEntity
  8
Defpoints
100
AcDbPoint
 10
0.0
 20
-180.0
 30
0.0
  0
POINT
  5
E9
330
DD
100
AcDbEntity
  8
Defpoints
100
AcDbPoint
 10
0.0
 20
-120.0
 30
0.0
  0
POINT
  5
EA
330
DD
100
AcDbEntity
  8
Defpoints
100
AcDbPoint
 10
2400.0
 20
-120.0
 30
0.0
  0
ENDBLK
  5
DF
330
DD
100
AcDbEntity
  8
0
100
AcDbBlockEnd
  0
BLOCK
  5
ED
330
EC
100
AcDbEntity
  8
0
100
AcDbBlockBegin
  2
*D5
 70
1
 10
0.0
 20
0.0
 30
0.0
  3
*D5
  1

  0
LINE
  5
EF
330
EC
100
AcDbEntity
  8
0
100
AcDbLine
 10
18.0
 20
-68.0
 30
0.0
 11
18.0
 21
-126.0
 31
0.0
  0
LINE
  5
F0
330
EC
100
AcDbEntity
  8
0
100
AcDbLine
 10
600.0
 20
-68.0
 30
0.0
 11
600.0
 21
-126.0
 31
0.0
  0
INSERT
  5
F1
330
EC
100
AcDbEntity
  8
0
 62
7
100
AcDbBlockReference
  2
_ARCHTICK
 10
18.0
 20
-120.0
 30
0.0
 41
18.0
 42
18.0
 50
180.0
  0
INSERT
  5
F3
330
EC
100
AcDbEntity
  8
0
 62
7
100
AcDbBlockReference
  2
_ARCHTICK
 10
600.0
 20
-120.0
 30
0.0
 41
18.0
 42
18.0
  0
LINE
  5
F5
330
EC
100
AcDbEntity
  8
0
 62
7
100
AcDbLine
 10
18.0
 20
-120.0
 30
0.0
 11
600.0
 21
-120.0
 31
0.0
  0
MTEXT
  5
F6
330
EC
100
AcDbEntity
  8
0
 62
7
100
AcDbMText
 10
309.0
 20
-107.4
 30
0.0
 40
25.0
 71
5
  1
582
  7
HZ
  0
POINT
  5
F7
330
EC
100
AcDbEntity
  8
Defpoints
100
AcDbPoint
 10
18.0
 20
-120.0
 30
0.0
  0
POINT
  5
F8
330
EC
100
AcDbEntity
  8
Defpoints
100
AcDbPoint
 10
18.0
 20
-60.0
 30
0.0
  0
POINT
  5
F9
330
EC
100
AcDbEntity
  8
Defpoints
100
AcDbPoint
 10
600.0
 20
-60.0
 30
0.0
  0
ENDBLK
  5
EE
330
EC
100
AcDbEntity
  8
0
100
AcDbBlockEnd
  0
BLOCK
  5
FC
330
FB
100
AcDbEntity
  8
0
100
AcDbBlockBegin
  2
*D6
 70
1
 10
0.0
 20
0.0
 30
0.0
  3
*D6
  1

  0
LINE
  5
FE
330
FB
100
AcDbEntity
  8
0
100
AcDbLine
 10
618.0
 20
-68.0
 30
0.0
 11
618.0
 21
-126.0
 31
0.0
  0
LINE
  5
FF
330
FB
100
AcDbEntity
  8
0
100
AcDbLine
 10
1782.0
 20
-68.0
 30
0.0
 11
1782.0
 21
-126.0
 31
0.0
  0
INSERT
  5
100
330
FB
100
AcDbEntity
  8
0
 62
7
100
AcDbBlockReference
  2
_ARCHTICK
 10
618.0
 20
-120.0
 30
0.0
 41
18.0
 42
18.0
 50
180.0
  0
INSERT
  5
102
330
FB
100
AcDbEntity
  8
0
 62
7
100
AcDbBlockReference
  2
_ARCHTICK
 10
1782.0
 20
-120.0
 30
0.0
 41
18.0
 42
18.0
  0
LINE
  5
104
330
FB
100
AcDbEntity
  8
0
 62
7
100
AcDbLine
 10
618.0
 20
-120.0
 30
0.0
 11
1782.0
 21
-120.0
 31
0.0
  0
MTEXT
  5
105
330
FB
100
AcDbEntity
  8
0
 62
7
100
AcDbMText
 10
1200.0
 20
-107.4
 30
0.0
 40
25.0
 71
5
  1
1164
  7
HZ
  0
POINT
  5
106
330
FB
100
AcDbEntity
  8
Defpoints
100
AcDbPoint
 10
618.0
 20
-120.0
 30
0.0
  0
POINT
  5
107
330
FB
100
AcDbEntity
  8
Defpoints
100
AcDbPoint
 10
618.0
 20
-60.0
 30
0.0
  0
POINT
  5
108
330
FB
100
AcDbEntity
  8
Defpoints
100
AcDbPoint
 10
1782.0
 20
-60.0
 30
0.0
  0
ENDBLK
  5
FD
330
FB
100
AcDbEntity
  8
0
100
AcDbBlockEnd
  0
BLOCK
  5
10B
330
10A
100
AcDbEntity
  8
0
100
AcDbBlockBegin
  2
*D7
 70
1
 10
0.0
 20
0.0
 30
0.0
  3
*D7
  1

  0
LINE
  5
10D
330
10A
100
AcDbEntity
  8
0
100
AcDbLine
 10
1800.0
 20
-68.0
 30
0.0
 11
1800.0
 21
-126.0
 31
0.0
  0
LINE
  5
10E
330
10A
100
AcDbEntity
  8
0
100
AcDbLine
 10
2382.0
 20
-68.0
 30
0.0
 11
2382.0
 21
-126.0
 31
0.0
  0
INSERT
  5
10F
330
10A
100
AcDbEntity
  8
0
 62
7
100
AcDbBlockReference
  2
_ARCHTICK
 10
1800.0
 20
-120.0
 30
0.0
 41
18.0
 42
18.0
 50
180.0
  0
INSERT
  5
111
330
10A
100
AcDbEntity
  8
0
 62
7
100
AcDbBlockReference
  2
_ARCHTICK
 10
2382.0
 20
-120.0
 30
0.0
 41
18.0
 42
18.0
  0
LINE
  5
113
330
10A
100
AcDbEntity
  8
0
 62
7
100
AcDbLine
 10
1800.0
 20
-120.0
 30
0.0
 11
2382.0
 21
-120.0
 31
0.0
  0
MTEXT
  5
114
330
10A
100
AcDbEntity
  8
0
 62
7
100
AcDbMText
 10
2091.0
 20
-107.4
 30
0.0
 40
25.0
 71
5
  1
582
  7
HZ
  0
POINT
  5
115
330
10A
100
AcDbEntity
  8
Defpoints
100
AcDbPoint
 10
1800.0
 20
-120.0
 30
0.0
  0
POINT
  5
116
330
10A
100
AcDbEntity
  8
Defpoints
100
AcDbPoint
 10
1800.0
 20
-60.0
 30
0.0
  0
POINT
  5
117
330
10A
100
AcDbEntity
  8
Defpoints
100
AcDbPoint
 10
2382.0
 20
-60.0
 30
0.0
  0
ENDBLK
  5
10C
330
10A
100
AcDbEntity
  8
0
100
AcDbBlockEnd
  0
BLOCK
  5
128
330
127
100
AcDbEntity
  8
0
100
AcDbBlockBegin
  2
*D8
 70
1
 10
0.0
 20
0.0
 30
0.0
  3
*D8
  1

  0
LINE
  5
12A
330
127
100
AcDbEntity
  8
0
100
AcDbLine
 10
4592.0
 20
1250.0
 30
0.0
 11
4474.0
 21
1250.0
 31
0.0
  0
LINE
  5
12B
330
127
100
AcDbEntity
  8
0
100
AcDbLine
 10
4592.0
 20
2400.0
 30
0.0
 11
4474.0
 21
2400.0
 31
0.0
  0
INSERT
  5
12C
330
127
100
AcDbEntity
  8
0
 62
7
100
AcDbBlockReference
  2
_ARCHTICK
 10
4480.0
 20
1250.0
 30
0.0
 41
18.0
 42
18.0
 50
270.0
  0
INSERT
  5
12E
330
127
100
AcDbEntity
  8
0
 62
7
100
AcDbBlockReference
  2
_ARCHTICK
 10
4480.0
 20
2400.0
 30
0.0
 41
18.0
 42
18.0
 50
90.0
  0
LINE
  5
130
330
127
100
AcDbEntity
  8
0
 62
7
100
AcDbLine
 10
4480.0
 20
1250.0
 30
0.0
 11
4480.0
 21
2400.0
 31
0.0
  0
MTEXT
  5
131
330
127
100
AcDbEntity
  8
0
 62
7
100
AcDbMText
 10
4467.4
 20
1825.0
 30
0.0
 40
25.0
 71
5
  1
1150
  7
HZ
 50
90.0
  0
POINT
  5
132
330
127
100
AcDbEntity
  8
Defpoints
100
AcDbPoint
 10
4480.0
 20
1250.0
 30
0.0
  0
POINT
  5
133
330
127
100
AcDbEntity
  8
Defpoints
100
AcDbPoint
 10
4600.0
 20
1250.0
 30
0.0
  0
POINT
  5
134
330
127
100
AcDbEntity
  8
Defpoints
100
AcDbPoint
 10
4600.0
 20
2400.0
 30
0.0
  0
ENDBLK
  5
129
330
127
100
AcDbEntity
  8
0
100
AcDbBlockEnd
  0
BLOCK
  5
137
330
136
100
AcDbEntity
  8
0
100
AcDbBlockBegin
  2
*D9
 70
1
 10
0.0
 20
0.0
 30
0.0
  3
*D9
  1

  0
LINE
  5
139
330
136
100
AcDbEntity
  8
0
100
AcDbLine
 10
4600.0
 20
1242.0
 30
0.0
 11
4600.0
 21
1124.0
 31
0.0
  0
LINE
  5
13A
330
136
100
AcDbEntity
  8
0
100
AcDbLine
 10
6979.0
 20
1242.0
 30
0.0
 11
6979.0
 21
1124.0
 31
0.0
  0
INSERT
  5
13B
330
136
100
AcDbEntity
  8
0
 62
7
100
AcDbBlockReference
  2
_ARCHTICK
 10
4600.0
 20
1130.0
 30
0.0
 41
18.0
 42
18.0
 50
180.0
  0
INSERT
  5
13D
330
136
100
AcDbEntity
  8
0
 62
7
100
AcDbBlockReference
  2
_ARCHTICK
 10
6979.0
 20
1130.0
 30
0.0
 41
18.0
 42
18.0
  0
LINE
  5
13F
330
136
100
AcDbEntity
  8
0
 62
7
100
AcDbLine
 10
4600.0
 20
1130.0
 30
0.0
 11
6979.0
 21
1130.0
 31
0.0
  0
MTEXT
  5
140
330
136
100
AcDbEntity
  8
0
 62
7
100
AcDbMText
 10
5789.5
 20
1142.6
 30
0.0
 40
25.0
 71
5
  1
2379
  7
HZ
  0
POINT
  5
141
330
136
100
AcDbEntity
  8
Defpoints
100
AcDbPoint
 10
4600.0
 20
1130.0
 30
0.0
  0
POINT
  5
142
330
136
100
AcDbEntity
  8
Defpoints
100
AcDbPoint
 10
4600.0
 20
1250.0
 30
0.0
  0
POINT
  5
143
330
136
100
AcDbEntity
  8
Defpoints
100
AcDbPoint
 10
6979.0
 20
1250.0
 30
0.0
  0
ENDBLK
  5
138
330
136
100
AcDbEntity
  8
0
100
AcDbBlockEnd
  0
BLOCK
  5
14E
330
14D
100
AcDbEntity
  8
0
100
AcDbBlockBegin
  2
*D10
 70
1
 10
0.0
 20
0.0
 30
0.0
  3
*D10
  1

  0
LINE
  5
150
330
14D
100
AcDbEntity
  8
0
100
AcDbLine
 10
7671.0
 20
1251.0
 30
0.0
 11
7553.0
 21
1251.0
 31
0.0
  0
LINE
  5
151
330
14D
100
AcDbEntity
  8
0
100
AcDbLine
 10
7671.0
 20
2400.0
 30
0.0
 11
7553.0
 21
2400.0
 31
0.0
  0
INSERT
  5
152
330
14D
100
AcDbEntity
  8
0
 62
7
100
AcDbBlockReference
  2
_ARCHTICK
 10
7559.0
 20
1251.0
 30
0.0
 41
18.0
 42
18.0
 50
270.0
  0
INSERT
  5
154
330
14D
100
AcDbEntity
  8
0
 62
7
100
AcDbBlockReference
  2
_ARCHTICK
 10
7559.0
 20
2400.0
 30
0.0
 41
18.0
 42
18.0
 50
90.0
  0
LINE
  5
156
330
14D
100
AcDbEntity
  8
0
 62
7
100
AcDbLine
 10
7559.0
 20
1251.0
 30
0.0
 11
7559.0
 21
2400.0
 31
0.0
  0
MTEXT
  5
157
330
14D
100
AcDbEntity
  8
0
 62
7
100
AcDbMText
 10
7546.4
 20
1825.5
 30
0.0
 40
25.0
 71
5
  1
1149
  7
HZ
 50
90.0
  0
POINT
  5
158
330
14D
100
AcDbEntity
  8
Defpoints
100
AcDbPoint
 10
7559.0
 20
1251.0
 30
0.0
  0
POINT
  5
159
330
14D
100
AcDbEntity
  8
Defpoints
100
AcDbPoint
 10
7679.0
 20
1251.0
 30
0.0
  0
POINT
  5
15A
330
14D
100
AcDbEntity
  8
Defpoints
100
AcDbPoint
 10
7679.0
 20
2400.0
 30
0.0
  0
ENDBLK
  5
14F
330
14D
100
AcDbEntity
  8
0
100
AcDbBlockEnd
  0
BLOCK
  5
15D
330
15C
100
AcDbEntity
  8
0
100
AcDbBlockBegin
  2
*D11
 70
1
 10
0.0
 20
0.0
 30
0.0
  3
*D11
  1

  0
LINE
  5
15F
330
15C
100
AcDbEntity
  8
0
100
AcDbLine
 10
7679.0
 20
1243.0
 30
0.0
 11
7679.0
 21
1125.0
 31
0.0
  0
LINE
  5
160
330
15C
100
AcDbEntity
  8
0
100
AcDbLine
 10
10058.0
 20
1243.0
 30
0.0
 11
10058.0
 21
1125.0
 31
0.0
  0
INSERT
  5
161
330
15C
100
AcDbEntity
  8
0
 62
7
100
AcDbBlockReference
  2
_ARCHTICK
 10
7679.0
 20
1131.0
 30
0.0
 41
18.0
 42
18.0
 50
180.0
  0
INSERT
  5
163
330
15C
100
AcDbEntity
  8
0
 62
7
100
AcDbBlockReference
  2
_ARCHTICK
 10
10058.0
 20
1131.0
 30
0.0
 41
18.0
 42
18.0
  0
LINE
  5
165
330
15C
100
AcDbEntity
  8
0
 62
7
100
AcDbLine
 10
7679.0
 20
1131.0
 30
0.0
 11
10058.0
 21
1131.0
 31
0.0
  0
MTEXT
  5
166
330
15C
100
AcDbEntity
  8
0
 62
7
100
AcDbMText
 10
8868.5
 20
1143.6
 30
0.0
 40
25.0
 71
5
  1
2379
  7
HZ
  0
POINT
  5
167
330
15C
100
AcDbEntity
  8
Defpoints
100
AcDbPoint
 10
7679.0
 20
1131.0
 30
0.0
  0
POINT
  5
168
330
15C
100
AcDbEntity
  8
Defpoints
100
AcDbPoint
 10
7679.0
 20
1251.0
 30
0.0
  0
POINT
  5
169
330
15C
100
AcDbEntity
  8
Defpoints
100
AcDbPoint
 10
10058.0
 20
1251.0
 30
0.0
  0
ENDBLK
  5
15E
330
15C
100
AcDbEntity
  8
0
100
AcDbBlockEnd
  0
BLOCK
  5
175
330
174
100
AcDbEntity
  8
0
100
AcDbBlockBegin
  2
*D12
 70
1
 10
0.0
 20
0.0
 30
0.0
  3
*D12
  1

  0
LINE
  5
177
330
174
100
AcDbEntity
  8
0
100
AcDbLine
 10
4592.0
 20
-1984.0
 30
0.0
 11
4474.0
 21
-1984.0
 31
0.0
  0
LINE
  5
178
330
174
100
AcDbEntity
  8
0
100
AcDbLine
 10
4592.0
 20
380.0
 30
0.0
 11
4474.0
 21
380.0
 31
0.0
  0
INSERT
  5
179
330
174
100
AcDbEntity
  8
0
 62
7
100
AcDbBlockReference
  2
_ARCHTICK
 10
4480.0
 20
-1984.0
 30
0.0
 41
18.0
 42
18.0
 50
270.0
  0
INSERT
  5
17B
330
174
100
AcDbEntity
  8
0
 62
7
100
AcDbBlockReference
  2
_ARCHTICK
 10
4480.0
 20
380.0
 30
0.0
 41
18.0
 42
18.0
 50
90.0
  0
LINE
  5
17D
330
174
100
AcDbEntity
  8
0
 62
7
100
AcDbLine
 10
4480.0
 20
-1984.0
 30
0.0
 11
4480.0
 21
380.0
 31
0.0
  0
MTEXT
  5
17E
330
174
100
AcDbEntity
  8
0
 62
7
100
AcDbMText
 10
4467.4
 20
-802.0
 30
0.0
 40
25.0
 71
5
  1
2364
  7
HZ
 50
90.0
  0
POINT
  5
17F
330
174
100
AcDbEntity
  8
Defpoints
100
AcDbPoint
 10
4480.0
 20
-1984.0
 30
0.0
  0
POINT
  5
180
330
174
100
AcDbEntity
  8
Defpoints
100
AcDbPoint
 10
4600.0
 20
-1984.0
 30
0.0
  0
POINT
  5
181
330
174
100
AcDbEntity
  8
Defpoints
100
AcDbPoint
 10
4600.0
 20
380.0
 30
0.0
  0
ENDBLK
  5
176
330
174
100
AcDbEntity
  8
0
100
AcDbBlockEnd
  0
BLOCK
  5
184
330
183
100
AcDbEntity
  8
0
100
AcDbBlockBegin
  2
*D13
 70
1
 10
0.0
 20
0.0
 30
0.0
  3
*D13
  1

  0
LINE
  5
186
330
183
100
AcDbEntity
  8
0
100
AcDbLine
 10
4600.0
 20
-1992.0
 30
0.0
 11
4600.0
 21
-2110.0
 31
0.0
  0
LINE
  5
187
330
183
100
AcDbEntity
  8
0
100
AcDbLine
 10
5200.0
 20
-1992.0
 30
0.0
 11
5200.0
 21
-2110.0
 31
0.0
  0
INSERT
  5
188
330
183
100
AcDbEntity
  8
0
 62
7
100
AcDbBlockReference
  2
_ARCHTICK
 10
4600.0
 20
-2104.0
 30
0.0
 41
18.0
 42
18.0
 50
180.0
  0
INSERT
  5
18A
330
183
100
AcDbEntity
  8
0
 62
7
100
AcDbBlockReference
  2
_ARCHTICK
 10
5200.0
 20
-2104.0
 30
0.0
 41
18.0
 42
18.0
  0
LINE
  5
18C
330
183
100
AcDbEntity
  8
0
 62
7
100
AcDbLine
 10
4600.0
 20
-2104.0
 30
0.0
 11
5200.0
 21
-2104.0
 31
0.0
  0
MTEXT
  5
18D
330
183
100
AcDbEntity
  8
0
 62
7
100
AcDbMText
 10
4900.0
 20
-2091.4
 30
0.0
 40
25.0
 71
5
  1
600
  7
HZ
  0
POINT
  5
18E
330
183
100
AcDbEntity
  8
Defpoints
100
AcDbPoint
 10
4600.0
 20
-2104.0
 30
0.0
  0
POINT
  5
18F
330
183
100
AcDbEntity
  8
Defpoints
100
AcDbPoint
 10
4600.0
 20
-1984.0
 30
0.0
  0
POINT
  5
190
330
183
100
AcDbEntity
  8
Defpoints
100
AcDbPoint
 10
5200.0
 20
-1984.0
 30
0.0
  0
ENDBLK
  5
185
330
183
100
AcDbEntity
  8
0
100
AcDbBlockEnd
  0
BLOCK
  5
19C
330
19B
100
AcDbEntity
  8
0
100
AcDbBlockBegin
  2
*D14
 70
1
 10
0.0
 20
0.0
 30
0.0
  3
*D14
  1

  0
LINE
  5
19E
330
19B
100
AcDbEntity
  8
0
100
AcDbLine
 10
5892.0
 20
-1984.0
 30
0.0
 11
5774.0
 21
-1984.0
 31
0.0
  0
LINE
  5
19F
330
19B
100
AcDbEntity
  8
0
100
AcDbLine
 10
5892.0
 20
380.0
 30
0.0
 11
5774.0
 21
380.0
 31
0.0
  0
INSERT
  5
1A0
330
19B
100
AcDbEntity
  8
0
 62
7
100
AcDbBlockReference
  2
_ARCHTICK
 10
5780.0
 20
-1984.0
 30
0.0
 41
18.0
 42
18.0
 50
270.0
  0
INSERT
  5
1A2
330
19B
100
AcDbEntity
  8
0
 62
7
100
AcDbBlockReference
  2
_ARCHTICK
 10
5780.0
 20
380.0
 30
0.0
 41
18.0
 42
18.0
 50
90.0
  0
LINE
  5
1A4
330
19B
100
AcDbEntity
  8
0
 62
7
100
AcDbLine
 10
5780.0
 20
-1984.0
 30
0.0
 11
5780.0
 21
380.0
 31
0.0
  0
MTEXT
  5
1A5
330
19B
100
AcDbEntity
  8
0
 62
7
100
AcDbMText
 10
5767.4
 20
-802.0
 30
0.0
 40
25.0
 71
5
  1
2364
  7
HZ
 50
90.0
  0
POINT
  5
1A6
330
19B
100
AcDbEntity
  8
Defpoints
100
AcDbPoint
 10
5780.0
 20
-1984.0
 30
0.0
  0
POINT
  5
1A7
330
19B
100
AcDbEntity
  8
Defpoints
100
AcDbPoint
 10
5900.0
 20
-1984.0
 30
0.0
  0
POINT
  5
1A8
330
19B
100
AcDbEntity
  8
Defpoints
100
AcDbPoint
 10
5900.0
 20
380.0
 30
0.0
  0
ENDBLK
  5
19D
330
19B
100
AcDbEntity
  8
0
100
AcDbBlockEnd
  0
BLOCK
  5
1AB
330
1AA
100
AcDbEntity
  8
0
100
AcDbBlockBegin
  2
*D15
 70
1
 10
0.0
 20
0.0
 30
0.0
  3
*D15
  1

  0
LINE
  5
1AD
330
1AA
100
AcDbEntity
  8
0
100
AcDbLine
 10
5900.0
 20
-1992.0
 30
0.0
 11
5900.0
 21
-2110.0
 31
0.0
  0
LINE
  5
1AE
330
1AA
100
AcDbEntity
  8
0
100
AcDbLine
 10
6500.0
 20
-1992.0
 30
0.0
 11
6500.0
 21
-2110.0
 31
0.0
  0
INSERT
  5
1AF
330
1AA
100
AcDbEntity
  8
0
 62
7
100
AcDbBlockReference
  2
_ARCHTICK
 10
5900.0
 20
-2104.0
 30
0.0
 41
18.0
 42
18.0
 50
180.0
  0
INSERT
  5
1B1
330
1AA
100
AcDbEntity
  8
0
 62
7
100
AcDbBlockReference
  2
_ARCHTICK
 10
6500.0
 20
-2104.0
 30
0.0
 41
18.0
 42
18.0
  0
LINE
  5
1B3
330
1AA
100
AcDbEntity
  8
0
 62
7
100
AcDbLine
 10
5900.0
 20
-2104.0
 30
0.0
 11
6500.0
 21
-2104.0
 31
0.0
  0
MTEXT
  5
1B4
330
1AA
100
AcDbEntity
  8
0
 62
7
100
AcDbMText
 10
6200.0
 20
-2091.4
 30
0.0
 40
25.0
 71
5
  1
600
  7
HZ
  0
POINT
  5
1B5
330
1AA
100
AcDbEntity
  8
Defpoints
100
AcDbPoint
 10
5900.0
 20
-2104.0
 30
0.0
  0
POINT
  5
1B6
330
1AA
100
AcDbEntity
  8
Defpoints
100
AcDbPoint
 10
5900.0
 20
-1984.0
 30
0.0
  0
POINT
  5
1B7
330
1AA
100
AcDbEntity
  8
Defpoints
100
AcDbPoint
 10
6500.0
 20
-1984.0
 30
0.0
  0
ENDBLK
  5
1AC
330
1AA
100
AcDbEntity
  8
0
100
AcDbBlockEnd
  0
BLOCK
  5
1C3
330
1C2
100
AcDbEntity
  8
0
100
AcDbBlockBegin
  2
*D16
 70
1
 10
0.0
 20
0.0
 30
0.0
  3
*D16
  1

  0
LINE
  5
1C5
330
1C2
100
AcDbEntity
  8
0
100
AcDbLine
 10
7192.0
 20
-1940.0
 30
0.0
 11
7074.0
 21
-1940.0
 31
0.0
  0
LINE
  5
1C6
330
1C2
100
AcDbEntity
  8
0
100
AcDbLine
 10
7192.0
 20
380.0
 30
0.0
 11
7074.0
 21
380.0
 31
0.0
  0
INSERT
  5
1C7
330
1C2
100
AcDbEntity
  8
0
 62
7
100
AcDbBlockReference
  2
_ARCHTICK
 10
7080.0
 20
-1940.0
 30
0.0
 41
18.0
 42
18.0
 50
270.0
  0
INSERT
  5
1C9
330
1C2
100
AcDbEntity
  8
0
 62
7
100
AcDbBlockReference
  2
_ARCHTICK
 10
7080.0
 20
380.0
 30
0.0
 41
18.0
 42
18.0
 50
90.0
  0
LINE
  5
1CB
330
1C2
100
AcDbEntity
  8
0
 62
7
100
AcDbLine
 10
7080.0
 20
-1940.0
 30
0.0
 11
7080.0
 21
380.0
 31
0.0
  0
MTEXT
  5
1CC
330
1C2
100
AcDbEntity
  8
0
 62
7
100
AcDbMText
 10
7067.4
 20
-780.0
 30
0.0
 40
25.0
 71
5
  1
2320
  7
HZ
 50
90.0
  0
POINT
  5
1CD
330
1C2
100
AcDbEntity
  8
Defpoints
100
AcDbPoint
 10
7080.0
 20
-1940.0
 30
0.0
  0
POINT
  5
1CE
330
1C2
100
AcDbEntity
  8
Defpoints
100
AcDbPoint
 10
7200.0
 20
-1940.0
 30
0.0
  0
POINT
  5
1CF
330
1C2
100
AcDbEntity
  8
Defpoints
100
AcDbPoint
 10
7200.0
 20
380.0
 30
0.0
  0
ENDBLK
  5
1C4
330
1C2
100
AcDbEntity
  8
0
100
AcDbBlockEnd
  0
BLOCK
  5
1D2
330
1D1
100
AcDbEntity
  8
0
100
AcDbBlockBegin
  2
*D17
 70
1
 10
0.0
 20
0.0
 30
0.0
  3
*D17
  1

  0
LINE
  5
1D4
330
1D1
100
AcDbEntity
  8
0
100
AcDbLine
 10
7200.0
 20
-1948.0
 30
0.0
 11
7200.0
 21
-2066.0
 31
0.0
  0
LINE
  5
1D5
330
1D1
100
AcDbEntity
  8
0
100
AcDbLine
 10
7800.0
 20
-1948.0
 30
0.0
 11
7800.0
 21
-2066.0
 31
0.0
  0
INSERT
  5
1D6
330
1D1
100
AcDbEntity
  8
0
 62
7
100
AcDbBlockReference
  2
_ARCHTICK
 10
7200.0
 20
-2060.0
 30
0.0
 41
18.0
 42
18.0
 50
180.0
  0
INSERT
  5
1D8
330
1D1
100
AcDbEntity
  8
0
 62
7
100
AcDbBlockReference
  2
_ARCHTICK
 10
7800.0
 20
-2060.0
 30
0.0
 41
18.0
 42
18.0
  0
LINE
  5
1DA
330
1D1
100
AcDbEntity
  8
0
 62
7
100
AcDbLine
 10
7200.0
 20
-2060.0
 30
0.0
 11
7800.0
 21
-2060.0
 31
0.0
  0
MTEXT
  5
1DB
330
1D1
100
AcDbEntity
  8
0
 62
7
100
AcDbMText
 10
7500.0
 20
-2047.4
 30
0.0
 40
25.0
 71
5
  1
600
  7
HZ
  0
POINT
  5
1DC
330
1D1
100
AcDbEntity
  8
Defpoints
100
AcDbPoint
 10
7200.0
 20
-2060.0
 30
0.0
  0
POINT
  5
1DD
330
1D1
100
AcDbEntity
  8
Defpoints
100
AcDbPoint
 10
7200.0
 20
-1940.0
 30
0.0
  0
POINT
  5
1DE
330
1D1
100
AcDbEntity
  8
Defpoints
100
AcDbPoint
 10
7800.0
 20
-1940.0
 30
0.0
  0
ENDBLK
  5
1D3
330
1D1
100
AcDbEntity
  8
0
100
AcDbBlockEnd
  0
BLOCK
  5
1E9
330
1E8
100
AcDbEntity
  8
0
100
AcDbBlockBegin
  2
*D18
 70
1
 10
0.0
 20
0.0
 30
0.0
  3
*D18
  1

  0
LINE
  5
1EB
330
1E8
100
AcDbEntity
  8
0
100
AcDbLine
 10
8492.0
 20
-1940.0
 30
0.0
 11
8374.0
 21
-1940.0
 31
0.0
  0
LINE
  5
1EC
330
1E8
100
AcDbEntity
  8
0
100
AcDbLine
 10
8492.0
 20
380.0
 30
0.0
 11
8374.0
 21
380.0
 31
0.0
  0
INSERT
  5
1ED
330
1E8
100
AcDbEntity
  8
0
 62
7
100
AcDbBlockReference
  2
_ARCHTICK
 10
8380.0
 20
-1940.0
 30
0.0
 41
18.0
 42
18.0
 50
270.0
  0
INSERT
  5
1EF
330
1E8
100
AcDbEntity
  8
0
 62
7
100
AcDbBlockReference
  2
_ARCHTICK
 10
8380.0
 20
380.0
 30
0.0
 41
18.0
 42
18.0
 50
90.0
  0
LINE
  5
1F1
330
1E8
100
AcDbEntity
  8
0
 62
7
100
AcDbLine
 10
8380.0
 20
-1940.0
 30
0.0
 11
8380.0
 21
380.0
 31
0.0
  0
MTEXT
  5
1F2
330
1E8
100
AcDbEntity
  8
0
 62
7
100
AcDbMText
 10
8367.4
 20
-780.0
 30
0.0
 40
25.0
 71
5
  1
2320
  7
HZ
 50
90.0
  0
POINT
  5
1F3
330
1E8
100
AcDbEntity
  8
Defpoints
100
AcDbPoint
 10
8380.0
 20
-1940.0
 30
0.0
  0
POINT
  5
1F4
330
1E8
100
AcDbEntity
  8
Defpoints
100
AcDbPoint
 10
8500.0
 20
-1940.0
 30
0.0
  0
POINT
  5
1F5
330
1E8
100
AcDbEntity
  8
Defpoints
100
AcDbPoint
 10
8500.0
 20
380.0
 30
0.0
  0
ENDBLK
  5
1EA
330
1E8
100
AcDbEntity
  8
0
100
AcDbBlockEnd
  0
BLOCK
  5
1F8
330
1F7
100
AcDbEntity
  8
0
100
AcDbBlockBegin
  2
*D19
 70
1
 10
0.0
 20
0.0
 30
0.0
  3
*D19
  1

  0
LINE
  5
1FA
330
1F7
100
AcDbEntity
  8
0
100
AcDbLine
 10
8500.0
 20
-1948.0
 30
0.0
 11
8500.0
 21
-2066.0
 31
0.0
  0
LINE
  5
1FB
330
1F7
100
AcDbEntity
  8
0
100
AcDbLine
 10
9100.0
 20
-1948.0
 30
0.0
 11
9100.0
 21
-2066.0
 31
0.0
  0
INSERT
  5
1FC
330
1F7
100
AcDbEntity
  8
0
 62
7
100
AcDbBlockReference
  2
_ARCHTICK
 10
8500.0
 20
-2060.0
 30
0.0
 41
18.0
 42
18.0
 50
180.0
  0
INSERT
  5
1FE
330
1F7
100
AcDbEntity
  8
0
 62
7
100
AcDbBlockReference
  2
_ARCHTICK
 10
9100.0
 20
-2060.0
 30
0.0
 41
18.0
 42
18.0
  0
LINE
  5
200
330
1F7
100
AcDbEntity
  8
0
 62
7
100
AcDbLine
 10
8500.0
 20
-2060.0
 30
0.0
 11
9100.0
 21
-2060.0
 31
0.0
  0
MTEXT
  5
201
330
1F7
100
AcDbEntity
  8
0
 62
7
100
AcDbMText
 10
8800.0
 20
-2047.4
 30
0.0
 40
25.0
 71
5
  1
600
  7
HZ
  0
POINT
  5
202
330
1F7
100
AcDbEntity
  8
Defpoints
100
AcDbPoint
 10
8500.0
 20
-2060.0
 30
0.0
  0
POINT
  5
203
330
1F7
100
AcDbEntity
  8
Defpoints
100
AcDbPoint
 10
8500.0
 20
-1940.0
 30
0.0
  0
POINT
  5
204
330
1F7
100
AcDbEntity
  8
Defpoints
100
AcDbPoint
 10
9100.0
 20
-1940.0
 30
0.0
  0
ENDBLK
  5
1F9
330
1F7
100
AcDbEntity
  8
0
100
AcDbBlockEnd
  0
BLOCK
  5
210
330
20F
100
AcDbEntity
  8
0
100
AcDbBlockBegin
  2
*D20
 70
1
 10
0.0
 20
0.0
 30
0.0
  3
*D20
  1

  0
LINE
  5
212
330
20F
100
AcDbEntity
  8
0
100
AcDbLine
 10
9792.0
 20
-1904.0
 30
0.0
 11
9674.0
 21
-1904.0
 31
0.0
  0
LINE
  5
213
330
20F
100
AcDbEntity
  8
0
100
AcDbLine
 10
9792.0
 20
380.0
 30
0.0
 11
9674.0
 21
380.0
 31
0.0
  0
INSERT
  5
214
330
20F
100
AcDbEntity
  8
0
 62
7
100
AcDbBlockReference
  2
_ARCHTICK
 10
9680.0
 20
-1904.0
 30
0.0
 41
18.0
 42
18.0
 50
270.0
  0
INSERT
  5
216
330
20F
100
AcDbEntity
  8
0
 62
7
100
AcDbBlockReference
  2
_ARCHTICK
 10
9680.0
 20
380.0
 30
0.0
 41
18.0
 42
18.0
 50
90.0
  0
LINE
  5
218
330
20F
100
AcDbEntity
  8
0
 62
7
100
AcDbLine
 10
9680.0
 20
-1904.0
 30
0.0
 11
9680.0
 21
380.0
 31
0.0
  0
MTEXT
  5
219
330
20F
100
AcDbEntity
  8
0
 62
7
100
AcDbMText
 10
9667.4
 20
-762.0
 30
0.0
 40
25.0
 71
5
  1
2284
  7
HZ
 50
90.0
  0
POINT
  5
21A
330
20F
100
AcDbEntity
  8
Defpoints
100
AcDbPoint
 10
9680.0
 20
-1904.0
 30
0.0
  0
POINT
  5
21B
330
20F
100
AcDbEntity
  8
Defpoints
100
AcDbPoint
 10
9800.0
 20
-1904.0
 30
0.0
  0
POINT
  5
21C
330
20F
100
AcDbEntity
  8
Defpoints
100
AcDbPoint
 10
9800.0
 20
380.0
 30
0.0
  0
ENDBLK
  5
211
330
20F
100
AcDbEntity
  8
0
100
AcDbBlockEnd
  0
BLOCK
  5
21F
330
21E
100
AcDbEntity
  8
0
100
AcDbBlockBegin
  2
*D21
 70
1
 10
0.0
 20
0.0
 30
0.0
  3
*D21
  1

  0
LINE
  5
221
330
21E
100
AcDbEntity
  8
0
100
AcDbLine
 10
9800.0
 20
-1912.0
 30
0.0
 11
9800.0
 21
-2030.0
 31
0.0
  0
LINE
  5
222
330
21E
100
AcDbEntity
  8
0
100
AcDbLine
 10
10400.0
 20
-1912.0
 30
0.0
 11
10400.0
 21
-2030.0
 31
0.0
  0
INSERT
  5
223
330
21E
100
AcDbEntity
  8
0
 62
7
100
AcDbBlockReference
  2
_ARCHTICK
 10
9800.0
 20
-2024.0
 30
0.0
 41
18.0
 42
18.0
 50
180.0
  0
INSERT
  5
225
330
21E
100
AcDbEntity
  8
0
 62
7
100
AcDbBlockReference
  2
_ARCHTICK
 10
10400.0
 20
-2024.0
 30
0.0
 41
18.0
 42
18.0
  0
LINE
  5
227
330
21E
100
AcDbEntity
  8
0
 62
7
100
AcDbLine
 10
9800.0
 20
-2024.0
 30
0.0
 11
10400.0
 21
-2024.0
 31
0.0
  0
MTEXT
  5
228
330
21E
100
AcDbEntity
  8
0
 62
7
100
AcDbMText
 10
10100.0
 20
-2011.4
 30
0.0
 40
25.0
 71
5
  1
600
  7
HZ
  0
POINT
  5
229
330
21E
100
AcDbEntity
  8
Defpoints
100
AcDbPoint
 10
9800.0
 20
-2024.0
 30
0.0
  0
POINT
  5
22A
330
21E
100
AcDbEntity
  8
Defpoints
100
AcDbPoint
 10
9800.0
 20
-1904.0
 30
0.0
  0
POINT
  5
22B
330
21E
100
AcDbEntity
  8
Defpoints
100
AcDbPoint
 10
10400.0
 20
-1904.0
 30
0.0
  0
ENDBLK
  5
220
330
21E
100
AcDbEntity
  8
0
100
AcDbBlockEnd
  0
BLOCK
  5
237
330
236
100
AcDbEntity
  8
0
100
AcDbBlockBegin
  2
*D22
 70
1
 10
0.0
 20
0.0
 30
0.0
  3
*D22
  1

  0
LINE
  5
239
330
236
100
AcDbEntity
  8
0
100
AcDbLine
 10
4592.0
 20
-5138.0
 30
0.0
 11
4474.0
 21
-5138.0
 31
0.0
  0
LINE
  5
23A
330
236
100
AcDbEntity
  8
0
100
AcDbLine
 10
4592.0
 20
-2854.0
 30
0.0
 11
4474.0
 21
-2854.0
 31
0.0
  0
INSERT
  5
23B
330
236
100
AcDbEntity
  8
0
 62
7
100
AcDbBlockReference
  2
_ARCHTICK
 10
4480.0
 20
-5138.0
 30
0.0
 41
18.0
 42
18.0
 50
270.0
  0
INSERT
  5
23D
330
236
100
AcDbEntity
  8
0
 62
7
100
AcDbBlockReference
  2
_ARCHTICK
 10
4480.0
 20
-2854.0
 30
0.0
 41
18.0
 42
18.0
 50
90.0
  0
LINE
  5
23F
330
236
100
AcDbEntity
  8
0
 62
7
100
AcDbLine
 10
4480.0
 20
-5138.0
 30
0.0
 11
4480.0
 21
-2854.0
 31
0.0
  0
MTEXT
  5
240
330
236
100
AcDbEntity
  8
0
 62
7
100
AcDbMText
 10
4467.4
 20
-3996.0
 30
0.0
 40
25.0
 71
5
  1
2284
  7
HZ
 50
90.0
  0
POINT
  5
241
330
236
100
AcDbEntity
  8
Defpoints
100
AcDbPoint
 10
4480.0
 20
-5138.0
 30
0.0
  0
POINT
  5
242
330
236
100
AcDbEntity
  8
Defpoints
100
AcDbPoint
 10
4600.0
 20
-5138.0
 30
0.0
  0
POINT
  5
243
330
236
100
AcDbEntity
  8
Defpoints
100
AcDbPoint
 10
4600.0
 20
-2854.0
 30
0.0
  0
ENDBLK
  5
238
330
236
100
AcDbEntity
  8
0
100
AcDbBlockEnd
  0
BLOCK
  5
246
330
245
100
AcDbEntity
  8
0
100
AcDbBlockBegin
  2
*D23
 70
1
 10
0.0
 20
0.0
 30
0.0
  3
*D23
  1

  0
LINE
  5
248
330
245
100
AcDbEntity
  8
0
100
AcDbLine
 10
4600.0
 20
-5146.0
 30
0.0
 11
4600.0
 21
-5264.0
 31
0.0
  0
LINE
  5
249
330
245
100
AcDbEntity
  8
0
100
AcDbLine
 10
5200.0
 20
-5146.0
 30
0.0
 11
5200.0
 21
-5264.0
 31
0.0
  0
INSERT
  5
24A
330
245
100
AcDbEntity
  8
0
 62
7
100
AcDbBlockReference
  2
_ARCHTICK
 10
4600.0
 20
-5258.0
 30
0.0
 41
18.0
 42
18.0
 50
180.0
  0
INSERT
  5
24C
330
245
100
AcDbEntity
  8
0
 62
7
100
AcDbBlockReference
  2
_ARCHTICK
 10
5200.0
 20
-5258.0
 30
0.0
 41
18.0
 42
18.0
  0
LINE
  5
24E
330
245
100
AcDbEntity
  8
0
 62
7
100
AcDbLine
 10
4600.0
 20
-5258.0
 30
0.0
 11
5200.0
 21
-5258.0
 31
0.0
  0
MTEXT
  5
24F
330
245
100
AcDbEntity
  8
0
 62
7
100
AcDbMText
 10
4900.0
 20
-5245.4
 30
0.0
 40
25.0
 71
5
  1
600
  7
HZ
  0
POINT
  5
250
330
245
100
AcDbEntity
  8
Defpoints
100
AcDbPoint
 10
4600.0
 20
-5258.0
 30
0.0
  0
POINT
  5
251
330
245
100
AcDbEntity
  8
Defpoints
100
AcDbPoint
 10
4600.0
 20
-5138.0
 30
0.0
  0
POINT
  5
252
330
245
100
AcDbEntity
  8
Defpoints
100
AcDbPoint
 10
5200.0
 20
-5138.0
 30
0.0
  0
ENDBLK
  5
247
330
245
100
AcDbEntity
  8
0
100
AcDbBlockEnd
  0
BLOCK
  5
25F
330
25E
100
AcDbEntity
  8
0
100
AcDbBlockBegin
  2
*D24
 70
1
 10
0.0
 20
0.0
 30
0.0
  3
*D24
  1

  0
LINE
  5
261
330
25E
100
AcDbEntity
  8
0
100
AcDbLine
 10
5892.0
 20
-4017.0
 30
0.0
 11
5774.0
 21
-4017.0
 31
0.0
  0
LINE
  5
262
330
25E
100
AcDbEntity
  8
0
100
AcDbLine
 10
5892.0
 20
-2854.0
 30
0.0
 11
5774.0
 21
-2854.0
 31
0.0
  0
INSERT
  5
263
330
25E
100
AcDbEntity
  8
0
 62
7
100
AcDbBlockReference
  2
_ARCHTICK
 10
5780.0
 20
-4017.0
 30
0.0
 41
18.0
 42
18.0
 50
270.0
  0
INSERT
  5
265
330
25E
100
AcDbEntity
  8
0
 62
7
100
AcDbBlockReference
  2
_ARCHTICK
 10
5780.0
 20
-2854.0
 30
0.0
 41
18.0
 42
18.0
 50
90.0
  0
LINE
  5
267
330
25E
100
AcDbEntity
  8
0
 62
7
100
AcDbLine
 10
5780.0
 20
-4017.0
 30
0.0
 11
5780.0
 21
-2854.0
 31
0.0
  0
MTEXT
  5
268
330
25E
100
AcDbEntity
  8
0
 62
7
100
AcDbMText
 10
5767.4
 20
-3435.5
 30
0.0
 40
25.0
 71
5
  1
1163
  7
HZ
 50
90.0
  0
POINT
  5
269
330
25E
100
AcDbEntity
  8
Defpoints
100
AcDbPoint
 10
5780.0
 20
-4017.0
 30
0.0
  0
POINT
  5
26A
330
25E
100
AcDbEntity
  8
Defpoints
100
AcDbPoint
 10
5900.0
 20
-4017.0
 30
0.0
  0
POINT
  5
26B
330
25E
100
AcDbEntity
  8
Defpoints
100
AcDbPoint
 10
5900.0
 20
-2854.0
 30
0.0
  0
ENDBLK
  5
260
330
25E
100
AcDbEntity
  8
0
100
AcDbBlockEnd
  0
BLOCK
  5
26E
330
26D
100
AcDbEntity
  8
0
100
AcDbBlockBegin
  2
*D25
 70
1
 10
0.0
 20
0.0
 30
0.0
  3
*D25
  1

  0
LINE
  5
270
330
26D
100
AcDbEntity
  8
0
100
AcDbLine
 10
5900.0
 20
-4025.0
 30
0.0
 11
5900.0
 21
-4143.0
 31
0.0
  0
LINE
  5
271
330
26D
100
AcDbEntity
  8
0
100
AcDbLine
 10
6470.0
 20
-4025.0
 30
0.0
 11
6470.0
 21
-4143.0
 31
0.0
  0
INSERT
  5
272
330
26D
100
AcDbEntity
  8
0
 62
7
100
AcDbBlockReference
  2
_ARCHTICK
 10
5900.0
 20
-4137.0
 30
0.0
 41
18.0
 42
18.0
 50
180.0
  0
INSERT
  5
274
330
26D
100
AcDbEntity
  8
0
 62
7
100
AcDbBlockReference
  2
_ARCHTICK
 10
6470.0
 20
-4137.0
 30
0.0
 41
18.0
 42
18.0
  0
LINE
  5
276
330
26D
100
AcDbEntity
  8
0
 62
7
100
AcDbLine
 10
5900.0
 20
-4137.0
 30
0.0
 11
6470.0
 21
-4137.0
 31
0.0
  0
MTEXT
  5
277
330
26D
100
AcDbEntity
  8
0
 62
7
100
AcDbMText
 10
6185.0
 20
-4124.4
 30
0.0
 40
25.0
 71
5
  1
570
  7
HZ
  0
POINT
  5
278
330
26D
100
AcDbEntity
  8
Defpoints
100
AcDbPoint
 10
5900.0
 20
-4137.0
 30
0.0
  0
POINT
  5
279
330
26D
100
AcDbEntity
  8
Defpoints
100
AcDbPoint
 10
5900.0
 20
-4017.0
 30
0.0
  0
POINT
  5
27A
330
26D
100
AcDbEntity
  8
Defpoints
100
AcDbPoint
 10
6470.0
 20
-4017.0
 30
0.0
  0
ENDBLK
  5
26F
330
26D
100
AcDbEntity
  8
0
100
AcDbBlockEnd
  0
BLOCK
  5
287
330
286
100
AcDbEntity
  8
0
100
AcDbBlockBegin
  2
*D26
 70
1
 10
0.0
 20
0.0
 30
0.0
  3
*D26
  1

  0
LINE
  5
289
330
286
100
AcDbEntity
  8
0
100
AcDbLine
 10
7162.0
 20
-5134.0
 30
0.0
 11
7044.0
 21
-5134.0
 31
0.0
  0
LINE
  5
28A
330
286
100
AcDbEntity
  8
0
100
AcDbLine
 10
7162.0
 20
-2854.0
 30
0.0
 11
7044.0
 21
-2854.0
 31
0.0
  0
INSERT
  5
28B
330
286
100
AcDbEntity
  8
0
 62
7
100
AcDbBlockReference
  2
_ARCHTICK
 10
7050.0
 20
-5134.0
 30
0.0
 41
18.0
 42
18.0
 50
270.0
  0
INSERT
  5
28D
330
286
100
AcDbEntity
  8
0
 62
7
100
AcDbBlockReference
  2
_ARCHTICK
 10
7050.0
 20
-2854.0
 30
0.0
 41
18.0
 42
18.0
 50
90.0
  0
LINE
  5
28F
330
286
100
AcDbEntity
  8
0
 62
7
100
AcDbLine
 10
7050.0
 20
-5134.0
 30
0.0
 11
7050.0
 21
-2854.0
 31
0.0
  0
MTEXT
  5
290
330
286
100
AcDbEntity
  8
0
 62
7
100
AcDbMText
 10
7037.4
 20
-3994.0
 30
0.0
 40
25.0
 71
5
  1
2280
  7
HZ
 50
90.0
  0
POINT
  5
291
330
286
100
AcDbEntity
  8
Defpoints
100
AcDbPoint
 10
7050.0
 20
-5134.0
 30
0.0
  0
POINT
  5
292
330
286
100
AcDbEntity
  8
Defpoints
100
AcDbPoint
 10
7170.0
 20
-5134.0
 30
0.0
  0
POINT
  5
293
330
286
100
AcDbEntity
  8
Defpoints
100
AcDbPoint
 10
7170.0
 20
-2854.0
 30
0.0
  0
ENDBLK
  5
288
330
286
100
AcDbEntity
  8
0
100
AcDbBlockEnd
  0
BLOCK
  5
296
330
295
100
AcDbEntity
  8
0
100
AcDbBlockBegin
  2
*D27
 70
1
 10
0.0
 20
0.0
 30
0.0
  3
*D27
  1

  0
LINE
  5
298
330
295
100
AcDbEntity
  8
0
100
AcDbLine
 10
7170.0
 20
-5142.0
 30
0.0
 11
7170.0
 21
-5260.0
 31
0.0
  0
LINE
  5
299
330
295
100
AcDbEntity
  8
0
100
AcDbLine
 10
7458.0
 20
-5142.0
 30
0.0
 11
7458.0
 21
-5260.0
 31
0.0
  0
INSERT
  5
29A
330
295
100
AcDbEntity
  8
0
 62
7
100
AcDbBlockReference
  2
_ARCHTICK
 10
7170.0
 20
-5254.0
 30
0.0
 41
18.0
 42
18.0
 50
180.0
  0
INSERT
  5
29C
330
295
100
AcDbEntity
  8
0
 62
7
100
AcDbBlockReference
  2
_ARCHTICK
 10
7458.0
 20
-5254.0
 30
0.0
 41
18.0
 42
18.0
  0
LINE
  5
29E
330
295
100
AcDbEntity
  8
0
 62
7
100
AcDbLine
 10
7170.0
 20
-5254.0
 30
0.0
 11
7458.0
 21
-5254.0
 31
0.0
  0
MTEXT
  5
29F
330
295
100
AcDbEntity
  8
0
 62
7
100
AcDbMText
 10
7314.0
 20
-5241.4
 30
0.0
 40
25.0
 71
5
  1
288
  7
HZ
  0
POINT
  5
2A0
330
295
100
AcDbEntity
  8
Defpoints
100
AcDbPoint
 10
7170.0
 20
-5254.0
 30
0.0
  0
POINT
  5
2A1
330
295
100
AcDbEntity
  8
Defpoints
100
AcDbPoint
 10
7170.0
 20
-5134.0
 30
0.0
  0
POINT
  5
2A2
330
295
100
AcDbEntity
  8
Defpoints
100
AcDbPoint
 10
7458.0
 20
-5134.0
 30
0.0
  0
ENDBLK
  5
297
330
295
100
AcDbEntity
  8
0
100
AcDbBlockEnd
  0
BLOCK
  5
2AF
330
2AE
100
AcDbEntity
  8
0
100
AcDbBlockBegin
  2
*D28
 70
1
 10
0.0
 20
0.0
 30
0.0
  3
*D28
  1

  0
LINE
  5
2B1
330
2AE
100
AcDbEntity
  8
0
100
AcDbLine
 10
8150.0
 20
-5134.0
 30
0.0
 11
8032.0
 21
-5134.0
 31
0.0
  0
LINE
  5
2B2
330
2AE
100
AcDbEntity
  8
0
100
AcDbLine
 10
8150.0
 20
-2854.0
 30
0.0
 11
8032.0
 21
-2854.0
 31
0.0
  0
INSERT
  5
2B3
330
2AE
100
AcDbEntity
  8
0
 62
7
100
AcDbBlockReference
  2
_ARCHTICK
 10
8038.0
 20
-5134.0
 30
0.0
 41
18.0
 42
18.0
 50
270.0
  0
INSERT
  5
2B5
330
2AE
100
AcDbEntity
  8
0
 62
7
100
AcDbBlockReference
  2
_ARCHTICK
 10
8038.0
 20
-2854.0
 30
0.0
 41
18.0
 42
18.0
 50
90.0
  0
LINE
  5
2B7
330
2AE
100
AcDbEntity
  8
0
 62
7
100
AcDbLine
 10
8038.0
 20
-5134.0
 30
0.0
 11
8038.0
 21
-2854.0
 31
0.0
  0
MTEXT
  5
2B8
330
2AE
100
AcDbEntity
  8
0
 62
7
100
AcDbMText
 10
8025.4
 20
-3994.0
 30
0.0
 40
25.0
 71
5
  1
2280
  7
HZ
 50
90.0
  0
POINT
  5
2B9
330
2AE
100
AcDbEntity
  8
Defpoints
100
AcDbPoint
 10
8038.0
 20
-5134.0
 30
0.0
  0
POINT
  5
2BA
330
2AE
100
AcDbEntity
  8
Defpoints
100
AcDbPoint
 10
8158.0
 20
-5134.0
 30
0.0
  0
POINT
  5
2BB
330
2AE
100
AcDbEntity
  8
Defpoints
100
AcDbPoint
 10
8158.0
 20
-2854.0
 30
0.0
  0
ENDBLK
  5
2B0
330
2AE
100
AcDbEntity
  8
0
100
AcDbBlockEnd
  0
BLOCK
  5
2BE
330
2BD
100
AcDbEntity
  8
0
100
AcDbBlockBegin
  2
*D29
 70
1
 10
0.0
 20
0.0
 30
0.0
  3
*D29
  1

  0
LINE
  5
2C0
330
2BD
100
AcDbEntity
  8
0
100
AcDbLine
 10
8158.0
 20
-5142.0
 30
0.0
 11
8158.0
 21
-5260.0
 31
0.0
  0
LINE
  5
2C1
330
2BD
100
AcDbEntity
  8
0
100
AcDbLine
 10
8445.0
 20
-5142.0
 30
0.0
 11
8445.0
 21
-5260.0
 31
0.0
  0
INSERT
  5
2C2
330
2BD
100
AcDbEntity
  8
0
 62
7
100
AcDbBlockReference
  2
_ARCHTICK
 10
8158.0
 20
-5254.0
 30
0.0
 41
18.0
 42
18.0
 50
180.0
  0
INSERT
  5
2C4
330
2BD
100
AcDbEntity
  8
0
 62
7
100
AcDbBlockReference
  2
_ARCHTICK
 10
8445.0
 20
-5254.0
 30
0.0
 41
18.0
 42
18.0
  0
LINE
  5
2C6
330
2BD
100
AcDbEntity
  8
0
 62
7
100
AcDbLine
 10
8158.0
 20
-5254.0
 30
0.0
 11
8445.0
 21
-5254.0
 31
0.0
  0
MTEXT
  5
2C7
330
2BD
100
AcDbEntity
  8
0
 62
7
100
AcDbMText
 10
8301.5
 20
-5241.4
 30
0.0
 40
25.0
 71
5
  1
287
  7
HZ
  0
POINT
  5
2C8
330
2BD
100
AcDbEntity
  8
Defpoints
100
AcDbPoint
 10
8158.0
 20
-5254.0
 30
0.0
  0
POINT
  5
2C9
330
2BD
100
AcDbEntity
  8
Defpoints
100
AcDbPoint
 10
8158.0
 20
-5134.0
 30
0.0
  0
POINT
  5
2CA
330
2BD
100
AcDbEntity
  8
Defpoints
100
AcDbPoint
 10
8445.0
 20
-5134.0
 30
0.0
  0
ENDBLK
  5
2BF
330
2BD
100
AcDbEntity
  8
0
100
AcDbBlockEnd
  0
BLOCK
  5
2D7
330
2D6
100
AcDbEntity
  8
0
100
AcDbBlockBegin
  2
*D30
 70
1
 10
0.0
 20
0.0
 30
0.0
  3
*D30
  1

  0
LINE
  5
2D9
330
2D6
100
AcDbEntity
  8
0
100
AcDbLine
 10
9137.0
 20
-3610.0
 30
0.0
 11
9019.0
 21
-3610.0
 31
0.0
  0
LINE
  5
2DA
330
2D6
100
AcDbEntity
  8
0
100
AcDbLine
 10
9137.0
 20
-2854.0
 30
0.0
 11
9019.0
 21
-2854.0
 31
0.0
  0
INSERT
  5
2DB
330
2D6
100
AcDbEntity
  8
0
 62
7
100
AcDbBlockReference
  2
_ARCHTICK
 10
9025.0
 20
-3610.0
 30
0.0
 41
18.0
 42
18.0
 50
270.0
  0
INSERT
  5
2DD
330
2D6
100
AcDbEntity
  8
0
 62
7
100
AcDbBlockReference
  2
_ARCHTICK
 10
9025.0
 20
-2854.0
 30
0.0
 41
18.0
 42
18.0
 50
90.0
  0
LINE
  5
2DF
330
2D6
100
AcDbEntity
  8
0
 62
7
100
AcDbLine
 10
9025.0
 20
-3610.0
 30
0.0
 11
9025.0
 21
-2854.0
 31
0.0
  0
MTEXT
  5
2E0
330
2D6
100
AcDbEntity
  8
0
 62
7
100
AcDbMText
 10
9012.4
 20
-3232.0
 30
0.0
 40
25.0
 71
5
  1
756
  7
HZ
 50
90.0
  0
POINT
  5
2E1
330
2D6
100
AcDbEntity
  8
Defpoints
100
AcDbPoint
 10
9025.0
 20
-3610.0
 30
0.0
  0
POINT
  5
2E2
330
2D6
100
AcDbEntity
  8
Defpoints
100
AcDbPoint
 10
9145.0
 20
-3610.0
 30
0.0
  0
POINT
  5
2E3
330
2D6
100
AcDbEntity
  8
Defpoints
100
AcDbPoint
 10
9145.0
 20
-2854.0
 30
0.0
  0
ENDBLK
  5
2D8
330
2D6
100
AcDbEntity
  8
0
100
AcDbBlockEnd
  0
BLOCK
  5
2E6
330
2E5
100
AcDbEntity
  8
0
100
AcDbBlockBegin
  2
*D31
 70
1
 10
0.0
 20
0.0
 30
0.0
  3
*D31
  1

  0
LINE
  5
2E8
330
2E5
100
AcDbEntity
  8
0
100
AcDbLine
 10
9145.0
 20
-3618.0
 30
0.0
 11
9145.0
 21
-3736.0
 31
0.0
  0
LINE
  5
2E9
330
2E5
100
AcDbEntity
  8
0
100
AcDbLine
 10
9723.0
 20
-3618.0
 30
0.0
 11
9723.0
 21
-3736.0
 31
0.0
  0
INSERT
  5
2EA
330
2E5
100
AcDbEntity
  8
0
 62
7
100
AcDbBlockReference
  2
_ARCHTICK
 10
9145.0
 20
-3730.0
 30
0.0
 41
18.0
 42
18.0
 50
180.0
  0
INSERT
  5
2EC
330
2E5
100
AcDbEntity
  8
0
 62
7
100
AcDbBlockReference
  2
_ARCHTICK
 10
9723.0
 20
-3730.0
 30
0.0
 41
18.0
 42
18.0
  0
LINE
  5
2EE
330
2E5
100
AcDbEntity
  8
0
 62
7
100
AcDbLine
 10
9145.0
 20
-3730.0
 30
0.0
 11
9723.0
 21
-3730.0
 31
0.0
  0
MTEXT
  5
2EF
330
2E5
100
AcDbEntity
  8
0
 62
7
100
AcDbMText
 10
9434.0
 20
-3717.4
 30
0.0
 40
25.0
 71
5
  1
578
  7
HZ
  0
POINT
  5
2F0
330
2E5
100
AcDbEntity
  8
Defpoints
100
AcDbPoint
 10
9145.0
 20
-3730.0
 30
0.0
  0
POINT
  5
2F1
330
2E5
100
AcDbEntity
  8
Defpoints
100
AcDbPoint
 10
9145.0
 20
-3610.0
 30
0.0
  0
POINT
  5
2F2
330
2E5
100
AcDbEntity
  8
Defpoints
100
AcDbPoint
 10
9723.0
 20
-3610.0
 30
0.0
  0
ENDBLK
  5
2E7
330
2E5
100
AcDbEntity
  8
0
100
AcDbBlockEnd
  0
BLOCK
  5
2FF
330
2FE
100
AcDbEntity
  8
0
100
AcDbBlockBegin
  2
*D32
 70
1
 10
0.0
 20
0.0
 30
0.0
  3
*D32
  1

  0
LINE
  5
301
330
2FE
100
AcDbEntity
  8
0
100
AcDbLine
 10
4592.0
 20
-6762.0
 30
0.0
 11
4474.0
 21
-6762.0
 31
0.0
  0
LINE
  5
302
330
2FE
100
AcDbEntity
  8
0
100
AcDbLine
 10
4592.0
 20
-6008.0
 30
0.0
 11
4474.0
 21
-6008.0
 31
0.0
  0
INSERT
  5
303
330
2FE
100
AcDbEntity
  8
0
 62
7
100
AcDbBlockReference
  2
_ARCHTICK
 10
4480.0
 20
-6762.0
 30
0.0
 41
18.0
 42
18.0
 50
270.0
  0
INSERT
  5
305
330
2FE
100
AcDbEntity
  8
0
 62
7
100
AcDbBlockReference
  2
_ARCHTICK
 10
4480.0
 20
-6008.0
 30
0.0
 41
18.0
 42
18.0
 50
90.0
  0
LINE
  5
307
330
2FE
100
AcDbEntity
  8
0
 62
7
100
AcDbLine
 10
4480.0
 20
-6762.0
 30
0.0
 11
4480.0
 21
-6008.0
 31
0.0
  0
MTEXT
  5
308
330
2FE
100
AcDbEntity
  8
0
 62
7
100
AcDbMText
 10
4467.4
 20
-6385.0
 30
0.0
 40
25.0
 71
5
  1
754
  7
HZ
 50
90.0
  0
POINT
  5
309
330
2FE
100
AcDbEntity
  8
Defpoints
100
AcDbPoint
 10
4480.0
 20
-6762.0
 30
0.0
  0
POINT
  5
30A
330
2FE
100
AcDbEntity
  8
Defpoints
100
AcDbPoint
 10
4600.0
 20
-6762.0
 30
0.0
  0
POINT
  5
30B
330
2FE
100
AcDbEntity
  8
Defpoints
100
AcDbPoint
 10
4600.0
 20
-6008.0
 30
0.0
  0
ENDBLK
  5
300
330
2FE
100
AcDbEntity
  8
0
100
AcDbBlockEnd
  0
BLOCK
  5
30E
330
30D
100
AcDbEntity
  8
0
100
AcDbBlockBegin
  2
*D33
 70
1
 10
0.0
 20
0.0
 30
0.0
  3
*D33
  1

  0
LINE
  5
310
330
30D
100
AcDbEntity
  8
0
100
AcDbLine
 10
4600.0
 20
-6770.0
 30
0.0
 11
4600.0
 21
-6888.0
 31
0.0
  0
LINE
  5
311
330
30D
100
AcDbEntity
  8
0
100
AcDbLine
 10
5178.0
 20
-6770.0
 30
0.0
 11
5178.0
 21
-6888.0
 31
0.0
  0
INSERT
  5
312
330
30D
100
AcDbEntity
  8
0
 62
7
100
AcDbBlockReference
  2
_ARCHTICK
 10
4600.0
 20
-6882.0
 30
0.0
 41
18.0
 42
18.0
 50
180.0
  0
INSERT
  5
314
330
30D
100
AcDbEntity
  8
0
 62
7
100
AcDbBlockReference
  2
_ARCHTICK
 10
5178.0
 20
-6882.0
 30
0.0
 41
18.0
 42
18.0
  0
LINE
  5
316
330
30D
100
AcDbEntity
  8
0
 62
7
100
AcDbLine
 10
4600.0
 20
-6882.0
 30
0.0
 11
5178.0
 21
-6882.0
 31
0.0
  0
MTEXT
  5
317
330
30D
100
AcDbEntity
  8
0
 62
7
100
AcDbMText
 10
4889.0
 20
-6869.4
 30
0.0
 40
25.0
 71
5
  1
578
  7
HZ
  0
POINT
  5
318
330
30D
100
AcDbEntity
  8
Defpoints
100
AcDbPoint
 10
4600.0
 20
-6882.0
 30
0.0
  0
POINT
  5
319
330
30D
100
AcDbEntity
  8
Defpoints
100
AcDbPoint
 10
4600.0
 20
-6762.0
 30
0.0
  0
POINT
  5
31A
330
30D
100
AcDbEntity
  8
Defpoints
100
AcDbPoint
 10
5178.0
 20
-6762.0
 30
0.0
  0
ENDBLK
  5
30F
330
30D
100
AcDbEntity
  8
0
100
AcDbBlockEnd
  0
BLOCK
  5
327
330
326
100
AcDbEntity
  8
0
100
AcDbBlockBegin
  2
*D34
 70
1
 10
0.0
 20
0.0
 30
0.0
  3
*D34
  1

  0
LINE
  5
329
330
326
100
AcDbEntity
  8
0
100
AcDbLine
 10
5870.0
 20
-6762.0
 30
0.0
 11
5752.0
 21
-6762.0
 31
0.0
  0
LINE
  5
32A
330
326
100
AcDbEntity
  8
0
100
AcDbLine
 10
5870.0
 20
-6008.0
 30
0.0
 11
5752.0
 21
-6008.0
 31
0.0
  0
INSERT
  5
32B
330
326
100
AcDbEntity
  8
0
 62
7
100
AcDbBlockReference
  2
_ARCHTICK
 10
5758.0
 20
-6762.0
 30
0.0
 41
18.0
 42
18.0
 50
270.0
  0
INSERT
  5
32D
330
326
100
AcDbEntity
  8
0
 62
7
100
AcDbBlockReference
  2
_ARCHTICK
 10
5758.0
 20
-6008.0
 30
0.0
 41
18.0
 42
18.0
 50
90.0
  0
LINE
  5
32F
330
326
100
AcDbEntity
  8
0
 62
7
100
AcDbLine
 10
5758.0
 20
-6762.0
 30
0.0
 11
5758.0
 21
-6008.0
 31
0.0
  0
MTEXT
  5
330
330
326
100
AcDbEntity
  8
0
 62
7
100
AcDbMText
 10
5745.4
 20
-6385.0
 30
0.0
 40
25.0
 71
5
  1
754
  7
HZ
 50
90.0
  0
POINT
  5
331
330
326
100
AcDbEntity
  8
Defpoints
100
AcDbPoint
 10
5758.0
 20
-6762.0
 30
0.0
  0
POINT
  5
332
330
326
100
AcDbEntity
  8
Defpoints
100
AcDbPoint
 10
5878.0
 20
-6762.0
 30
0.0
  0
POINT
  5
333
330
326
100
AcDbEntity
  8
Defpoints
100
AcDbPoint
 10
5878.0
 20
-6008.0
 30
0.0
  0
ENDBLK
  5
328
330
326
100
AcDbEntity
  8
0
100
AcDbBlockEnd
  0
BLOCK
  5
336
330
335
100
AcDbEntity
  8
0
100
AcDbBlockBegin
  2
*D35
 70
1
 10
0.0
 20
0.0
 30
0.0
  3
*D35
  1

  0
LINE
  5
338
330
335
100
AcDbEntity
  8
0
100
AcDbLine
 10
5878.0
 20
-6770.0
 30
0.0
 11
5878.0
 21
-6888.0
 31
0.0
  0
LINE
  5
339
330
335
100
AcDbEntity
  8
0
100
AcDbLine
 10
6456.0
 20
-6770.0
 30
0.0
 11
6456.0
 21
-6888.0
 31
0.0
  0
INSERT
  5
33A
330
335
100
AcDbEntity
  8
0
 62
7
100
AcDbBlockReference
  2
_ARCHTICK
 10
5878.0
 20
-6882.0
 30
0.0
 41
18.0
 42
18.0
 50
180.0
  0
INSERT
  5
33C
330
335
100
AcDbEntity
  8
0
 62
7
100
AcDbBlockReference
  2
_ARCHTICK
 10
6456.0
 20
-6882.0
 30
0.0
 41
18.0
 42
18.0
  0
LINE
  5
33E
330
335
100
AcDbEntity
  8
0
 62
7
100
AcDbLine
 10
5878.0
 20
-6882.0
 30
0.0
 11
6456.0
 21
-6882.0
 31
0.0
  0
MTEXT
  5
33F
330
335
100
AcDbEntity
  8
0
 62
7
100
AcDbMText
 10
6167.0
 20
-6869.4
 30
0.0
 40
25.0
 71
5
  1
578
  7
HZ
  0
POINT
  5
340
330
335
100
AcDbEntity
  8
Defpoints
100
AcDbPoint
 10
5878.0
 20
-6882.0
 30
0.0
  0
POINT
  5
341
330
335
100
AcDbEntity
  8
Defpoints
100
AcDbPoint
 10
5878.0
 20
-6762.0
 30
0.0
  0
POINT
  5
342
330
335
100
AcDbEntity
  8
Defpoints
100
AcDbPoint
 10
6456.0
 20
-6762.0
 30
0.0
  0
ENDBLK
  5
337
330
335
100
AcDbEntity
  8
0
100
AcDbBlockEnd
  0
BLOCK
  5
34E
330
34D
100
AcDbEntity
  8
0
100
AcDbBlockBegin
  2
*D36
 70
1
 10
0.0
 20
0.0
 30
0.0
  3
*D36
  1

  0
LINE
  5
350
330
34D
100
AcDbEntity
  8
0
100
AcDbLine
 10
7148.0
 20
-6535.0
 30
0.0
 11
7030.0
 21
-6535.0
 31
0.0
  0
LINE
  5
351
330
34D
100
AcDbEntity
  8
0
100
AcDbLine
 10
7148.0
 20
-6008.0
 30
0.0
 11
7030.0
 21
-6008.0
 31
0.0
  0
INSERT
  5
352
330
34D
100
AcDbEntity
  8
0
 62
7
100
AcDbBlockReference
  2
_ARCHTICK
 10
7036.0
 20
-6535.0
 30
0.0
 41
18.0
 42
18.0
 50
270.0
  0
INSERT
  5
354
330
34D
100
AcDbEntity
  8
0
 62
7
100
AcDbBlockReference
  2
_ARCHTICK
 10
7036.0
 20
-6008.0
 30
0.0
 41
18.0
 42
18.0
 50
90.0
  0
LINE
  5
356
330
34D
100
AcDbEntity
  8
0
 62
7
100
AcDbLine
 10
7036.0
 20
-6535.0
 30
0.0
 11
7036.0
 21
-6008.0
 31
0.0
  0
MTEXT
  5
357
330
34D
100
AcDbEntity
  8
0
 62
7
100
AcDbMText
 10
7023.4
 20
-6271.5
 30
0.0
 40
25.0
 71
5
  1
527
  7
HZ
 50
90.0
  0
POINT
  5
358
330
34D
100
AcDbEntity
  8
Defpoints
100
AcDbPoint
 10
7036.0
 20
-6535.0
 30
0.0
  0
POINT
  5
359
330
34D
100
AcDbEntity
  8
Defpoints
100
AcDbPoint
 10
7156.0
 20
-6535.0
 30
0.0
  0
POINT
  5
35A
330
34D
100
AcDbEntity
  8
Defpoints
100
AcDbPoint
 10
7156.0
 20
-6008.0
 30
0.0
  0
ENDBLK
  5
34F
330
34D
100
AcDbEntity
  8
0
100
AcDbBlockEnd
  0
BLOCK
  5
35D
330
35C
100
AcDbEntity
  8
0
100
AcDbBlockBegin
  2
*D37
 70
1
 10
0.0
 20
0.0
 30
0.0
  3
*D37
  1

  0
LINE
  5
35F
330
35C
100
AcDbEntity
  8
0
100
AcDbLine
 10
7156.0
 20
-6543.0
 30
0.0
 11
7156.0
 21
-6661.0
 31
0.0
  0
LINE
  5
360
330
35C
100
AcDbEntity
  8
0
100
AcDbLine
 10
7882.0
 20
-6543.0
 30
0.0
 11
7882.0
 21
-6661.0
 31
0.0
  0
INSERT
  5
361
330
35C
100
AcDbEntity
  8
0
 62
7
100
AcDbBlockReference
  2
_ARCHTICK
 10
7156.0
 20
-6655.0
 30
0.0
 41
18.0
 42
18.0
 50
180.0
  0
INSERT
  5
363
330
35C
100
AcDbEntity
  8
0
 62
7
100
AcDbBlockReference
  2
_ARCHTICK
 10
7882.0
 20
-6655.0
 30
0.0
 41
18.0
 42
18.0
  0
LINE
  5
365
330
35C
100
AcDbEntity
  8
0
 62
7
100
AcDbLine
 10
7156.0
 20
-6655.0
 30
0.0
 11
7882.0
 21
-6655.0
 31
0.0
  0
MTEXT
  5
366
330
35C
100
AcDbEntity
  8
0
 62
7
100
AcDbMText
 10
7519.0
 20
-6642.4
 30
0.0
 40
25.0
 71
5
  1
726
  7
HZ
  0
POINT
  5
367
330
35C
100
AcDbEntity
  8
Defpoints
100
AcDbPoint
 10
7156.0
 20
-6655.0
 30
0.0
  0
POINT
  5
368
330
35C
100
AcDbEntity
  8
Defpoints
100
AcDbPoint
 10
7156.0
 20
-6535.0
 30
0.0
  0
POINT
  5
369
330
35C
100
AcDbEntity
  8
Defpoints
100
AcDbPoint
 10
7882.0
 20
-6535.0
 30
0.0
  0
ENDBLK
  5
35E
330
35C
100
AcDbEntity
  8
0
100
AcDbBlockEnd
  0
BLOCK
  5
375
330
374
100
AcDbEntity
  8
0
100
AcDbBlockBegin
  2
*D38
 70
1
 10
0.0
 20
0.0
 30
0.0
  3
*D38
  1

  0
LINE
  5
377
330
374
100
AcDbEntity
  8
0
100
AcDbLine
 10
8574.0
 20
-6535.0
 30
0.0
 11
8456.0
 21
-6535.0
 31
0.0
  0
LINE
  5
378
330
374
100
AcDbEntity
  8
0
100
AcDbLine
 10
8574.0
 20
-6008.0
 30
0.0
 11
8456.0
 21
-6008.0
 31
0.0
  0
INSERT
  5
379
330
374
100
AcDbEntity
  8
0
 62
7
100
AcDbBlockReference
  2
_ARCHTICK
 10
8462.0
 20
-6535.0
 30
0.0
 41
18.0
 42
18.0
 50
270.0
  0
INSERT
  5
37B
330
374
100
AcDbEntity
  8
0
 62
7
100
AcDbBlockReference
  2
_ARCHTICK
 10
8462.0
 20
-6008.0
 30
0.0
 41
18.0
 42
18.0
 50
90.0
  0
LINE
  5
37D
330
374
100
AcDbEntity
  8
0
 62
7
100
AcDbLine
 10
8462.0
 20
-6535.0
 30
0.0
 11
8462.0
 21
-6008.0
 31
0.0
  0
MTEXT
  5
37E
330
374
100
AcDbEntity
  8
0
 62
7
100
AcDbMText
 10
8449.4
 20
-6271.5
 30
0.0
 40
25.0
 71
5
  1
527
  7
HZ
 50
90.0
  0
POINT
  5
37F
330
374
100
AcDbEntity
  8
Defpoints
100
AcDbPoint
 10
8462.0
 20
-6535.0
 30
0.0
  0
POINT
  5
380
330
374
100
AcDbEntity
  8
Defpoints
100
AcDbPoint
 10
8582.0
 20
-6535.0
 30
0.0
  0
POINT
  5
381
330
374
100
AcDbEntity
  8
Defpoints
100
AcDbPoint
 10
8582.0
 20
-6008.0
 30
0.0
  0
ENDBLK
  5
376
330
374
100
AcDbEntity
  8
0
100
AcDbBlockEnd
  0
BLOCK
  5
384
330
383
100
AcDbEntity
  8
0
100
AcDbBlockBegin
  2
*D39
 70
1
 10
0.0
 20
0.0
 30
0.0
  3
*D39
  1

  0
LINE
  5
386
330
383
100
AcDbEntity
  8
0
100
AcDbLine
 10
8582.0
 20
-6543.0
 30
0.0
 11
8582.0
 21
-6661.0
 31
0.0
  0
LINE
  5
387
330
383
100
AcDbEntity
  8
0
100
AcDbLine
 10
9306.0
 20
-6543.0
 30
0.0
 11
9306.0
 21
-6661.0
 31
0.0
  0
INSERT
  5
388
330
383
100
AcDbEntity
  8
0
 62
7
100
AcDbBlockReference
  2
_ARCHTICK
 10
8582.0
 20
-6655.0
 30
0.0
 41
18.0
 42
18.0
 50
180.0
  0
INSERT
  5
38A
330
383
100
AcDbEntity
  8
0
 62
7
100
AcDbBlockReference
  2
_ARCHTICK
 10
9306.0
 20
-6655.0
 30
0.0
 41
18.0
 42
18.0
  0
LINE
  5
38C
330
383
100
AcDbEntity
  8
0
 62
7
100
AcDbLine
 10
8582.0
 20
-6655.0
 30
0.0
 11
9306.0
 21
-6655.0
 31
0.0
  0
MTEXT
  5
38D
330
383
100
AcDbEntity
  8
0
 62
7
100
AcDbMText
 10
8944.0
 20
-6642.4
 30
0.0
 40
25.0
 71
5
  1
724
  7
HZ
  0
POINT
  5
38E
330
383
100
AcDbEntity
  8
Defpoints
100
AcDbPoint
 10
8582.0
 20
-6655.0
 30
0.0
  0
POINT
  5
38F
330
383
100
AcDbEntity
  8
Defpoints
100
AcDbPoint
 10
8582.0
 20
-6535.0
 30
0.0
  0
POINT
  5
390
330
383
100
AcDbEntity
  8
Defpoints
100
AcDbPoint
 10
9306.0
 20
-6535.0
 30
0.0
  0
ENDBLK
  5
385
330
383
100
AcDbEntity
  8
0
100
AcDbBlockEnd
  0
BLOCK
  5
39C
330
39B
100
AcDbEntity
  8
0
100
AcDbBlockBegin
  2
*D40
 70
1
 10
0.0
 20
0.0
 30
0.0
  3
*D40
  1

  0
LINE
  5
39E
330
39B
100
AcDbEntity
  8
0
100
AcDbLine
 10
9998.0
 20
-6535.0
 30
0.0
 11
9880.0
 21
-6535.0
 31
0.0
  0
LINE
  5
39F
330
39B
100
AcDbEntity
  8
0
100
AcDbLine
 10
9998.0
 20
-6008.0
 30
0.0
 11
9880.0
 21
-6008.0
 31
0.0
  0
INSERT
  5
3A0
330
39B
100
AcDbEntity
  8
0
 62
7
100
AcDbBlockReference
  2
_ARCHTICK
 10
9886.0
 20
-6535.0
 30
0.0
 41
18.0
 42
18.0
 50
270.0
  0
INSERT
  5
3A2
330
39B
100
AcDbEntity
  8
0
 62
7
100
AcDbBlockReference
  2
_ARCHTICK
 10
9886.0
 20
-6008.0
 30
0.0
 41
18.0
 42
18.0
 50
90.0
  0
LINE
  5
3A4
330
39B
100
AcDbEntity
  8
0
 62
7
100
AcDbLine
 10
9886.0
 20
-6535.0
 30
0.0
 11
9886.0
 21
-6008.0
 31
0.0
  0
MTEXT
  5
3A5
330
39B
100
AcDbEntity
  8
0
 62
7
100
AcDbMText
 10
9873.4
 20
-6271.5
 30
0.0
 40
25.0
 71
5
  1
527
  7
HZ
 50
90.0
  0
POINT
  5
3A6
330
39B
100
AcDbEntity
  8
Defpoints
100
AcDbPoint
 10
9886.0
 20
-6535.0
 30
0.0
  0
POINT
  5
3A7
330
39B
100
AcDbEntity
  8
Defpoints
100
AcDbPoint
 10
10006.0
 20
-6535.0
 30
0.0
  0
POINT
  5
3A8
330
39B
100
AcDbEntity
  8
Defpoints
100
AcDbPoint
 10
10006.0
 20
-6008.0
 30
0.0
  0
ENDBLK
  5
39D
330
39B
100
AcDbEntity
  8
0
100
AcDbBlockEnd
  0
BLOCK
  5
3AB
330
3AA
100
AcDbEntity
  8
0
100
AcDbBlockBegin
  2
*D41
 70
1
 10
0.0
 20
0.0
 30
0.0
  3
*D41
  1

  0
LINE
  5
3AD
330
3AA
100
AcDbEntity
  8
0
100
AcDbLine
 10
10006.0
 20
-6543.0
 30
0.0
 11
10006.0
 21
-6661.0
 31
0.0
  0
LINE
  5
3AE
330
3AA
100
AcDbEntity
  8
0
100
AcDbLine
 10
10730.0
 20
-6543.0
 30
0.0
 11
10730.0
 21
-6661.0
 31
0.0
  0
INSERT
  5
3AF
330
3AA
100
AcDbEntity
  8
0
 62
7
100
AcDbBlockReference
  2
_ARCHTICK
 10
10006.0
 20
-6655.0
 30
0.0
 41
18.0
 42
18.0
 50
180.0
  0
INSERT
  5
3B1
330
3AA
100
AcDbEntity
  8
0
 62
7
100
AcDbBlockReference
  2
_ARCHTICK
 10
10730.0
 20
-6655.0
 30
0.0
 41
18.0
 42
18.0
  0
LINE
  5
3B3
330
3AA
100
AcDbEntity
  8
0
 62
7
100
AcDbLine
 10
10006.0
 20
-6655.0
 30
0.0
 11
10730.0
 21
-6655.0
 31
0.0
  0
MTEXT
  5
3B4
330
3AA
100
AcDbEntity
  8
0
 62
7
100
AcDbMText
 10
10368.0
 20
-6642.4
 30
0.0
 40
25.0
 71
5
  1
724
  7
HZ
  0
POINT
  5
3B5
330
3AA
100
AcDbEntity
  8
Defpoints
100
AcDbPoint
 10
10006.0
 20
-6655.0
 30
0.0
  0
POINT
  5
3B6
330
3AA
100
AcDbEntity
  8
Defpoints
100
AcDbPoint
 10
10006.0
 20
-6535.0
 30
0.0
  0
POINT
  5
3B7
330
3AA
100
AcDbEntity
  8
Defpoints
100
AcDbPoint
 10
10730.0
 20
-6535.0
 30
0.0
  0
ENDBLK
  5
3AC
330
3AA
100
AcDbEntity
  8
0
100
AcDbBlockEnd
  0
BLOCK
  5
3C3
330
3C2
100
AcDbEntity
  8
0
100
AcDbBlockBegin
  2
*D42
 70
1
 10
0.0
 20
0.0
 30
0.0
  3
*D42
  1

  0
LINE
  5
3C5
330
3C2
100
AcDbEntity
  8
0
100
AcDbLine
 10
4592.0
 20
-8132.0
 30
0.0
 11
4474.0
 21
-8132.0
 31
0.0
  0
LINE
  5
3C6
330
3C2
100
AcDbEntity
  8
0
100
AcDbLine
 10
4592.0
 20
-7632.0
 30
0.0
 11
4474.0
 21
-7632.0
 31
0.0
  0
INSERT
  5
3C7
330
3C2
100
AcDbEntity
  8
0
 62
7
100
AcDbBlockReference
  2
_ARCHTICK
 10
4480.0
 20
-8132.0
 30
0.0
 41
18.0
 42
18.0
 50
270.0
  0
INSERT
  5
3C9
330
3C2
100
AcDbEntity
  8
0
 62
7
100
AcDbBlockReference
  2
_ARCHTICK
 10
4480.0
 20
-7632.0
 30
0.0
 41
18.0
 42
18.0
 50
90.0
  0
LINE
  5
3CB
330
3C2
100
AcDbEntity
  8
0
 62
7
100
AcDbLine
 10
4480.0
 20
-8132.0
 30
0.0
 11
4480.0
 21
-7632.0
 31
0.0
  0
MTEXT
  5
3CC
330
3C2
100
AcDbEntity
  8
0
 62
7
100
AcDbMText
 10
4467.4
 20
-7882.0
 30
0.0
 40
25.0
 71
5
  1
500
  7
HZ
 50
90.0
  0
POINT
  5
3CD
330
3C2
100
AcDbEntity
  8
Defpoints
100
AcDbPoint
 10
4480.0
 20
-8132.0
 30
0.0
  0
POINT
  5
3CE
330
3C2
100
AcDbEntity
  8
Defpoints
100
AcDbPoint
 10
4600.0
 20
-8132.0
 30
0.0
  0
POINT
  5
3CF
330
3C2
100
AcDbEntity
  8
Defpoints
100
AcDbPoint
 10
4600.0
 20
-7632.0
 30
0.0
  0
ENDBLK
  5
3C4
330
3C2
100
AcDbEntity
  8
0
100
AcDbBlockEnd
  0
BLOCK
  5
3D2
330
3D1
100
AcDbEntity
  8
0
100
AcDbBlockBegin
  2
*D43
 70
1
 10
0.0
 20
0.0
 30
0.0
  3
*D43
  1

  0
LINE
  5
3D4
330
3D1
100
AcDbEntity
  8
0
100
AcDbLine
 10
4600.0
 20
-8140.0
 30
0.0
 11
4600.0
 21
-8258.0
 31
0.0
  0
LINE
  5
3D5
330
3D1
100
AcDbEntity
  8
0
100
AcDbLine
 10
5326.0
 20
-8140.0
 30
0.0
 11
5326.0
 21
-8258.0
 31
0.0
  0
INSERT
  5
3D6
330
3D1
100
AcDbEntity
  8
0
 62
7
100
AcDbBlockReference
  2
_ARCHTICK
 10
4600.0
 20
-8252.0
 30
0.0
 41
18.0
 42
18.0
 50
180.0
  0
INSERT
  5
3D8
330
3D1
100
AcDbEntity
  8
0
 62
7
100
AcDbBlockReference
  2
_ARCHTICK
 10
5326.0
 20
-8252.0
 30
0.0
 41
18.0
 42
18.0
  0
LINE
  5
3DA
330
3D1
100
AcDbEntity
  8
0
 62
7
100
AcDbLine
 10
4600.0
 20
-8252.0
 30
0.0
 11
5326.0
 21
-8252.0
 31
0.0
  0
MTEXT
  5
3DB
330
3D1
100
AcDbEntity
  8
0
 62
7
100
AcDbMText
 10
4963.0
 20
-8239.4
 30
0.0
 40
25.0
 71
5
  1
726
  7
HZ
  0
POINT
  5
3DC
330
3D1
100
AcDbEntity
  8
Defpoints
100
AcDbPoint
 10
4600.0
 20
-8252.0
 30
0.0
  0
POINT
  5
3DD
330
3D1
100
AcDbEntity
  8
Defpoints
100
AcDbPoint
 10
4600.0
 20
-8132.0
 30
0.0
  0
POINT
  5
3DE
330
3D1
100
AcDbEntity
  8
Defpoints
100
AcDbPoint
 10
5326.0
 20
-8132.0
 30
0.0
  0
ENDBLK
  5
3D3
330
3D1
100
AcDbEntity
  8
0
100
AcDbBlockEnd
  0
BLOCK
  5
3EA
330
3E9
100
AcDbEntity
  8
0
100
AcDbBlockBegin
  2
*D44
 70
1
 10
0.0
 20
0.0
 30
0.0
  3
*D44
  1

  0
LINE
  5
3EC
330
3E9
100
AcDbEntity
  8
0
100
AcDbLine
 10
6018.0
 20
-8132.0
 30
0.0
 11
5900.0
 21
-8132.0
 31
0.0
  0
LINE
  5
3ED
330
3E9
100
AcDbEntity
  8
0
100
AcDbLine
 10
6018.0
 20
-7632.0
 30
0.0
 11
5900.0
 21
-7632.0
 31
0.0
  0
INSERT
  5
3EE
330
3E9
100
AcDbEntity
  8
0
 62
7
100
AcDbBlockReference
  2
_ARCHTICK
 10
5906.0
 20
-8132.0
 30
0.0
 41
18.0
 42
18.0
 50
270.0
  0
INSERT
  5
3F0
330
3E9
100
AcDbEntity
  8
0
 62
7
100
AcDbBlockReference
  2
_ARCHTICK
 10
5906.0
 20
-7632.0
 30
0.0
 41
18.0
 42
18.0
 50
90.0
  0
LINE
  5
3F2
330
3E9
100
AcDbEntity
  8
0
 62
7
100
AcDbLine
 10
5906.0
 20
-8132.0
 30
0.0
 11
5906.0
 21
-7632.0
 31
0.0
  0
MTEXT
  5
3F3
330
3E9
100
AcDbEntity
  8
0
 62
7
100
AcDbMText
 10
5893.4
 20
-7882.0
 30
0.0
 40
25.0
 71
5
  1
500
  7
HZ
 50
90.0
  0
POINT
  5
3F4
330
3E9
100
AcDbEntity
  8
Defpoints
100
AcDbPoint
 10
5906.0
 20
-8132.0
 30
0.0
  0
POINT
  5
3F5
330
3E9
100
AcDbEntity
  8
Defpoints
100
AcDbPoint
 10
6026.0
 20
-8132.0
 30
0.0
  0
POINT
  5
3F6
330
3E9
100
AcDbEntity
  8
Defpoints
100
AcDbPoint
 10
6026.0
 20
-7632.0
 30
0.0
  0
ENDBLK
  5
3EB
330
3E9
100
AcDbEntity
  8
0
100
AcDbBlockEnd
  0
BLOCK
  5
3F9
330
3F8
100
AcDbEntity
  8
0
100
AcDbBlockBegin
  2
*D45
 70
1
 10
0.0
 20
0.0
 30
0.0
  3
*D45
  1

  0
LINE
  5
3FB
330
3F8
100
AcDbEntity
  8
0
100
AcDbLine
 10
6026.0
 20
-8140.0
 30
0.0
 11
6026.0
 21
-8258.0
 31
0.0
  0
LINE
  5
3FC
330
3F8
100
AcDbEntity
  8
0
100
AcDbLine
 10
6750.0
 20
-8140.0
 30
0.0
 11
6750.0
 21
-8258.0
 31
0.0
  0
INSERT
  5
3FD
330
3F8
100
AcDbEntity
  8
0
 62
7
100
AcDbBlockReference
  2
_ARCHTICK
 10
6026.0
 20
-8252.0
 30
0.0
 41
18.0
 42
18.0
 50
180.0
  0
INSERT
  5
3FF
330
3F8
100
AcDbEntity
  8
0
 62
7
100
AcDbBlockReference
  2
_ARCHTICK
 10
6750.0
 20
-8252.0
 30
0.0
 41
18.0
 42
18.0
  0
LINE
  5
401
330
3F8
100
AcDbEntity
  8
0
 62
7
100
AcDbLine
 10
6026.0
 20
-8252.0
 30
0.0
 11
6750.0
 21
-8252.0
 31
0.0
  0
MTEXT
  5
402
330
3F8
100
AcDbEntity
  8
0
 62
7
100
AcDbMText
 10
6388.0
 20
-8239.4
 30
0.0
 40
25.0
 71
5
  1
724
  7
HZ
  0
POINT
  5
403
330
3F8
100
AcDbEntity
  8
Defpoints
100
AcDbPoint
 10
6026.0
 20
-8252.0
 30
0.0
  0
POINT
  5
404
330
3F8
100
AcDbEntity
  8
Defpoints
100
AcDbPoint
 10
6026.0
 20
-8132.0
 30
0.0
  0
POINT
  5
405
330
3F8
100
AcDbEntity
  8
Defpoints
100
AcDbPoint
 10
6750.0
 20
-8132.0
 30
0.0
  0
ENDBLK
  5
3FA
330
3F8
100
AcDbEntity
  8
0
100
AcDbBlockEnd
  0
BLOCK
  5
411
330
410
100
AcDbEntity
  8
0
100
AcDbBlockBegin
  2
*D46
 70
1
 10
0.0
 20
0.0
 30
0.0
  3
*D46
  1

  0
LINE
  5
413
330
410
100
AcDbEntity
  8
0
100
AcDbLine
 10
7442.0
 20
-8132.0
 30
0.0
 11
7324.0
 21
-8132.0
 31
0.0
  0
LINE
  5
414
330
410
100
AcDbEntity
  8
0
100
AcDbLine
 10
7442.0
 20
-7632.0
 30
0.0
 11
7324.0
 21
-7632.0
 31
0.0
  0
INSERT
  5
415
330
410
100
AcDbEntity
  8
0
 62
7
100
AcDbBlockReference
  2
_ARCHTICK
 10
7330.0
 20
-8132.0
 30
0.0
 41
18.0
 42
18.0
 50
270.0
  0
INSERT
  5
417
330
410
100
AcDbEntity
  8
0
 62
7
100
AcDbBlockReference
  2
_ARCHTICK
 10
7330.0
 20
-7632.0
 30
0.0
 41
18.0
 42
18.0
 50
90.0
  0
LINE
  5
419
330
410
100
AcDbEntity
  8
0
 62
7
100
AcDbLine
 10
7330.0
 20
-8132.0
 30
0.0
 11
7330.0
 21
-7632.0
 31
0.0
  0
MTEXT
  5
41A
330
410
100
AcDbEntity
  8
0
 62
7
100
AcDbMText
 10
7317.4
 20
-7882.0
 30
0.0
 40
25.0
 71
5
  1
500
  7
HZ
 50
90.0
  0
POINT
  5
41B
330
410
100
AcDbEntity
  8
Defpoints
100
AcDbPoint
 10
7330.0
 20
-8132.0
 30
0.0
  0
POINT
  5
41C
330
410
100
AcDbEntity
  8
Defpoints
100
AcDbPoint
 10
7450.0
 20
-8132.0
 30
0.0
  0
POINT
  5
41D
330
410
100
AcDbEntity
  8
Defpoints
100
AcDbPoint
 10
7450.0
 20
-7632.0
 30
0.0
  0
ENDBLK
  5
412
330
410
100
AcDbEntity
  8
0
100
AcDbBlockEnd
  0
BLOCK
  5
420
330
41F
100
AcDbEntity
  8
0
100
AcDbBlockBegin
  2
*D47
 70
1
 10
0.0
 20
0.0
 30
0.0
  3
*D47
  1

  0
LINE
  5
422
330
41F
100
AcDbEntity
  8
0
100
AcDbLine
 10
7450.0
 20
-8140.0
 30
0.0
 11
7450.0
 21
-8258.0
 31
0.0
  0
LINE
  5
423
330
41F
100
AcDbEntity
  8
0
100
AcDbLine
 10
8174.0
 20
-8140.0
 30
0.0
 11
8174.0
 21
-8258.0
 31
0.0
  0
INSERT
  5
424
330
41F
100
AcDbEntity
  8
0
 62
7
100
AcDbBlockReference
  2
_ARCHTICK
 10
7450.0
 20
-8252.0
 30
0.0
 41
18.0
 42
18.0
 50
180.0
  0
INSERT
  5
426
330
41F
100
AcDbEntity
  8
0
 62
7
100
AcDbBlockReference
  2
_ARCHTICK
 10
8174.0
 20
-8252.0
 30
0.0
 41
18.0
 42
18.0
  0
LINE
  5
428
330
41F
100
AcDbEntity
  8
0
 62
7
100
AcDbLine
 10
7450.0
 20
-8252.0
 30
0.0
 11
8174.0
 21
-8252.0
 31
0.0
  0
MTEXT
  5
429
330
41F
100
AcDbEntity
  8
0
 62
7
100
AcDbMText
 10
7812.0
 20
-8239.4
 30
0.0
 40
25.0
 71
5
  1
724
  7
HZ
  0
POINT
  5
42A
330
41F
100
AcDbEntity
  8
Defpoints
100
AcDbPoint
 10
7450.0
 20
-8252.0
 30
0.0
  0
POINT
  5
42B
330
41F
100
AcDbEntity
  8
Defpoints
100
AcDbPoint
 10
7450.0
 20
-8132.0
 30
0.0
  0
POINT
  5
42C
330
41F
100
AcDbEntity
  8
Defpoints
100
AcDbPoint
 10
8174.0
 20
-8132.0
 30
0.0
  0
ENDBLK
  5
421
330
41F
100
AcDbEntity
  8
0
100
AcDbBlockEnd
  0
BLOCK
  5
439
330
438
100
AcDbEntity
  8
0
100
AcDbBlockBegin
  2
*D48
 70
1
 10
0.0
 20
0.0
 30
0.0
  3
*D48
  1

  0
LINE
  5
43B
330
438
100
AcDbEntity
  8
0
100
AcDbLine
 10
8866.0
 20
-8213.0
 30
0.0
 11
8748.0
 21
-8213.0
 31
0.0
  0
LINE
  5
43C
330
438
100
AcDbEntity
  8
0
100
AcDbLine
 10
8866.0
 20
-7632.0
 30
0.0
 11
8748.0
 21
-7632.0
 31
0.0
  0
INSERT
  5
43D
330
438
100
AcDbEntity
  8
0
 62
7
100
AcDbBlockReference
  2
_ARCHTICK
 10
8754.0
 20
-8213.0
 30
0.0
 41
18.0
 42
18.0
 50
270.0
  0
INSERT
  5
43F
330
438
100
AcDbEntity
  8
0
 62
7
100
AcDbBlockReference
  2
_ARCHTICK
 10
8754.0
 20
-7632.0
 30
0.0
 41
18.0
 42
18.0
 50
90.0
  0
LINE
  5
441
330
438
100
AcDbEntity
  8
0
 62
7
100
AcDbLine
 10
8754.0
 20
-8213.0
 30
0.0
 11
8754.0
 21
-7632.0
 31
0.0
  0
MTEXT
  5
442
330
438
100
AcDbEntity
  8
0
 62
7
100
AcDbMText
 10
8741.4
 20
-7922.5
 30
0.0
 40
25.0
 71
5
  1
581
  7
HZ
 50
90.0
  0
POINT
  5
443
330
438
100
AcDbEntity
  8
Defpoints
100
AcDbPoint
 10
8754.0
 20
-8213.0
 30
0.0
  0
POINT
  5
444
330
438
100
AcDbEntity
  8
Defpoints
100
AcDbPoint
 10
8874.0
 20
-8213.0
 30
0.0
  0
POINT
  5
445
330
438
100
AcDbEntity
  8
Defpoints
100
AcDbPoint
 10
8874.0
 20
-7632.0
 30
0.0
  0
ENDBLK
  5
43A
330
438
100
AcDbEntity
  8
0
100
AcDbBlockEnd
  0
BLOCK
  5
448
330
447
100
AcDbEntity
  8
0
100
AcDbBlockBegin
  2
*D49
 70
1
 10
0.0
 20
0.0
 30
0.0
  3
*D49
  1

  0
LINE
  5
44A
330
447
100
AcDbEntity
  8
0
100
AcDbLine
 10
8874.0
 20
-8221.0
 30
0.0
 11
8874.0
 21
-8339.0
 31
0.0
  0
LINE
  5
44B
330
447
100
AcDbEntity
  8
0
100
AcDbLine
 10
9444.0
 20
-8221.0
 30
0.0
 11
9444.0
 21
-8339.0
 31
0.0
  0
INSERT
  5
44C
330
447
100
AcDbEntity
  8
0
 62
7
100
AcDbBlockReference
  2
_ARCHTICK
 10
8874.0
 20
-8333.0
 30
0.0
 41
18.0
 42
18.0
 50
180.0
  0
INSERT
  5
44E
330
447
100
AcDbEntity
  8
0
 62
7
100
AcDbBlockReference
  2
_ARCHTICK
 10
9444.0
 20
-8333.0
 30
0.0
 41
18.0
 42
18.0
  0
LINE
  5
450
330
447
100
AcDbEntity
  8
0
 62
7
100
AcDbLine
 10
8874.0
 20
-8333.0
 30
0.0
 11
9444.0
 21
-8333.0
 31
0.0
  0
MTEXT
  5
451
330
447
100
AcDbEntity
  8
0
 62
7
100
AcDbMText
 10
9159.0
 20
-8320.4
 30
0.0
 40
25.0
 71
5
  1
570
  7
HZ
  0
POINT
  5
452
330
447
100
AcDbEntity
  8
Defpoints
100
AcDbPoint
 10
8874.0
 20
-8333.0
 30
0.0
  0
POINT
  5
453
330
447
100
AcDbEntity
  8
Defpoints
100
AcDbPoint
 10
8874.0
 20
-8213.0
 30
0.0
  0
POINT
  5
454
330
447
100
AcDbEntity
  8
Defpoints
100
AcDbPoint
 10
9444.0
 20
-8213.0
 30
0.0
  0
ENDBLK
  5
449
330
447
100
AcDbEntity
  8
0
100
AcDbBlockEnd
  0
BLOCK
  5
461
330
460
100
AcDbEntity
  8
0
100
AcDbBlockBegin
  2
*D50
 70
1
 10
0.0
 20
0.0
 30
0.0
  3
*D50
  1

  0
LINE
  5
463
330
460
100
AcDbEntity
  8
0
100
AcDbLine
 10
10136.0
 20
-8213.0
 30
0.0
 11
10018.0
 21
-8213.0
 31
0.0
  0
LINE
  5
464
330
460
100
AcDbEntity
  8
0
100
AcDbLine
 10
10136.0
 20
-7632.0
 30
0.0
 11
10018.0
 21
-7632.0
 31
0.0
  0
INSERT
  5
465
330
460
100
AcDbEntity
  8
0
 62
7
100
AcDbBlockReference
  2
_ARCHTICK
 10
10024.0
 20
-8213.0
 30
0.0
 41
18.0
 42
18.0
 50
270.0
  0
INSERT
  5
467
330
460
100
AcDbEntity
  8
0
 62
7
100
AcDbBlockReference
  2
_ARCHTICK
 10
10024.0
 20
-7632.0
 30
0.0
 41
18.0
 42
18.0
 50
90.0
  0
LINE
  5
469
330
460
100
AcDbEntity
  8
0
 62
7
100
AcDbLine
 10
10024.0
 20
-8213.0
 30
0.0
 11
10024.0
 21
-7632.0
 31
0.0
  0
MTEXT
  5
46A
330
460
100
AcDbEntity
  8
0
 62
7
100
AcDbMText
 10
10011.4
 20
-7922.5
 30
0.0
 40
25.0
 71
5
  1
581
  7
HZ
 50
90.0
  0
POINT
  5
46B
330
460
100
AcDbEntity
  8
Defpoints
100
AcDbPoint
 10
10024.0
 20
-8213.0
 30
0.0
  0
POINT
  5
46C
330
460
100
AcDbEntity
  8
Defpoints
100
AcDbPoint
 10
10144.0
 20
-8213.0
 30
0.0
  0
POINT
  5
46D
330
460
100
AcDbEntity
  8
Defpoints
100
AcDbPoint
 10
10144.0
 20
-7632.0
 30
0.0
  0
ENDBLK
  5
462
330
460
100
AcDbEntity
  8
0
100
AcDbBlockEnd
  0
BLOCK
  5
470
330
46F
100
AcDbEntity
  8
0
100
AcDbBlockBegin
  2
*D51
 70
1
 10
0.0
 20
0.0
 30
0.0
  3
*D51
  1

  0
LINE
  5
472
330
46F
100
AcDbEntity
  8
0
100
AcDbLine
 10
10144.0
 20
-8221.0
 30
0.0
 11
10144.0
 21
-8339.0
 31
0.0
  0
LINE
  5
473
330
46F
100
AcDbEntity
  8
0
100
AcDbLine
 10
10714.0
 20
-8221.0
 30
0.0
 11
10714.0
 21
-8339.0
 31
0.0
  0
INSERT
  5
474
330
46F
100
AcDbEntity
  8
0
 62
7
100
AcDbBlockReference
  2
_ARCHTICK
 10
10144.0
 20
-8333.0
 30
0.0
 41
18.0
 42
18.0
 50
180.0
  0
INSERT
  5
476
330
46F
100
AcDbEntity
  8
0
 62
7
100
AcDbBlockReference
  2
_ARCHTICK
 10
10714.0
 20
-8333.0
 30
0.0
 41
18.0
 42
18.0
  0
LINE
  5
478
330
46F
100
AcDbEntity
  8
0
 62
7
100
AcDbLine
 10
10144.0
 20
-8333.0
 30
0.0
 11
10714.0
 21
-8333.0
 31
0.0
  0
MTEXT
  5
479
330
46F
100
AcDbEntity
  8
0
 62
7
100
AcDbMText
 10
10429.0
 20
-8320.4
 30
0.0
 40
25.0
 71
5
  1
570
  7
HZ
  0
POINT
  5
47A
330
46F
100
AcDbEntity
  8
Defpoints
100
AcDbPoint
 10
10144.0
 20
-8333.0
 30
0.0
  0
POINT
  5
47B
330
46F
100
AcDbEntity
  8
Defpoints
100
AcDbPoint
 10
10144.0
 20
-8213.0
 30
0.0
  0
POINT
  5
47C
330
46F
100
AcDbEntity
  8
Defpoints
100
AcDbPoint
 10
10714.0
 20
-8213.0
 30
0.0
  0
ENDBLK
  5
471
330
46F
100
AcDbEntity
  8
0
100
AcDbBlockEnd
  0
BLOCK
  5
489
330
488
100
AcDbEntity
  8
0
100
AcDbBlockBegin
  2
*D52
 70
1
 10
0.0
 20
0.0
 30
0.0
  3
*D52
  1

  0
LINE
  5
48B
330
488
100
AcDbEntity
  8
0
100
AcDbLine
 10
4592.0
 20
-9664.0
 30
0.0
 11
4474.0
 21
-9664.0
 31
0.0
  0
LINE
  5
48C
330
488
100
AcDbEntity
  8
0
100
AcDbLine
 10
4592.0
 20
-9083.0
 30
0.0
 11
4474.0
 21
-9083.0
 31
0.0
  0
INSERT
  5
48D
330
488
100
AcDbEntity
  8
0
 62
7
100
AcDbBlockReference
  2
_ARCHTICK
 10
4480.0
 20
-9664.0
 30
0.0
 41
18.0
 42
18.0
 50
270.0
  0
INSERT
  5
48F
330
488
100
AcDbEntity
  8
0
 62
7
100
AcDbBlockReference
  2
_ARCHTICK
 10
4480.0
 20
-9083.0
 30
0.0
 41
18.0
 42
18.0
 50
90.0
  0
LINE
  5
491
330
488
100
AcDbEntity
  8
0
 62
7
100
AcDbLine
 10
4480.0
 20
-9664.0
 30
0.0
 11
4480.0
 21
-9083.0
 31
0.0
  0
MTEXT
  5
492
330
488
100
AcDbEntity
  8
0
 62
7
100
AcDbMText
 10
4467.4
 20
-9373.5
 30
0.0
 40
25.0
 71
5
  1
581
  7
HZ
 50
90.0
  0
POINT
  5
493
330
488
100
AcDbEntity
  8
Defpoints
100
AcDbPoint
 10
4480.0
 20
-9664.0
 30
0.0
  0
POINT
  5
494
330
488
100
AcDbEntity
  8
Defpoints
100
AcDbPoint
 10
4600.0
 20
-9664.0
 30
0.0
  0
POINT
  5
495
330
488
100
AcDbEntity
  8
Defpoints
100
AcDbPoint
 10
4600.0
 20
-9083.0
 30
0.0
  0
ENDBLK
  5
48A
330
488
100
AcDbEntity
  8
0
100
AcDbBlockEnd
  0
BLOCK
  5
498
330
497
100
AcDbEntity
  8
0
100
AcDbBlockBegin
  2
*D53
 70
1
 10
0.0
 20
0.0
 30
0.0
  3
*D53
  1

  0
LINE
  5
49A
330
497
100
AcDbEntity
  8
0
100
AcDbLine
 10
4600.0
 20
-9672.0
 30
0.0
 11
4600.0
 21
-9790.0
 31
0.0
  0
LINE
  5
49B
330
497
100
AcDbEntity
  8
0
100
AcDbLine
 10
5170.0
 20
-9672.0
 30
0.0
 11
5170.0
 21
-9790.0
 31
0.0
  0
INSERT
  5
49C
330
497
100
AcDbEntity
  8
0
 62
7
100
AcDbBlockReference
  2
_ARCHTICK
 10
4600.0
 20
-9784.0
 30
0.0
 41
18.0
 42
18.0
 50
180.0
  0
INSERT
  5
49E
330
497
100
AcDbEntity
  8
0
 62
7
100
AcDbBlockReference
  2
_ARCHTICK
 10
5170.0
 20
-9784.0
 30
0.0
 41
18.0
 42
18.0
  0
LINE
  5
4A0
330
497
100
AcDbEntity
  8
0
 62
7
100
AcDbLine
 10
4600.0
 20
-9784.0
 30
0.0
 11
5170.0
 21
-9784.0
 31
0.0
  0
MTEXT
  5
4A1
330
497
100
AcDbEntity
  8
0
 62
7
100
AcDbMText
 10
4885.0
 20
-9771.4
 30
0.0
 40
25.0
 71
5
  1
570
  7
HZ
  0
POINT
  5
4A2
330
497
100
AcDbEntity
  8
Defpoints
100
AcDbPoint
 10
4600.0
 20
-9784.0
 30
0.0
  0
POINT
  5
4A3
330
497
100
AcDbEntity
  8
Defpoints
100
AcDbPoint
 10
4600.0
 20
-9664.0
 30
0.0
  0
POINT
  5
4A4
330
497
100
AcDbEntity
  8
Defpoints
100
AcDbPoint
 10
5170.0
 20
-9664.0
 30
0.0
  0
ENDBLK
  5
499
330
497
100
AcDbEntity
  8
0
100
AcDbBlockEnd
  0
BLOCK
  5
4B1
330
4B0
100
AcDbEntity
  8
0
100
AcDbBlockBegin
  2
*D54
 70
1
 10
0.0
 20
0.0
 30
0.0
  3
*D54
  1

  0
LINE
  5
4B3
330
4B0
100
AcDbEntity
  8
0
100
AcDbLine
 10
5862.0
 20
-9664.0
 30
0.0
 11
5744.0
 21
-9664.0
 31
0.0
  0
LINE
  5
4B4
330
4B0
100
AcDbEntity
  8
0
100
AcDbLine
 10
5862.0
 20
-9083.0
 30
0.0
 11
5744.0
 21
-9083.0
 31
0.0
  0
INSERT
  5
4B5
330
4B0
100
AcDbEntity
  8
0
 62
7
100
AcDbBlockReference
  2
_ARCHTICK
 10
5750.0
 20
-9664.0
 30
0.0
 41
18.0
 42
18.0
 50
270.0
  0
INSERT
  5
4B7
330
4B0
100
AcDbEntity
  8
0
 62
7
100
AcDbBlockReference
  2
_ARCHTICK
 10
5750.0
 20
-9083.0
 30
0.0
 41
18.0
 42
18.0
 50
90.0
  0
LINE
  5
4B9
330
4B0
100
AcDbEntity
  8
0
 62
7
100
AcDbLine
 10
5750.0
 20
-9664.0
 30
0.0
 11
5750.0
 21
-9083.0
 31
0.0
  0
MTEXT
  5
4BA
330
4B0
100
AcDbEntity
  8
0
 62
7
100
AcDbMText
 10
5737.4
 20
-9373.5
 30
0.0
 40
25.0
 71
5
  1
581
  7
HZ
 50
90.0
  0
POINT
  5
4BB
330
4B0
100
AcDbEntity
  8
Defpoints
100
AcDbPoint
 10
5750.0
 20
-9664.0
 30
0.0
  0
POINT
  5
4BC
330
4B0
100
AcDbEntity
  8
Defpoints
100
AcDbPoint
 10
5870.0
 20
-9664.0
 30
0.0
  0
POINT
  5
4BD
330
4B0
100
AcDbEntity
  8
Defpoints
100
AcDbPoint
 10
5870.0
 20
-9083.0
 30
0.0
  0
ENDBLK
  5
4B2
330
4B0
100
AcDbEntity
  8
0
100
AcDbBlockEnd
  0
BLOCK
  5
4C0
330
4BF
100
AcDbEntity
  8
0
100
AcDbBlockBegin
  2
*D55
 70
1
 10
0.0
 20
0.0
 30
0.0
  3
*D55
  1

  0
LINE
  5
4C2
330
4BF
100
AcDbEntity
  8
0
100
AcDbLine
 10
5870.0
 20
-9672.0
 30
0.0
 11
5870.0
 21
-9790.0
 31
0.0
  0
LINE
  5
4C3
330
4BF
100
AcDbEntity
  8
0
100
AcDbLine
 10
6440.0
 20
-9672.0
 30
0.0
 11
6440.0
 21
-9790.0
 31
0.0
  0
INSERT
  5
4C4
330
4BF
100
AcDbEntity
  8
0
 62
7
100
AcDbBlockReference
  2
_ARCHTICK
 10
5870.0
 20
-9784.0
 30
0.0
 41
18.0
 42
18.0
 50
180.0
  0
INSERT
  5
4C6
330
4BF
100
AcDbEntity
  8
0
 62
7
100
AcDbBlockReference
  2
_ARCHTICK
 10
6440.0
 20
-9784.0
 30
0.0
 41
18.0
 42
18.0
  0
LINE
  5
4C8
330
4BF
100
AcDbEntity
  8
0
 62
7
100
AcDbLine
 10
5870.0
 20
-9784.0
 30
0.0
 11
6440.0
 21
-9784.0
 31
0.0
  0
MTEXT
  5
4C9
330
4BF
100
AcDbEntity
  8
0
 62
7
100
AcDbMText
 10
6155.0
 20
-9771.4
 30
0.0
 40
25.0
 71
5
  1
570
  7
HZ
  0
POINT
  5
4CA
330
4BF
100
AcDbEntity
  8
Defpoints
100
AcDbPoint
 10
5870.0
 20
-9784.0
 30
0.0
  0
POINT
  5
4CB
330
4BF
100
AcDbEntity
  8
Defpoints
100
AcDbPoint
 10
5870.0
 20
-9664.0
 30
0.0
  0
POINT
  5
4CC
330
4BF
100
AcDbEntity
  8
Defpoints
100
AcDbPoint
 10
6440.0
 20
-9664.0
 30
0.0
  0
ENDBLK
  5
4C1
330
4BF
100
AcDbEntity
  8
0
100
AcDbBlockEnd
  0
BLOCK
  5
4D7
330
4D6
100
AcDbEntity
  8
0
100
AcDbBlockBegin
  2
*D56
 70
1
 10
0.0
 20
0.0
 30
0.0
  3
*D56
  1

  0
LINE
  5
4D9
330
4D6
100
AcDbEntity
  8
0
100
AcDbLine
 10
7132.0
 20
-9594.0
 30
0.0
 11
7014.0
 21
-9594.0
 31
0.0
  0
LINE
  5
4DA
330
4D6
100
AcDbEntity
  8
0
100
AcDbLine
 10
7132.0
 20
-9083.0
 30
0.0
 11
7014.0
 21
-9083.0
 31
0.0
  0
INSERT
  5
4DB
330
4D6
100
AcDbEntity
  8
0
 62
7
100
AcDbBlockReference
  2
_ARCHTICK
 10
7020.0
 20
-9594.0
 30
0.0
 41
18.0
 42
18.0
 50
270.0
  0
INSERT
  5
4DD
330
4D6
100
AcDbEntity
  8
0
 62
7
100
AcDbBlockReference
  2
_ARCHTICK
 10
7020.0
 20
-9083.0
 30
0.0
 41
18.0
 42
18.0
 50
90.0
  0
LINE
  5
4DF
330
4D6
100
AcDbEntity
  8
0
 62
7
100
AcDbLine
 10
7020.0
 20
-9594.0
 30
0.0
 11
7020.0
 21
-9083.0
 31
0.0
  0
MTEXT
  5
4E0
330
4D6
100
AcDbEntity
  8
0
 62
7
100
AcDbMText
 10
7007.4
 20
-9338.5
 30
0.0
 40
25.0
 71
5
  1
511
  7
HZ
 50
90.0
  0
POINT
  5
4E1
330
4D6
100
AcDbEntity
  8
Defpoints
100
AcDbPoint
 10
7020.0
 20
-9594.0
 30
0.0
  0
POINT
  5
4E2
330
4D6
100
AcDbEntity
  8
Defpoints
100
AcDbPoint
 10
7140.0
 20
-9594.0
 30
0.0
  0
POINT
  5
4E3
330
4D6
100
AcDbEntity
  8
Defpoints
100
AcDbPoint
 10
7140.0
 20
-9083.0
 30
0.0
  0
ENDBLK
  5
4D8
330
4D6
100
AcDbEntity
  8
0
100
AcDbBlockEnd
  0
BLOCK
  5
4E6
330
4E5
100
AcDbEntity
  8
0
100
AcDbBlockBegin
  2
*D57
 70
1
 10
0.0
 20
0.0
 30
0.0
  3
*D57
  1

  0
LINE
  5
4E8
330
4E5
100
AcDbEntity
  8
0
100
AcDbLine
 10
7140.0
 20
-9602.0
 30
0.0
 11
7140.0
 21
-9720.0
 31
0.0
  0
LINE
  5
4E9
330
4E5
100
AcDbEntity
  8
0
100
AcDbLine
 10
7678.0
 20
-9602.0
 30
0.0
 11
7678.0
 21
-9720.0
 31
0.0
  0
INSERT
  5
4EA
330
4E5
100
AcDbEntity
  8
0
 62
7
100
AcDbBlockReference
  2
_ARCHTICK
 10
7140.0
 20
-9714.0
 30
0.0
 41
18.0
 42
18.0
 50
180.0
  0
INSERT
  5
4EC
330
4E5
100
AcDbEntity
  8
0
 62
7
100
AcDbBlockReference
  2
_ARCHTICK
 10
7678.0
 20
-9714.0
 30
0.0
 41
18.0
 42
18.0
  0
LINE
  5
4EE
330
4E5
100
AcDbEntity
  8
0
 62
7
100
AcDbLine
 10
7140.0
 20
-9714.0
 30
0.0
 11
7678.0
 21
-9714.0
 31
0.0
  0
MTEXT
  5
4EF
330
4E5
100
AcDbEntity
  8
0
 62
7
100
AcDbMText
 10
7409.0
 20
-9701.4
 30
0.0
 40
25.0
 71
5
  1
538
  7
HZ
  0
POINT
  5
4F0
330
4E5
100
AcDbEntity
  8
Defpoints
100
AcDbPoint
 10
7140.0
 20
-9714.0
 30
0.0
  0
POINT
  5
4F1
330
4E5
100
AcDbEntity
  8
Defpoints
100
AcDbPoint
 10
7140.0
 20
-9594.0
 30
0.0
  0
POINT
  5
4F2
330
4E5
100
AcDbEntity
  8
Defpoints
100
AcDbPoint
 10
7678.0
 20
-9594.0
 30
0.0
  0
ENDBLK
  5
4E7
330
4E5
100
AcDbEntity
  8
0
100
AcDbBlockEnd
  0
BLOCK
  5
4FD
330
4FC
100
AcDbEntity
  8
0
100
AcDbBlockBegin
  2
*D58
 70
1
 10
0.0
 20
0.0
 30
0.0
  3
*D58
  1

  0
LINE
  5
4FF
330
4FC
100
AcDbEntity
  8
0
100
AcDbLine
 10
8370.0
 20
-9594.0
 30
0.0
 11
8252.0
 21
-9594.0
 31
0.0
  0
LINE
  5
500
330
4FC
100
AcDbEntity
  8
0
100
AcDbLine
 10
8370.0
 20
-9083.0
 30
0.0
 11
8252.0
 21
-9083.0
 31
0.0
  0
INSERT
  5
501
330
4FC
100
AcDbEntity
  8
0
 62
7
100
AcDbBlockReference
  2
_ARCHTICK
 10
8258.0
 20
-9594.0
 30
0.0
 41
18.0
 42
18.0
 50
270.0
  0
INSERT
  5
503
330
4FC
100
AcDbEntity
  8
0
 62
7
100
AcDbBlockReference
  2
_ARCHTICK
 10
8258.0
 20
-9083.0
 30
0.0
 41
18.0
 42
18.0
 50
90.0
  0
LINE
  5
505
330
4FC
100
AcDbEntity
  8
0
 62
7
100
AcDbLine
 10
8258.0
 20
-9594.0
 30
0.0
 11
8258.0
 21
-9083.0
 31
0.0
  0
MTEXT
  5
506
330
4FC
100
AcDbEntity
  8
0
 62
7
100
AcDbMText
 10
8245.4
 20
-9338.5
 30
0.0
 40
25.0
 71
5
  1
511
  7
HZ
 50
90.0
  0
POINT
  5
507
330
4FC
100
AcDbEntity
  8
Defpoints
100
AcDbPoint
 10
8258.0
 20
-9594.0
 30
0.0
  0
POINT
  5
508
330
4FC
100
AcDbEntity
  8
Defpoints
100
AcDbPoint
 10
8378.0
 20
-9594.0
 30
0.0
  0
POINT
  5
509
330
4FC
100
AcDbEntity
  8
Defpoints
100
AcDbPoint
 10
8378.0
 20
-9083.0
 30
0.0
  0
ENDBLK
  5
4FE
330
4FC
100
AcDbEntity
  8
0
100
AcDbBlockEnd
  0
BLOCK
  5
50C
330
50B
100
AcDbEntity
  8
0
100
AcDbBlockBegin
  2
*D59
 70
1
 10
0.0
 20
0.0
 30
0.0
  3
*D59
  1

  0
LINE
  5
50E
330
50B
100
AcDbEntity
  8
0
100
AcDbLine
 10
8378.0
 20
-9602.0
 30
0.0
 11
8378.0
 21
-9720.0
 31
0.0
  0
LINE
  5
50F
330
50B
100
AcDbEntity
  8
0
100
AcDbLine
 10
8916.0
 20
-9602.0
 30
0.0
 11
8916.0
 21
-9720.0
 31
0.0
  0
INSERT
  5
510
330
50B
100
AcDbEntity
  8
0
 62
7
100
AcDbBlockReference
  2
_ARCHTICK
 10
8378.0
 20
-9714.0
 30
0.0
 41
18.0
 42
18.0
 50
180.0
  0
INSERT
  5
512
330
50B
100
AcDbEntity
  8
0
 62
7
100
AcDbBlockReference
  2
_ARCHTICK
 10
8916.0
 20
-9714.0
 30
0.0
 41
18.0
 42
18.0
  0
LINE
  5
514
330
50B
100
AcDbEntity
  8
0
 62
7
100
AcDbLine
 10
8378.0
 20
-9714.0
 30
0.0
 11
8916.0
 21
-9714.0
 31
0.0
  0
MTEXT
  5
515
330
50B
100
AcDbEntity
  8
0
 62
7
100
AcDbMText
 10
8647.0
 20
-9701.4
 30
0.0
 40
25.0
 71
5
  1
538
  7
HZ
  0
POINT
  5
516
330
50B
100
AcDbEntity
  8
Defpoints
100
AcDbPoint
 10
8378.0
 20
-9714.0
 30
0.0
  0
POINT
  5
517
330
50B
100
AcDbEntity
  8
Defpoints
100
AcDbPoint
 10
8378.0
 20
-9594.0
 30
0.0
  0
POINT
  5
518
330
50B
100
AcDbEntity
  8
Defpoints
100
AcDbPoint
 10
8916.0
 20
-9594.0
 30
0.0
  0
ENDBLK
  5
50D
330
50B
100
AcDbEntity
  8
0
100
AcDbBlockEnd
  0
BLOCK
  5
523
330
522
100
AcDbEntity
  8
0
100
AcDbBlockBegin
  2
*D60
 70
1
 10
0.0
 20
0.0
 30
0.0
  3
*D60
  1

  0
LINE
  5
525
330
522
100
AcDbEntity
  8
0
100
AcDbLine
 10
9608.0
 20
-9594.0
 30
0.0
 11
9490.0
 21
-9594.0
 31
0.0
  0
LINE
  5
526
330
522
100
AcDbEntity
  8
0
100
AcDbLine
 10
9608.0
 20
-9083.0
 30
0.0
 11
9490.0
 21
-9083.0
 31
0.0
  0
INSERT
  5
527
330
522
100
AcDbEntity
  8
0
 62
7
100
AcDbBlockReference
  2
_ARCHTICK
 10
9496.0
 20
-9594.0
 30
0.0
 41
18.0
 42
18.0
 50
270.0
  0
INSERT
  5
529
330
522
100
AcDbEntity
  8
0
 62
7
100
AcDbBlockReference
  2
_ARCHTICK
 10
9496.0
 20
-9083.0
 30
0.0
 41
18.0
 42
18.0
 50
90.0
  0
LINE
  5
52B
330
522
100
AcDbEntity
  8
0
 62
7
100
AcDbLine
 10
9496.0
 20
-9594.0
 30
0.0
 11
9496.0
 21
-9083.0
 31
0.0
  0
MTEXT
  5
52C
330
522
100
AcDbEntity
  8
0
 62
7
100
AcDbMText
 10
9483.4
 20
-9338.5
 30
0.0
 40
25.0
 71
5
  1
511
  7
HZ
 50
90.0
  0
POINT
  5
52D
330
522
100
AcDbEntity
  8
Defpoints
100
AcDbPoint
 10
9496.0
 20
-9594.0
 30
0.0
  0
POINT
  5
52E
330
522
100
AcDbEntity
  8
Defpoints
100
AcDbPoint
 10
9616.0
 20
-9594.0
 30
0.0
  0
POINT
  5
52F
330
522
100
AcDbEntity
  8
Defpoints
100
AcDbPoint
 10
9616.0
 20
-9083.0
 30
0.0
  0
ENDBLK
  5
524
330
522
100
AcDbEntity
  8
0
100
AcDbBlockEnd
  0
BLOCK
  5
532
330
531
100
AcDbEntity
  8
0
100
AcDbBlockBegin
  2
*D61
 70
1
 10
0.0
 20
0.0
 30
0.0
  3
*D61
  1

  0
LINE
  5
534
330
531
100
AcDbEntity
  8
0
100
AcDbLine
 10
9616.0
 20
-9602.0
 30
0.0
 11
9616.0
 21
-9720.0
 31
0.0
  0
LINE
  5
535
330
531
100
AcDbEntity
  8
0
100
AcDbLine
 10
10154.0
 20
-9602.0
 30
0.0
 11
10154.0
 21
-9720.0
 31
0.0
  0
INSERT
  5
536
330
531
100
AcDbEntity
  8
0
 62
7
100
AcDbBlockReference
  2
_ARCHTICK
 10
9616.0
 20
-9714.0
 30
0.0
 41
18.0
 42
18.0
 50
180.0
  0
INSERT
  5
538
330
531
100
AcDbEntity
  8
0
 62
7
100
AcDbBlockReference
  2
_ARCHTICK
 10
10154.0
 20
-9714.0
 30
0.0
 41
18.0
 42
18.0
  0
LINE
  5
53A
330
531
100
AcDbEntity
  8
0
 62
7
100
AcDbLine
 10
9616.0
 20
-9714.0
 30
0.0
 11
10154.0
 21
-9714.0
 31
0.0
  0
MTEXT
  5
53B
330
531
100
AcDbEntity
  8
0
 62
7
100
AcDbMText
 10
9885.0
 20
-9701.4
 30
0.0
 40
25.0
 71
5
  1
538
  7
HZ
  0
POINT
  5
53C
330
531
100
AcDbEntity
  8
Defpoints
100
AcDbPoint
 10
9616.0
 20
-9714.0
 30
0.0
  0
POINT
  5
53D
330
531
100
AcDbEntity
  8
Defpoints
100
AcDbPoint
 10
9616.0
 20
-9594.0
 30
0.0
  0
POINT
  5
53E
330
531
100
AcDbEntity
  8
Defpoints
100
AcDbPoint
 10
10154.0
 20
-9594.0
 30
0.0
  0
ENDBLK
  5
533
330
531
100
AcDbEntity
  8
0
100
AcDbBlockEnd
  0
BLOCK
  5
54A
330
549
100
AcDbEntity
  8
0
100
AcDbBlockBegin
  2
*D62
 70
1
 10
0.0
 20
0.0
 30
0.0
  3
*D62
  1

  0
LINE
  5
54C
330
549
100
AcDbEntity
  8
0
100
AcDbLine
 10
10846.0
 20
-11447.0
 30
0.0
 11
10728.0
 21
-11447.0
 31
0.0
  0
LINE
  5
54D
330
549
100
AcDbEntity
  8
0
100
AcDbLine
 10
10846.0
 20
-9083.0
 30
0.0
 11
10728.0
 21
-9083.0
 31
0.0
  0
INSERT
  5
54E
330
549
100
AcDbEntity
  8
0
 62
7
100
AcDbBlockReference
  2
_ARCHTICK
 10
10734.0
 20
-11447.0
 30
0.0
 41
18.0
 42
18.0
 50
270.0
  0
INSERT
  5
550
330
549
100
AcDbEntity
  8
0
 62
7
100
AcDbBlockReference
  2
_ARCHTICK
 10
10734.0
 20
-9083.0
 30
0.0
 41
18.0
 42
18.0
 50
90.0
  0
LINE
  5
552
330
549
100
AcDbEntity
  8
0
 62
7
100
AcDbLine
 10
10734.0
 20
-11447.0
 30
0.0
 11
10734.0
 21
-9083.0
 31
0.0
  0
MTEXT
  5
553
330
549
100
AcDbEntity
  8
0
 62
7
100
AcDbMText
 10
10721.4
 20
-10265.0
 30
0.0
 40
25.0
 71
5
  1
2364
  7
HZ
 50
90.0
  0
POINT
  5
554
330
549
100
AcDbEntity
  8
Defpoints
100
AcDbPoint
 10
10734.0
 20
-11447.0
 30
0.0
  0
POINT
  5
555
330
549
100
AcDbEntity
  8
Defpoints
100
AcDbPoint
 10
10854.0
 20
-11447.0
 30
0.0
  0
POINT
  5
556
330
549
100
AcDbEntity
  8
Defpoints
100
AcDbPoint
 10
10854.0
 20
-9083.0
 30
0.0
  0
ENDBLK
  5
54B
330
549
100
AcDbEntity
  8
0
100
AcDbBlockEnd
  0
BLOCK
  5
559
330
558
100
AcDbEntity
  8
0
100
AcDbBlockBegin
  2
*D63
 70
1
 10
0.0
 20
0.0
 30
0.0
  3
*D63
  1

  0
LINE
  5
55B
330
558
100
AcDbEntity
  8
0
100
AcDbLine
 10
10854.0
 20
-11455.0
 30
0.0
 11
10854.0
 21
-11573.0
 31
0.0
  0
LINE
  5
55C
330
558
100
AcDbEntity
  8
0
100
AcDbLine
 10
10934.0
 20
-11455.0
 30
0.0
 11
10934.0
 21
-11573.0
 31
0.0
  0
INSERT
  5
55D
330
558
100
AcDbEntity
  8
0
 62
7
100
AcDbBlockReference
  2
_ARCHTICK
 10
10854.0
 20
-11567.0
 30
0.0
 41
18.0
 42
18.0
 50
180.0
  0
INSERT
  5
55F
330
558
100
AcDbEntity
  8
0
 62
7
100
AcDbBlockReference
  2
_ARCHTICK
 10
10934.0
 20
-11567.0
 30
0.0
 41
18.0
 42
18.0
  0
LINE
  5
561
330
558
100
AcDbEntity
  8
0
 62
7
100
AcDbLine
 10
10854.0
 20
-11567.0
 30
0.0
 11
10934.0
 21
-11567.0
 31
0.0
  0
MTEXT
  5
562
330
558
100
AcDbEntity
  8
0
 62
7
100
AcDbMText
 10
10894.0
 20
-11554.4
 30
0.0
 40
25.0
 71
5
  1
80
  7
HZ
  0
POINT
  5
563
330
558
100
AcDbEntity
  8
Defpoints
100
AcDbPoint
 10
10854.0
 20
-11567.0
 30
0.0
  0
POINT
  5
564
330
558
100
AcDbEntity
  8
Defpoints
100
AcDbPoint
 10
10854.0
 20
-11447.0
 30
0.0
  0
POINT
  5
565
330
558
100
AcDbEntity
  8
Defpoints
100
AcDbPoint
 10
10934.0
 20
-11447.0
 30
0.0
  0
ENDBLK
  5
55A
330
558
100
AcDbEntity
  8
0
100
AcDbBlockEnd
  0
ENDSEC
  0
SECTION
  2
ENTITIES
  0
TEXT
  5
9A
330
17
100
AcDbEntity
  8
TITLE
100
AcDbText
 10
0.0
 20
2720.0
 30
0.0
 40
60.0
  1
主卧衣柜  正立面图  1:1
  7
HZ
 11
0.0
 21
2720.0
 31
0.0
100
AcDbText
  0
TEXT
  5
9B
330
17
100
AcDbEntity
  8
NOTE
100
AcDbText
 10
0.0
 20
2640.0
 30
0.0
 40
25.0
  1
外尺寸 2400 × 2400 × 600 mm（宽×高×深）
  7
HZ
 11
0.0
 21
2640.0
 31
0.0
100
AcDbText
  0
LWPOLYLINE
  5
9C
330
17
100
AcDbEntity
  8
FRAME
100
AcDbPolyline
 90
4
 70
1
 10
0.0
 20
0.0
 10
2400.0
 20
0.0
 10
2400.0
 20
2400.0
 10
0.0
 20
2400.0
  0
LWPOLYLINE
  5
9D
330
17
100
AcDbEntity
  8
ELEV_STRUCT
100
AcDbPolyline
 90
4
 70
1
 10
18.0
 20
0.0
 10
2382.0
 20
0.0
 10
2382.0
 20
80.0
 10
18.0
 20
80.0
  0
LWPOLYLINE
  5
9E
330
17
100
AcDbEntity
  8
ELEV_STRUCT
100
AcDbPolyline
 90
4
 70
1
 10
0.0
 20
80.0
 10
18.0
 20
80.0
 10
18.0
 20
2400.0
 10
0.0
 20
2400.0
  0
LWPOLYLINE
  5
9F
330
17
100
AcDbEntity
  8
ELEV_STRUCT
100
AcDbPolyline
 90
4
 70
1
 10
2382.0
 20
80.0
 10
2400.0
 20
80.0
 10
2400.0
 20
2400.0
 10
2382.0
 20
2400.0
  0
LWPOLYLINE
  5
A0
330
17
100
AcDbEntity
  8
ELEV_STRUCT
100
AcDbPolyline
 90
4
 70
1
 10
18.0
 20
2382.0
 10
2382.0
 20
2382.0
 10
2382.0
 20
2400.0
 10
18.0
 20
2400.0
  0
LWPOLYLINE
  5
A1
330
17
100
AcDbEntity
  8
ELEV_STRUCT
100
AcDbPolyline
 90
4
 70
1
 10
18.0
 20
80.0
 10
2382.0
 20
80.0
 10
2382.0
 20
98.0
 10
18.0
 20
98.0
  0
LWPOLYLINE
  5
A2
330
17
100
AcDbEntity
  8
ELEV_STRUCT
100
AcDbPolyline
 90
4
 70
1
 10
600.0
 20
98.0
 10
618.0
 20
98.0
 10
618.0
 20
2382.0
 10
600.0
 20
2382.0
  0
LWPOLYLINE
  5
A3
330
17
100
AcDbEntity
  8
ELEV_STRUCT
100
AcDbPolyline
 90
4
 70
1
 10
1782.0
 20
98.0
 10
1800.0
 20
98.0
 10
1800.0
 20
2382.0
 10
1782.0
 20
2382.0
  0
LWPOLYLINE
  5
A4
330
17
100
AcDbEntity
  8
ELEV_FRONT
100
AcDbPolyline
 90
4
 70
1
 10
20.0
 20
100.0
 10
598.0
 20
100.0
 10
598.0
 20
856.0
 10
20.0
 20
856.0
  0
LWPOLYLINE
  5
A5
330
17
100
AcDbEntity
  8
ELEV_FRONT
100
AcDbPolyline
 90
4
 70
1
 10
20.0
 20
858.0
 10
598.0
 20
858.0
 10
598.0
 20
1612.0
 10
20.0
 20
1612.0
  0
LWPOLYLINE
  5
A6
330
17
100
AcDbEntity
  8
ELEV_FRONT
100
AcDbPolyline
 90
4
 70
1
 10
20.0
 20
1614.0
 10
598.0
 20
1614.0
 10
598.0
 20
2368.0
 10
20.0
 20
2368.0
  0
LWPOLYLINE
  5
A7
330
17
100
AcDbEntity
  8
ELEV_STRUCT
100
AcDbPolyline
 90
4
 70
1
 10
618.0
 20
1240.0
 10
1782.0
 20
1240.0
 10
1782.0
 20
1258.0
 10
618.0
 20
1258.0
  0
LINE
  5
A8
330
17
100
AcDbEntity
  8
ELEV_HW
100
AcDbLine
 10
619.0
 20
1898.0
 30
0.0
 11
1781.0
 21
1898.0
 31
0.0
  0
LWPOLYLINE
  5
A9
330
17
100
AcDbEntity
  8
ELEV_STRUCT
100
AcDbPolyline
 90
4
 70
1
 10
1800.0
 20
555.0
 10
2382.0
 20
555.0
 10
2382.0
 20
573.0
 10
1800.0
 20
573.0
  0
LWPOLYLINE
  5
AA
330
17
100
AcDbEntity
  8
ELEV_STRUCT
100
AcDbPolyline
 90
4
 70
1
 10
1800.0
 20
1012.0
 10
2382.0
 20
1012.0
 10
2382.0
 20
1030.0
 10
1800.0
 20
1030.0
  0
LWPOLYLINE
  5
AB
330
17
100
AcDbEntity
  8
ELEV_STRUCT
100
AcDbPolyline
 90
4
 70
1
 10
1800.0
 20
1468.0
 10
2382.0
 20
1468.0
 10
2382.0
 20
1486.0
 10
1800.0
 20
1486.0
  0
LWPOLYLINE
  5
AC
330
17
100
AcDbEntity
  8
ELEV_STRUCT
100
AcDbPolyline
 90
4
 70
1
 10
1800.0
 20
1925.0
 10
2382.0
 20
1925.0
 10
2382.0
 20
1943.0
 10
1800.0
 20
1943.0
  0
LWPOLYLINE
  5
AD
330
17
100
AcDbEntity
  8
ELEV_FRONT
100
AcDbPolyline
 90
4
 70
1
 10
1802.0
 20
100.0
 10
2090.0
 20
100.0
 10
2090.0
 20
2380.0
 10
1802.0
 20
2380.0
  0
LWPOLYLINE
  5
AE
330
17
100
AcDbEntity
  8
ELEV_FRONT
100
AcDbPolyline
 90
4
 70
1
 10
2093.0
 20
100.0
 10
2380.0
 20
100.0
 10
2380.0
 20
2380.0
 10
2093.0
 20
2380.0
  0
DIMENSION
  5
AF
330
17
100
AcDbEntity
  8
0
100
AcDbDimension
  2
*D1
  3
FURN
 10
-180.0
 20
0.0
 30
0.0
 11
-192.6
 21
1200.0
 31
0.0
 70
32
 71
5
  1
<>
100
AcDbAlignedDimension
 13
-120.0
 23
0.0
 33
0.0
 14
-120.0
 24
2400.0
 34
0.0
 50
90.0
100
AcDbRotatedDimension
  0
DIMENSION
  5
BE
330
17
100
AcDbEntity
  8
0
100
AcDbDimension
  2
*D2
  3
FURN
 10
-120.0
 20
80.0
 30
0.0
 11
-132.6
 21
1240.0
 31
0.0
 70
32
 71
5
  1
<>
100
AcDbAlignedDimension
 13
-60.0
 23
80.0
 33
0.0
 14
-60.0
 24
2400.0
 34
0.0
 50
90.0
100
AcDbRotatedDimension
  0
DIMENSION
  5
CD
330
17
100
AcDbEntity
  8
0
100
AcDbDimension
  2
*D3
  3
FURN
 10
-250.0
 20
0.0
 30
0.0
 11
-262.6
 21
40.0
 31
0.0
 70
32
 71
5
  1
<>
100
AcDbAlignedDimension
 13
-190.0
 23
0.0
 33
0.0
 14
-190.0
 24
80.0
 34
0.0
 50
90.0
100
AcDbRotatedDimension
  0
DIMENSION
  5
DC
330
17
100
AcDbEntity
  8
0
100
AcDbDimension
  2
*D4
  3
FURN
 10
0.0
 20
-180.0
 30
0.0
 11
1200.0
 21
-167.4
 31
0.0
 70
32
 71
5
  1
<>
100
AcDbAlignedDimension
 13
0.0
 23
-120.0
 33
0.0
 14
2400.0
 24
-120.0
 34
0.0
 50
0.0
100
AcDbRotatedDimension
  0
DIMENSION
  5
EB
330
17
100
AcDbEntity
  8
0
100
AcDbDimension
  2
*D5
  3
FURN
 10
18.0
 20
-120.0
 30
0.0
 11
309.0
 21
-107.4
 31
0.0
 70
32
 71
5
  1
<>
100
AcDbAlignedDimension
 13
18.0
 23
-60.0
 33
0.0
 14
600.0
 24
-60.0
 34
0.0
 50
0.0
100
AcDbRotatedDimension
  0
DIMENSION
  5
FA
330
17
100
AcDbEntity
  8
0
100
AcDbDimension
  2
*D6
  3
FURN
 10
618.0
 20
-120.0
 30
0.0
 11
1200.0
 21
-107.4
 31
0.0
 70
32
 71
5
  1
<>
100
AcDbAlignedDimension
 13
618.0
 23
-60.0
 33
0.0
 14
1782.0
 24
-60.0
 34
0.0
 50
0.0
100
AcDbRotatedDimension
  0
DIMENSION
  5
109
330
17
100
AcDbEntity
  8
0
100
AcDbDimension
  2
*D7
  3
FURN
 10
1800.0
 20
-120.0
 30
0.0
 11
2091.0
 21
-107.4
 31
0.0
 70
32
 71
5
  1
<>
100
AcDbAlignedDimension
 13
1800.0
 23
-60.0
 33
0.0
 14
2382.0
 24
-60.0
 34
0.0
 50
0.0
100
AcDbRotatedDimension
  0
TEXT
  5
118
330
17
100
AcDbEntity
  8
NOTE
100
AcDbText
 10
25.0
 20
1240.0
 30
0.0
 40
28.0
  1
左侧板
  7
HZ
 11
25.0
 21
1240.0
 31
0.0
100
AcDbText
  0
TEXT
  5
119
330
17
100
AcDbEntity
  8
NOTE
100
AcDbText
 10
2407.0
 20
1240.0
 30
0.0
 40
28.0
  1
右侧板
  7
HZ
 11
2407.0
 21
1240.0
 31
0.0
100
AcDbText
  0
TEXT
  5
11A
330
17
100
AcDbEntity
  8
NOTE
100
AcDbText
 10
625.0
 20
1240.0
 30
0.0
 40
28.0
  1
中立板1
  7
HZ
 11
625.0
 21
1240.0
 31
0.0
100
AcDbText
  0
TEXT
  5
11B
330
17
100
AcDbEntity
  8
NOTE
100
AcDbText
 10
1807.0
 20
1240.0
 30
0.0
 40
28.0
  1
中立板2
  7
HZ
 11
1807.0
 21
1240.0
 31
0.0
100
AcDbText
  0
TEXT
  5
11C
330
17
100
AcDbEntity
  8
TITLE
100
AcDbText
 10
4600.0
 20
2720.0
 30
0.0
 40
60.0
  1
板 件 图（开料图）  1:1
  7
HZ
 11
4600.0
 21
2720.0
 31
0.0
100
AcDbText
  0
TEXT
  5
11D
330
17
100
AcDbEntity
  8
NOTE
100
AcDbText
 10
4600.0
 20
2640.0
 30
0.0
 40
25.0
  1
粗红线=1mm 封边 · 中黄线=0.4mm 封边 · 灰虚线=不封边 · 尺寸单位 mm，1:1 实际大小
  7
HZ
 11
4600.0
 21
2640.0
 31
0.0
100
AcDbText
  0
LWPOLYLINE
  5
11E
330
17
100
AcDbEntity
  8
PANEL_9
100
AcDbPolyline
 90
4
 70
1
 10
4600.0
 20
1250.0
 10
6979.0
 20
1250.0
 10
6979.0
 20
2400.0
 10
4600.0
 20
2400.0
  0
LWPOLYLINE
  5
11F
330
17
100
AcDbEntity
  8
EDGE_NONE
370
9
100
AcDbPolyline
 90
2
 70
0
 10
4600.0
 20
2400.0
 10
6979.0
 20
2400.0
  0
LWPOLYLINE
  5
120
330
17
100
AcDbEntity
  8
EDGE_NONE
370
9
100
AcDbPolyline
 90
2
 70
0
 10
4600.0
 20
1250.0
 10
6979.0
 20
1250.0
  0
LWPOLYLINE
  5
121
330
17
100
AcDbEntity
  8
EDGE_NONE
370
9
100
AcDbPolyline
 90
2
 70
0
 10
4600.0
 20
1250.0
 10
4600.0
 20
2400.0
  0
LWPOLYLINE
  5
122
330
17
100
AcDbEntity
  8
EDGE_NONE
370
9
100
AcDbPolyline
 90
2
 70
0
 10
6979.0
 20
1250.0
 10
6979.0
 20
2400.0
  0
TEXT
  5
123
330
17
100
AcDbEntity
  8
TITLE
100
AcDbText
 10
4600.0
 20
1195.0
 30
0.0
 40
30.0
  1
P_Cabinet_001_BACK1  背板-1
  7
HZ
 11
4600.0
 21
1195.0
 31
0.0
100
AcDbText
  0
TEXT
  5
124
330
17
100
AcDbEntity
  8
NOTE
100
AcDbText
 10
4600.0
 20
1153.0
 30
0.0
 40
30.0
  1
1150 × 2379 × 9   数量 1
  7
HZ
 11
4600.0
 21
1153.0
 31
0.0
100
AcDbText
  0
TEXT
  5
125
330
17
100
AcDbEntity
  8
NOTE
100
AcDbText
 10
4600.0
 20
1111.0
 30
0.0
 40
26.0
  1
M_BACK_9  封边：不封边
  7
HZ
 11
4600.0
 21
1111.0
 31
0.0
100
AcDbText
  0
DIMENSION
  5
126
330
17
100
AcDbEntity
  8
0
100
AcDbDimension
  2
*D8
  3
FURN
 10
4480.0
 20
1250.0
 30
0.0
 11
4467.4
 21
1825.0
 31
0.0
 70
32
 71
5
  1
<>
100
AcDbAlignedDimension
 13
4600.0
 23
1250.0
 33
0.0
 14
4600.0
 24
2400.0
 34
0.0
 50
90.0
100
AcDbRotatedDimension
  0
DIMENSION
  5
135
330
17
100
AcDbEntity
  8
0
100
AcDbDimension
  2
*D9
  3
FURN
 10
4600.0
 20
1130.0
 30
0.0
 11
5789.5
 21
1142.6
 31
0.0
 70
32
 71
5
  1
<>
100
AcDbAlignedDimension
 13
4600.0
 23
1250.0
 33
0.0
 14
6979.0
 24
1250.0
 34
0.0
 50
0.0
100
AcDbRotatedDimension
  0
LWPOLYLINE
  5
144
330
17
100
AcDbEntity
  8
PANEL_9
100
AcDbPolyline
 90
4
 70
1
 10
7679.0
 20
1251.0
 10
10058.0
 20
1251.0
 10
10058.0
 20
2400.0
 10
7679.0
 20
2400.0
  0
LWPOLYLINE
  5
145
330
17
100
AcDbEntity
  8
EDGE_NONE
370
9
100
AcDbPolyline
 90
2
 70
0
 10
7679.0
 20
2400.0
 10
10058.0
 20
2400.0
  0
LWPOLYLINE
  5
146
330
17
100
AcDbEntity
  8
EDGE_NONE
370
9
100
AcDbPolyline
 90
2
 70
0
 10
7679.0
 20
1251.0
 10
10058.0
 20
1251.0
  0
LWPOLYLINE
  5
147
330
17
100
AcDbEntity
  8
EDGE_NONE
370
9
100
AcDbPolyline
 90
2
 70
0
 10
7679.0
 20
1251.0
 10
7679.0
 20
2400.0
  0
LWPOLYLINE
  5
148
330
17
100
AcDbEntity
  8
EDGE_NONE
370
9
100
AcDbPolyline
 90
2
 70
0
 10
10058.0
 20
1251.0
 10
10058.0
 20
2400.0
  0
TEXT
  5
149
330
17
100
AcDbEntity
  8
TITLE
100
AcDbText
 10
7679.0
 20
1196.0
 30
0.0
 40
30.0
  1
P_Cabinet_001_BACK2  背板-2
  7
HZ
 11
7679.0
 21
1196.0
 31
0.0
100
AcDbText
  0
TEXT
  5
14A
330
17
100
AcDbEntity
  8
NOTE
100
AcDbText
 10
7679.0
 20
1154.0
 30
0.0
 40
30.0
  1
1149 × 2379 × 9   数量 1
  7
HZ
 11
7679.0
 21
1154.0
 31
0.0
100
AcDbText
  0
TEXT
  5
14B
330
17
100
AcDbEntity
  8
NOTE
100
AcDbText
 10
7679.0
 20
1112.0
 30
0.0
 40
26.0
  1
M_BACK_9  封边：不封边
  7
HZ
 11
7679.0
 21
1112.0
 31
0.0
100
AcDbText
  0
DIMENSION
  5
14C
330
17
100
AcDbEntity
  8
0
100
AcDbDimension
  2
*D10
  3
FURN
 10
7559.0
 20
1251.0
 30
0.0
 11
7546.4
 21
1825.5
 31
0.0
 70
32
 71
5
  1
<>
100
AcDbAlignedDimension
 13
7679.0
 23
1251.0
 33
0.0
 14
7679.0
 24
2400.0
 34
0.0
 50
90.0
100
AcDbRotatedDimension
  0
DIMENSION
  5
15B
330
17
100
AcDbEntity
  8
0
100
AcDbDimension
  2
*D11
  3
FURN
 10
7679.0
 20
1131.0
 30
0.0
 11
8868.5
 21
1143.6
 31
0.0
 70
32
 71
5
  1
<>
100
AcDbAlignedDimension
 13
7679.0
 23
1251.0
 33
0.0
 14
10058.0
 24
1251.0
 34
0.0
 50
0.0
100
AcDbRotatedDimension
  0
LWPOLYLINE
  5
16A
330
17
100
AcDbEntity
  8
PANEL_18
100
AcDbPolyline
 90
4
 70
1
 10
4600.0
 20
-1984.0
 10
5200.0
 20
-1984.0
 10
5200.0
 20
380.0
 10
4600.0
 20
380.0
  0
LWPOLYLINE
  5
16B
330
17
100
AcDbEntity
  8
EDGE_NONE
370
9
100
AcDbPolyline
 90
2
 70
0
 10
4600.0
 20
380.0
 10
5200.0
 20
380.0
  0
LWPOLYLINE
  5
16C
330
17
100
AcDbEntity
  8
EDGE_NONE
370
9
100
AcDbPolyline
 90
2
 70
0
 10
4600.0
 20
-1984.0
 10
5200.0
 20
-1984.0
  0
LWPOLYLINE
  5
16D
330
17
100
AcDbEntity
  8
EDGE_1MM
370
100
100
AcDbPolyline
 90
2
 70
0
 10
4600.0
 20
-1984.0
 10
4600.0
 20
380.0
  0
LWPOLYLINE
  5
16E
330
17
100
AcDbEntity
  8
EDGE_NONE
370
9
100
AcDbPolyline
 90
2
 70
0
 10
5200.0
 20
-1984.0
 10
5200.0
 20
380.0
  0
TEXT
  5
16F
330
17
100
AcDbEntity
  8
TITLE
100
AcDbText
 10
4600.0
 20
-2039.0
 30
0.0
 40
30.0
  1
P_Cabinet_001_TOP  顶板
  7
HZ
 11
4600.0
 21
-2039.0
 31
0.0
100
AcDbText
  0
TEXT
  5
170
330
17
100
AcDbEntity
  8
NOTE
100
AcDbText
 10
4600.0
 20
-2081.0
 30
0.0
 40
30.0
  1
2364 × 600 × 18   数量 1
  7
HZ
 11
4600.0
 21
-2081.0
 31
0.0
100
AcDbText
  0
TEXT
  5
171
330
17
100
AcDbEntity
  8
NOTE
100
AcDbText
 10
4600.0
 20
-2123.0
 30
0.0
 40
26.0
  1
M_BOARD_18_WOOD  封边：前边 1mm
  7
HZ
 11
4600.0
 21
-2123.0
 31
0.0
100
AcDbText
  0
TEXT
  5
172
330
17
100
AcDbEntity
  8
NOTE
100
AcDbText
 10
4410.0
 20
-802.0
 30
0.0
 40
24.0
  1
封边
  7
HZ
 11
4410.0
 21
-802.0
 31
0.0
100
AcDbText
  0
DIMENSION
  5
173
330
17
100
AcDbEntity
  8
0
100
AcDbDimension
  2
*D12
  3
FURN
 10
4480.0
 20
-1984.0
 30
0.0
 11
4467.4
 21
-802.0
 31
0.0
 70
32
 71
5
  1
<>
100
AcDbAlignedDimension
 13
4600.0
 23
-1984.0
 33
0.0
 14
4600.0
 24
380.0
 34
0.0
 50
90.0
100
AcDbRotatedDimension
  0
DIMENSION
  5
182
330
17
100
AcDbEntity
  8
0
100
AcDbDimension
  2
*D13
  3
FURN
 10
4600.0
 20
-2104.0
 30
0.0
 11
4900.0
 21
-2091.4
 31
0.0
 70
32
 71
5
  1
<>
100
AcDbAlignedDimension
 13
4600.0
 23
-1984.0
 33
0.0
 14
5200.0
 24
-1984.0
 34
0.0
 50
0.0
100
AcDbRotatedDimension
  0
LWPOLYLINE
  5
191
330
17
100
AcDbEntity
  8
PANEL_18
100
AcDbPolyline
 90
4
 70
1
 10
5900.0
 20
-1984.0
 10
6500.0
 20
-1984.0
 10
6500.0
 20
380.0
 10
5900.0
 20
380.0
  0
LWPOLYLINE
  5
192
330
17
100
AcDbEntity
  8
EDGE_NONE
370
9
100
AcDbPolyline
 90
2
 70
0
 10
5900.0
 20
380.0
 10
6500.0
 20
380.0
  0
LWPOLYLINE
  5
193
330
17
100
AcDbEntity
  8
EDGE_NONE
370
9
100
AcDbPolyline
 90
2
 70
0
 10
5900.0
 20
-1984.0
 10
6500.0
 20
-1984.0
  0
LWPOLYLINE
  5
194
330
17
100
AcDbEntity
  8
EDGE_1MM
370
100
100
AcDbPolyline
 90
2
 70
0
 10
5900.0
 20
-1984.0
 10
5900.0
 20
380.0
  0
LWPOLYLINE
  5
195
330
17
100
AcDbEntity
  8
EDGE_NONE
370
9
100
AcDbPolyline
 90
2
 70
0
 10
6500.0
 20
-1984.0
 10
6500.0
 20
380.0
  0
TEXT
  5
196
330
17
100
AcDbEntity
  8
TITLE
100
AcDbText
 10
5900.0
 20
-2039.0
 30
0.0
 40
30.0
  1
P_Cabinet_001_BOT  底板
  7
HZ
 11
5900.0
 21
-2039.0
 31
0.0
100
AcDbText
  0
TEXT
  5
197
330
17
100
AcDbEntity
  8
NOTE
100
AcDbText
 10
5900.0
 20
-2081.0
 30
0.0
 40
30.0
  1
2364 × 600 × 18   数量 1
  7
HZ
 11
5900.0
 21
-2081.0
 31
0.0
100
AcDbText
  0
TEXT
  5
198
330
17
100
AcDbEntity
  8
NOTE
100
AcDbText
 10
5900.0
 20
-2123.0
 30
0.0
 40
26.0
  1
M_BOARD_18_WOOD  封边：前边 1mm
  7
HZ
 11
5900.0
 21
-2123.0
 31
0.0
100
AcDbText
  0
TEXT
  5
199
330
17
100
AcDbEntity
  8
NOTE
100
AcDbText
 10
5710.0
 20
-802.0
 30
0.0
 40
24.0
  1
封边
  7
HZ
 11
5710.0
 21
-802.0
 31
0.0
100
AcDbText
  0
DIMENSION
  5
19A
330
17
100
AcDbEntity
  8
0
100
AcDbDimension
  2
*D14
  3
FURN
 10
5780.0
 20
-1984.0
 30
0.0
 11
5767.4
 21
-802.0
 31
0.0
 70
32
 71
5
  1
<>
100
AcDbAlignedDimension
 13
5900.0
 23
-1984.0
 33
0.0
 14
5900.0
 24
380.0
 34
0.0
 50
90.0
100
AcDbRotatedDimension
  0
DIMENSION
  5
1A9
330
17
100
AcDbEntity
  8
0
100
AcDbDimension
  2
*D15
  3
FURN
 10
5900.0
 20
-2104.0
 30
0.0
 11
6200.0
 21
-2091.4
 31
0.0
 70
32
 71
5
  1
<>
100
AcDbAlignedDimension
 13
5900.0
 23
-1984.0
 33
0.0
 14
6500.0
 24
-1984.0
 34
0.0
 50
0.0
100
AcDbRotatedDimension
  0
LWPOLYLINE
  5
1B8
330
17
100
AcDbEntity
  8
PANEL_18
100
AcDbPolyline
 90
4
 70
1
 10
7200.0
 20
-1940.0
 10
7800.0
 20
-1940.0
 10
7800.0
 20
380.0
 10
7200.0
 20
380.0
  0
LWPOLYLINE
  5
1B9
330
17
100
AcDbEntity
  8
EDGE_NONE
370
9
100
AcDbPolyline
 90
2
 70
0
 10
7200.0
 20
380.0
 10
7800.0
 20
380.0
  0
LWPOLYLINE
  5
1BA
330
17
100
AcDbEntity
  8
EDGE_04MM
370
50
100
AcDbPolyline
 90
2
 70
0
 10
7200.0
 20
-1940.0
 10
7800.0
 20
-1940.0
  0
LWPOLYLINE
  5
1BB
330
17
100
AcDbEntity
  8
EDGE_1MM
370
100
100
AcDbPolyline
 90
2
 70
0
 10
7200.0
 20
-1940.0
 10
7200.0
 20
380.0
  0
LWPOLYLINE
  5
1BC
330
17
100
AcDbEntity
  8
EDGE_NONE
370
9
100
AcDbPolyline
 90
2
 70
0
 10
7800.0
 20
-1940.0
 10
7800.0
 20
380.0
  0
TEXT
  5
1BD
330
17
100
AcDbEntity
  8
TITLE
100
AcDbText
 10
7200.0
 20
-1995.0
 30
0.0
 40
30.0
  1
P_Cabinet_001_LS  左侧板
  7
HZ
 11
7200.0
 21
-1995.0
 31
0.0
100
AcDbText
  0
TEXT
  5
1BE
330
17
100
AcDbEntity
  8
NOTE
100
AcDbText
 10
7200.0
 20
-2037.0
 30
0.0
 40
30.0
  1
2320 × 600 × 18   数量 1
  7
HZ
 11
7200.0
 21
-2037.0
 31
0.0
100
AcDbText
  0
TEXT
  5
1BF
330
17
100
AcDbEntity
  8
NOTE
100
AcDbText
 10
7200.0
 20
-2079.0
 30
0.0
 40
26.0
  1
M_BOARD_18_WOOD  封边：前边 1mm；上端 1mm；下端 0.4mm
  7
HZ
 11
7200.0
 21
-2079.0
 31
0.0
100
AcDbText
  0
TEXT
  5
1C0
330
17
100
AcDbEntity
  8
NOTE
100
AcDbText
 10
7010.0
 20
-780.0
 30
0.0
 40
24.0
  1
封边
  7
HZ
 11
7010.0
 21
-780.0
 31
0.0
100
AcDbText
  0
DIMENSION
  5
1C1
330
17
100
AcDbEntity
  8
0
100
AcDbDimension
  2
*D16
  3
FURN
 10
7080.0
 20
-1940.0
 30
0.0
 11
7067.4
 21
-780.0
 31
0.0
 70
32
 71
5
  1
<>
100
AcDbAlignedDimension
 13
7200.0
 23
-1940.0
 33
0.0
 14
7200.0
 24
380.0
 34
0.0
 50
90.0
100
AcDbRotatedDimension
  0
DIMENSION
  5
1D0
330
17
100
AcDbEntity
  8
0
100
AcDbDimension
  2
*D17
  3
FURN
 10
7200.0
 20
-2060.0
 30
0.0
 11
7500.0
 21
-2047.4
 31
0.0
 70
32
 71
5
  1
<>
100
AcDbAlignedDimension
 13
7200.0
 23
-1940.0
 33
0.0
 14
7800.0
 24
-1940.0
 34
0.0
 50
0.0
100
AcDbRotatedDimension
  0
LWPOLYLINE
  5
1DF
330
17
100
AcDbEntity
  8
PANEL_18
100
AcDbPolyline
 90
4
 70
1
 10
8500.0
 20
-1940.0
 10
9100.0
 20
-1940.0
 10
9100.0
 20
380.0
 10
8500.0
 20
380.0
  0
LWPOLYLINE
  5
1E0
330
17
100
AcDbEntity
  8
EDGE_NONE
370
9
100
AcDbPolyline
 90
2
 70
0
 10
8500.0
 20
380.0
 10
9100.0
 20
380.0
  0
LWPOLYLINE
  5
1E1
330
17
100
AcDbEntity
  8
EDGE_04MM
370
50
100
AcDbPolyline
 90
2
 70
0
 10
8500.0
 20
-1940.0
 10
9100.0
 20
-1940.0
  0
LWPOLYLINE
  5
1E2
330
17
100
AcDbEntity
  8
EDGE_NONE
370
9
100
AcDbPolyline
 90
2
 70
0
 10
8500.0
 20
-1940.0
 10
8500.0
 20
380.0
  0
LWPOLYLINE
  5
1E3
330
17
100
AcDbEntity
  8
EDGE_1MM
370
100
100
AcDbPolyline
 90
2
 70
0
 10
9100.0
 20
-1940.0
 10
9100.0
 20
380.0
  0
TEXT
  5
1E4
330
17
100
AcDbEntity
  8
TITLE
100
AcDbText
 10
8500.0
 20
-1995.0
 30
0.0
 40
30.0
  1
P_Cabinet_001_RS  右侧板
  7
HZ
 11
8500.0
 21
-1995.0
 31
0.0
100
AcDbText
  0
TEXT
  5
1E5
330
17
100
AcDbEntity
  8
NOTE
100
AcDbText
 10
8500.0
 20
-2037.0
 30
0.0
 40
30.0
  1
2320 × 600 × 18   数量 1
  7
HZ
 11
8500.0
 21
-2037.0
 31
0.0
100
AcDbText
  0
TEXT
  5
1E6
330
17
100
AcDbEntity
  8
NOTE
100
AcDbText
 10
8500.0
 20
-2079.0
 30
0.0
 40
26.0
  1
M_BOARD_18_WOOD  封边：前边 1mm；上端 1mm；下端 0.4mm（镜像）
  7
HZ
 11
8500.0
 21
-2079.0
 31
0.0
100
AcDbText
  0
DIMENSION
  5
1E7
330
17
100
AcDbEntity
  8
0
100
AcDbDimension
  2
*D18
  3
FURN
 10
8380.0
 20
-1940.0
 30
0.0
 11
8367.4
 21
-780.0
 31
0.0
 70
32
 71
5
  1
<>
100
AcDbAlignedDimension
 13
8500.0
 23
-1940.0
 33
0.0
 14
8500.0
 24
380.0
 34
0.0
 50
90.0
100
AcDbRotatedDimension
  0
DIMENSION
  5
1F6
330
17
100
AcDbEntity
  8
0
100
AcDbDimension
  2
*D19
  3
FURN
 10
8500.0
 20
-2060.0
 30
0.0
 11
8800.0
 21
-2047.4
 31
0.0
 70
32
 71
5
  1
<>
100
AcDbAlignedDimension
 13
8500.0
 23
-1940.0
 33
0.0
 14
9100.0
 24
-1940.0
 34
0.0
 50
0.0
100
AcDbRotatedDimension
  0
LWPOLYLINE
  5
205
330
17
100
AcDbEntity
  8
PANEL_18
100
AcDbPolyline
 90
4
 70
1
 10
9800.0
 20
-1904.0
 10
10400.0
 20
-1904.0
 10
10400.0
 20
380.0
 10
9800.0
 20
380.0
  0
LWPOLYLINE
  5
206
330
17
100
AcDbEntity
  8
EDGE_NONE
370
9
100
AcDbPolyline
 90
2
 70
0
 10
9800.0
 20
380.0
 10
10400.0
 20
380.0
  0
LWPOLYLINE
  5
207
330
17
100
AcDbEntity
  8
EDGE_NONE
370
9
100
AcDbPolyline
 90
2
 70
0
 10
9800.0
 20
-1904.0
 10
10400.0
 20
-1904.0
  0
LWPOLYLINE
  5
208
330
17
100
AcDbEntity
  8
EDGE_1MM
370
100
100
AcDbPolyline
 90
2
 70
0
 10
9800.0
 20
-1904.0
 10
9800.0
 20
380.0
  0
LWPOLYLINE
  5
209
330
17
100
AcDbEntity
  8
EDGE_NONE
370
9
100
AcDbPolyline
 90
2
 70
0
 10
10400.0
 20
-1904.0
 10
10400.0
 20
380.0
  0
TEXT
  5
20A
330
17
100
AcDbEntity
  8
TITLE
100
AcDbText
 10
9800.0
 20
-1959.0
 30
0.0
 40
30.0
  1
P_Cabinet_001_DIV1  中立板1
  7
HZ
 11
9800.0
 21
-1959.0
 31
0.0
100
AcDbText
  0
TEXT
  5
20B
330
17
100
AcDbEntity
  8
NOTE
100
AcDbText
 10
9800.0
 20
-2001.0
 30
0.0
 40
30.0
  1
2284 × 600 × 18   数量 1
  7
HZ
 11
9800.0
 21
-2001.0
 31
0.0
100
AcDbText
  0
TEXT
  5
20C
330
17
100
AcDbEntity
  8
NOTE
100
AcDbText
 10
9800.0
 20
-2043.0
 30
0.0
 40
26.0
  1
M_BOARD_18_WOOD  封边：前边 1mm
  7
HZ
 11
9800.0
 21
-2043.0
 31
0.0
100
AcDbText
  0
TEXT
  5
20D
330
17
100
AcDbEntity
  8
NOTE
100
AcDbText
 10
9610.0
 20
-762.0
 30
0.0
 40
24.0
  1
封边
  7
HZ
 11
9610.0
 21
-762.0
 31
0.0
100
AcDbText
  0
DIMENSION
  5
20E
330
17
100
AcDbEntity
  8
0
100
AcDbDimension
  2
*D20
  3
FURN
 10
9680.0
 20
-1904.0
 30
0.0
 11
9667.4
 21
-762.0
 31
0.0
 70
32
 71
5
  1
<>
100
AcDbAlignedDimension
 13
9800.0
 23
-1904.0
 33
0.0
 14
9800.0
 24
380.0
 34
0.0
 50
90.0
100
AcDbRotatedDimension
  0
DIMENSION
  5
21D
330
17
100
AcDbEntity
  8
0
100
AcDbDimension
  2
*D21
  3
FURN
 10
9800.0
 20
-2024.0
 30
0.0
 11
10100.0
 21
-2011.4
 31
0.0
 70
32
 71
5
  1
<>
100
AcDbAlignedDimension
 13
9800.0
 23
-1904.0
 33
0.0
 14
10400.0
 24
-1904.0
 34
0.0
 50
0.0
100
AcDbRotatedDimension
  0
LWPOLYLINE
  5
22C
330
17
100
AcDbEntity
  8
PANEL_18
100
AcDbPolyline
 90
4
 70
1
 10
4600.0
 20
-5138.0
 10
5200.0
 20
-5138.0
 10
5200.0
 20
-2854.0
 10
4600.0
 20
-2854.0
  0
LWPOLYLINE
  5
22D
330
17
100
AcDbEntity
  8
EDGE_NONE
370
9
100
AcDbPolyline
 90
2
 70
0
 10
4600.0
 20
-2854.0
 10
5200.0
 20
-2854.0
  0
LWPOLYLINE
  5
22E
330
17
100
AcDbEntity
  8
EDGE_NONE
370
9
100
AcDbPolyline
 90
2
 70
0
 10
4600.0
 20
-5138.0
 10
5200.0
 20
-5138.0
  0
LWPOLYLINE
  5
22F
330
17
100
AcDbEntity
  8
EDGE_1MM
370
100
100
AcDbPolyline
 90
2
 70
0
 10
4600.0
 20
-5138.0
 10
4600.0
 20
-2854.0
  0
LWPOLYLINE
  5
230
330
17
100
AcDbEntity
  8
EDGE_NONE
370
9
100
AcDbPolyline
 90
2
 70
0
 10
5200.0
 20
-5138.0
 10
5200.0
 20
-2854.0
  0
TEXT
  5
231
330
17
100
AcDbEntity
  8
TITLE
100
AcDbText
 10
4600.0
 20
-5193.0
 30
0.0
 40
30.0
  1
P_Cabinet_001_DIV2  中立板2
  7
HZ
 11
4600.0
 21
-5193.0
 31
0.0
100
AcDbText
  0
TEXT
  5
232
330
17
100
AcDbEntity
  8
NOTE
100
AcDbText
 10
4600.0
 20
-5235.0
 30
0.0
 40
30.0
  1
2284 × 600 × 18   数量 1
  7
HZ
 11
4600.0
 21
-5235.0
 31
0.0
100
AcDbText
  0
TEXT
  5
233
330
17
100
AcDbEntity
  8
NOTE
100
AcDbText
 10
4600.0
 20
-5277.0
 30
0.0
 40
26.0
  1
M_BOARD_18_WOOD  封边：前边 1mm
  7
HZ
 11
4600.0
 21
-5277.0
 31
0.0
100
AcDbText
  0
TEXT
  5
234
330
17
100
AcDbEntity
  8
NOTE
100
AcDbText
 10
4410.0
 20
-3996.0
 30
0.0
 40
24.0
  1
封边
  7
HZ
 11
4410.0
 21
-3996.0
 31
0.0
100
AcDbText
  0
DIMENSION
  5
235
330
17
100
AcDbEntity
  8
0
100
AcDbDimension
  2
*D22
  3
FURN
 10
4480.0
 20
-5138.0
 30
0.0
 11
4467.4
 21
-3996.0
 31
0.0
 70
32
 71
5
  1
<>
100
AcDbAlignedDimension
 13
4600.0
 23
-5138.0
 33
0.0
 14
4600.0
 24
-2854.0
 34
0.0
 50
90.0
100
AcDbRotatedDimension
  0
DIMENSION
  5
244
330
17
100
AcDbEntity
  8
0
100
AcDbDimension
  2
*D23
  3
FURN
 10
4600.0
 20
-5258.0
 30
0.0
 11
4900.0
 21
-5245.4
 31
0.0
 70
32
 71
5
  1
<>
100
AcDbAlignedDimension
 13
4600.0
 23
-5138.0
 33
0.0
 14
5200.0
 24
-5138.0
 34
0.0
 50
0.0
100
AcDbRotatedDimension
  0
LWPOLYLINE
  5
253
330
17
100
AcDbEntity
  8
PANEL_18
100
AcDbPolyline
 90
4
 70
1
 10
5900.0
 20
-4017.0
 10
6470.0
 20
-4017.0
 10
6470.0
 20
-2854.0
 10
5900.0
 20
-2854.0
  0
LWPOLYLINE
  5
254
330
17
100
AcDbEntity
  8
EDGE_1MM
370
100
100
AcDbPolyline
 90
2
 70
0
 10
5900.0
 20
-2854.0
 10
6470.0
 20
-2854.0
  0
LWPOLYLINE
  5
255
330
17
100
AcDbEntity
  8
EDGE_NONE
370
9
100
AcDbPolyline
 90
2
 70
0
 10
5900.0
 20
-4017.0
 10
6470.0
 20
-4017.0
  0
LWPOLYLINE
  5
256
330
17
100
AcDbEntity
  8
EDGE_1MM
370
100
100
AcDbPolyline
 90
2
 70
0
 10
5900.0
 20
-4017.0
 10
5900.0
 20
-2854.0
  0
LWPOLYLINE
  5
257
330
17
100
AcDbEntity
  8
EDGE_NONE
370
9
100
AcDbPolyline
 90
2
 70
0
 10
6470.0
 20
-4017.0
 10
6470.0
 20
-2854.0
  0
TEXT
  5
258
330
17
100
AcDbEntity
  8
TITLE
100
AcDbText
 10
5900.0
 20
-4072.0
 30
0.0
 40
30.0
  1
P_Cabinet_001_Unit_M_SH1  层板-1
  7
HZ
 11
5900.0
 21
-4072.0
 31
0.0
100
AcDbText
  0
TEXT
  5
259
330
17
100
AcDbEntity
  8
NOTE
100
AcDbText
 10
5900.0
 20
-4114.0
 30
0.0
 40
30.0
  1
1163 × 570 × 18   数量 1
  7
HZ
 11
5900.0
 21
-4114.0
 31
0.0
100
AcDbText
  0
TEXT
  5
25A
330
17
100
AcDbEntity
  8
NOTE
100
AcDbText
 10
5900.0
 20
-4156.0
 30
0.0
 40
26.0
  1
M_BOARD_18_WOOD  封边：前边 1mm；位置：距柜内底 1142mm
  7
HZ
 11
5900.0
 21
-4156.0
 31
0.0
100
AcDbText
  0
TEXT
  5
25B
330
17
100
AcDbEntity
  8
NOTE
100
AcDbText
 10
5710.0
 20
-3435.5
 30
0.0
 40
24.0
  1
封边
  7
HZ
 11
5710.0
 21
-3435.5
 31
0.0
100
AcDbText
  0
TEXT
  5
25C
330
17
100
AcDbEntity
  8
NOTE
100
AcDbText
 10
6145.0
 20
-2842.0
 30
0.0
 40
24.0
  1
封边
  7
HZ
 11
6145.0
 21
-2842.0
 31
0.0
100
AcDbText
  0
DIMENSION
  5
25D
330
17
100
AcDbEntity
  8
0
100
AcDbDimension
  2
*D24
  3
FURN
 10
5780.0
 20
-4017.0
 30
0.0
 11
5767.4
 21
-3435.5
 31
0.0
 70
32
 71
5
  1
<>
100
AcDbAlignedDimension
 13
5900.0
 23
-4017.0
 33
0.0
 14
5900.0
 24
-2854.0
 34
0.0
 50
90.0
100
AcDbRotatedDimension
  0
DIMENSION
  5
26C
330
17
100
AcDbEntity
  8
0
100
AcDbDimension
  2
*D25
  3
FURN
 10
5900.0
 20
-4137.0
 30
0.0
 11
6185.0
 21
-4124.4
 31
0.0
 70
32
 71
5
  1
<>
100
AcDbAlignedDimension
 13
5900.0
 23
-4017.0
 33
0.0
 14
6470.0
 24
-4017.0
 34
0.0
 50
0.0
100
AcDbRotatedDimension
  0
LWPOLYLINE
  5
27B
330
17
100
AcDbEntity
  8
PANEL_18
100
AcDbPolyline
 90
4
 70
1
 10
7170.0
 20
-5134.0
 10
7458.0
 20
-5134.0
 10
7458.0
 20
-2854.0
 10
7170.0
 20
-2854.0
  0
LWPOLYLINE
  5
27C
330
17
100
AcDbEntity
  8
EDGE_1MM
370
100
100
AcDbPolyline
 90
2
 70
0
 10
7170.0
 20
-2854.0
 10
7458.0
 20
-2854.0
  0
LWPOLYLINE
  5
27D
330
17
100
AcDbEntity
  8
EDGE_1MM
370
100
100
AcDbPolyline
 90
2
 70
0
 10
7170.0
 20
-5134.0
 10
7458.0
 20
-5134.0
  0
LWPOLYLINE
  5
27E
330
17
100
AcDbEntity
  8
EDGE_1MM
370
100
100
AcDbPolyline
 90
2
 70
0
 10
7170.0
 20
-5134.0
 10
7170.0
 20
-2854.0
  0
LWPOLYLINE
  5
27F
330
17
100
AcDbEntity
  8
EDGE_1MM
370
100
100
AcDbPolyline
 90
2
 70
0
 10
7458.0
 20
-5134.0
 10
7458.0
 20
-2854.0
  0
TEXT
  5
280
330
17
100
AcDbEntity
  8
TITLE
100
AcDbText
 10
7170.0
 20
-5189.0
 30
0.0
 40
30.0
  1
P_Cabinet_001_Unit_R_DOOR1  2 扇门之第 1 扇
  7
HZ
 11
7170.0
 21
-5189.0
 31
0.0
100
AcDbText
  0
TEXT
  5
281
330
17
100
AcDbEntity
  8
NOTE
100
AcDbText
 10
7170.0
 20
-5231.0
 30
0.0
 40
30.0
  1
2280 × 288 × 18   数量 1
  7
HZ
 11
7170.0
 21
-5231.0
 31
0.0
100
AcDbText
  0
TEXT
  5
282
330
17
100
AcDbEntity
  8
NOTE
100
AcDbText
 10
7170.0
 20
-5273.0
 30
0.0
 40
26.0
  1
M_BOARD_18_WOOD  封边：四周 1mm（可见面）
  7
HZ
 11
7170.0
 21
-5273.0
 31
0.0
100
AcDbText
  0
TEXT
  5
283
330
17
100
AcDbEntity
  8
NOTE
100
AcDbText
 10
6980.0
 20
-3994.0
 30
0.0
 40
24.0
  1
封边
  7
HZ
 11
6980.0
 21
-3994.0
 31
0.0
100
AcDbText
  0
TEXT
  5
284
330
17
100
AcDbEntity
  8
NOTE
100
AcDbText
 10
7274.0
 20
-2842.0
 30
0.0
 40
24.0
  1
封边
  7
HZ
 11
7274.0
 21
-2842.0
 31
0.0
100
AcDbText
  0
DIMENSION
  5
285
330
17
100
AcDbEntity
  8
0
100
AcDbDimension
  2
*D26
  3
FURN
 10
7050.0
 20
-5134.0
 30
0.0
 11
7037.4
 21
-3994.0
 31
0.0
 70
32
 71
5
  1
<>
100
AcDbAlignedDimension
 13
7170.0
 23
-5134.0
 33
0.0
 14
7170.0
 24
-2854.0
 34
0.0
 50
90.0
100
AcDbRotatedDimension
  0
DIMENSION
  5
294
330
17
100
AcDbEntity
  8
0
100
AcDbDimension
  2
*D27
  3
FURN
 10
7170.0
 20
-5254.0
 30
0.0
 11
7314.0
 21
-5241.4
 31
0.0
 70
32
 71
5
  1
<>
100
AcDbAlignedDimension
 13
7170.0
 23
-5134.0
 33
0.0
 14
7458.0
 24
-5134.0
 34
0.0
 50
0.0
100
AcDbRotatedDimension
  0
LWPOLYLINE
  5
2A3
330
17
100
AcDbEntity
  8
PANEL_18
100
AcDbPolyline
 90
4
 70
1
 10
8158.0
 20
-5134.0
 10
8445.0
 20
-5134.0
 10
8445.0
 20
-2854.0
 10
8158.0
 20
-2854.0
  0
LWPOLYLINE
  5
2A4
330
17
100
AcDbEntity
  8
EDGE_1MM
370
100
100
AcDbPolyline
 90
2
 70
0
 10
8158.0
 20
-2854.0
 10
8445.0
 20
-2854.0
  0
LWPOLYLINE
  5
2A5
330
17
100
AcDbEntity
  8
EDGE_1MM
370
100
100
AcDbPolyline
 90
2
 70
0
 10
8158.0
 20
-5134.0
 10
8445.0
 20
-5134.0
  0
LWPOLYLINE
  5
2A6
330
17
100
AcDbEntity
  8
EDGE_1MM
370
100
100
AcDbPolyline
 90
2
 70
0
 10
8158.0
 20
-5134.0
 10
8158.0
 20
-2854.0
  0
LWPOLYLINE
  5
2A7
330
17
100
AcDbEntity
  8
EDGE_1MM
370
100
100
AcDbPolyline
 90
2
 70
0
 10
8445.0
 20
-5134.0
 10
8445.0
 20
-2854.0
  0
TEXT
  5
2A8
330
17
100
AcDbEntity
  8
TITLE
100
AcDbText
 10
8158.0
 20
-5189.0
 30
0.0
 40
30.0
  1
P_Cabinet_001_Unit_R_DOOR2  2 扇门之第 2 扇
  7
HZ
 11
8158.0
 21
-5189.0
 31
0.0
100
AcDbText
  0
TEXT
  5
2A9
330
17
100
AcDbEntity
  8
NOTE
100
AcDbText
 10
8158.0
 20
-5231.0
 30
0.0
 40
30.0
  1
2280 × 287 × 18   数量 1
  7
HZ
 11
8158.0
 21
-5231.0
 31
0.0
100
AcDbText
  0
TEXT
  5
2AA
330
17
100
AcDbEntity
  8
NOTE
100
AcDbText
 10
8158.0
 20
-5273.0
 30
0.0
 40
26.0
  1
M_BOARD_18_WOOD  封边：四周 1mm（可见面）
  7
HZ
 11
8158.0
 21
-5273.0
 31
0.0
100
AcDbText
  0
TEXT
  5
2AB
330
17
100
AcDbEntity
  8
NOTE
100
AcDbText
 10
7968.0
 20
-3994.0
 30
0.0
 40
24.0
  1
封边
  7
HZ
 11
7968.0
 21
-3994.0
 31
0.0
100
AcDbText
  0
TEXT
  5
2AC
330
17
100
AcDbEntity
  8
NOTE
100
AcDbText
 10
8261.5
 20
-2842.0
 30
0.0
 40
24.0
  1
封边
  7
HZ
 11
8261.5
 21
-2842.0
 31
0.0
100
AcDbText
  0
DIMENSION
  5
2AD
330
17
100
AcDbEntity
  8
0
100
AcDbDimension
  2
*D28
  3
FURN
 10
8038.0
 20
-5134.0
 30
0.0
 11
8025.4
 21
-3994.0
 31
0.0
 70
32
 71
5
  1
<>
100
AcDbAlignedDimension
 13
8158.0
 23
-5134.0
 33
0.0
 14
8158.0
 24
-2854.0
 34
0.0
 50
90.0
100
AcDbRotatedDimension
  0
DIMENSION
  5
2BC
330
17
100
AcDbEntity
  8
0
100
AcDbDimension
  2
*D29
  3
FURN
 10
8158.0
 20
-5254.0
 30
0.0
 11
8301.5
 21
-5241.4
 31
0.0
 70
32
 71
5
  1
<>
100
AcDbAlignedDimension
 13
8158.0
 23
-5134.0
 33
0.0
 14
8445.0
 24
-5134.0
 34
0.0
 50
0.0
100
AcDbRotatedDimension
  0
LWPOLYLINE
  5
2CB
330
17
100
AcDbEntity
  8
PANEL_18
100
AcDbPolyline
 90
4
 70
1
 10
9145.0
 20
-3610.0
 10
9723.0
 20
-3610.0
 10
9723.0
 20
-2854.0
 10
9145.0
 20
-2854.0
  0
LWPOLYLINE
  5
2CC
330
17
100
AcDbEntity
  8
EDGE_1MM
370
100
100
AcDbPolyline
 90
2
 70
0
 10
9145.0
 20
-2854.0
 10
9723.0
 20
-2854.0
  0
LWPOLYLINE
  5
2CD
330
17
100
AcDbEntity
  8
EDGE_1MM
370
100
100
AcDbPolyline
 90
2
 70
0
 10
9145.0
 20
-3610.0
 10
9723.0
 20
-3610.0
  0
LWPOLYLINE
  5
2CE
330
17
100
AcDbEntity
  8
EDGE_1MM
370
100
100
AcDbPolyline
 90
2
 70
0
 10
9145.0
 20
-3610.0
 10
9145.0
 20
-2854.0
  0
LWPOLYLINE
  5
2CF
330
17
100
AcDbEntity
  8
EDGE_1MM
370
100
100
AcDbPolyline
 90
2
 70
0
 10
9723.0
 20
-3610.0
 10
9723.0
 20
-2854.0
  0
TEXT
  5
2D0
330
17
100
AcDbEntity
  8
TITLE
100
AcDbText
 10
9145.0
 20
-3665.0
 30
0.0
 40
30.0
  1
P_Cabinet_001_Unit_L_DF1  抽屉面板-1
  7
HZ
 11
9145.0
 21
-3665.0
 31
0.0
100
AcDbText
  0
TEXT
  5
2D1
330
17
100
AcDbEntity
  8
NOTE
100
AcDbText
 10
9145.0
 20
-3707.0
 30
0.0
 40
30.0
  1
756 × 578 × 18   数量 1
  7
HZ
 11
9145.0
 21
-3707.0
 31
0.0
100
AcDbText
  0
TEXT
  5
2D2
330
17
100
AcDbEntity
  8
NOTE
100
AcDbText
 10
9145.0
 20
-3749.0
 30
0.0
 40
26.0
  1
M_BOARD_18_WOOD  封边：四周 1mm（可见面）
  7
HZ
 11
9145.0
 21
-3749.0
 31
0.0
100
AcDbText
  0
TEXT
  5
2D3
330
17
100
AcDbEntity
  8
NOTE
100
AcDbText
 10
8955.0
 20
-3232.0
 30
0.0
 40
24.0
  1
封边
  7
HZ
 11
8955.0
 21
-3232.0
 31
0.0
100
AcDbText
  0
TEXT
  5
2D4
330
17
100
AcDbEntity
  8
NOTE
100
AcDbText
 10
9394.0
 20
-2842.0
 30
0.0
 40
24.0
  1
封边
  7
HZ
 11
9394.0
 21
-2842.0
 31
0.0
100
AcDbText
  0
DIMENSION
  5
2D5
330
17
100
AcDbEntity
  8
0
100
AcDbDimension
  2
*D30
  3
FURN
 10
9025.0
 20
-3610.0
 30
0.0
 11
9012.4
 21
-3232.0
 31
0.0
 70
32
 71
5
  1
<>
100
AcDbAlignedDimension
 13
9145.0
 23
-3610.0
 33
0.0
 14
9145.0
 24
-2854.0
 34
0.0
 50
90.0
100
AcDbRotatedDimension
  0
DIMENSION
  5
2E4
330
17
100
AcDbEntity
  8
0
100
AcDbDimension
  2
*D31
  3
FURN
 10
9145.0
 20
-3730.0
 30
0.0
 11
9434.0
 21
-3717.4
 31
0.0
 70
32
 71
5
  1
<>
100
AcDbAlignedDimension
 13
9145.0
 23
-3610.0
 33
0.0
 14
9723.0
 24
-3610.0
 34
0.0
 50
0.0
100
AcDbRotatedDimension
  0
LWPOLYLINE
  5
2F3
330
17
100
AcDbEntity
  8
PANEL_18
100
AcDbPolyline
 90
4
 70
1
 10
4600.0
 20
-6762.0
 10
5178.0
 20
-6762.0
 10
5178.0
 20
-6008.0
 10
4600.0
 20
-6008.0
  0
LWPOLYLINE
  5
2F4
330
17
100
AcDbEntity
  8
EDGE_1MM
370
100
100
AcDbPolyline
 90
2
 70
0
 10
4600.0
 20
-6008.0
 10
5178.0
 20
-6008.0
  0
LWPOLYLINE
  5
2F5
330
17
100
AcDbEntity
  8
EDGE_1MM
370
100
100
AcDbPolyline
 90
2
 70
0
 10
4600.0
 20
-6762.0
 10
5178.0
 20
-6762.0
  0
LWPOLYLINE
  5
2F6
330
17
100
AcDbEntity
  8
EDGE_1MM
370
100
100
AcDbPolyline
 90
2
 70
0
 10
4600.0
 20
-6762.0
 10
4600.0
 20
-6008.0
  0
LWPOLYLINE
  5
2F7
330
17
100
AcDbEntity
  8
EDGE_1MM
370
100
100
AcDbPolyline
 90
2
 70
0
 10
5178.0
 20
-6762.0
 10
5178.0
 20
-6008.0
  0
TEXT
  5
2F8
330
17
100
AcDbEntity
  8
TITLE
100
AcDbText
 10
4600.0
 20
-6817.0
 30
0.0
 40
30.0
  1
P_Cabinet_001_Unit_L_DF2  抽屉面板-2
  7
HZ
 11
4600.0
 21
-6817.0
 31
0.0
100
AcDbText
  0
TEXT
  5
2F9
330
17
100
AcDbEntity
  8
NOTE
100
AcDbText
 10
4600.0
 20
-6859.0
 30
0.0
 40
30.0
  1
754 × 578 × 18   数量 1
  7
HZ
 11
4600.0
 21
-6859.0
 31
0.0
100
AcDbText
  0
TEXT
  5
2FA
330
17
100
AcDbEntity
  8
NOTE
100
AcDbText
 10
4600.0
 20
-6901.0
 30
0.0
 40
26.0
  1
M_BOARD_18_WOOD  封边：四周 1mm（可见面）
  7
HZ
 11
4600.0
 21
-6901.0
 31
0.0
100
AcDbText
  0
TEXT
  5
2FB
330
17
100
AcDbEntity
  8
NOTE
100
AcDbText
 10
4410.0
 20
-6385.0
 30
0.0
 40
24.0
  1
封边
  7
HZ
 11
4410.0
 21
-6385.0
 31
0.0
100
AcDbText
  0
TEXT
  5
2FC
330
17
100
AcDbEntity
  8
NOTE
100
AcDbText
 10
4849.0
 20
-5996.0
 30
0.0
 40
24.0
  1
封边
  7
HZ
 11
4849.0
 21
-5996.0
 31
0.0
100
AcDbText
  0
DIMENSION
  5
2FD
330
17
100
AcDbEntity
  8
0
100
AcDbDimension
  2
*D32
  3
FURN
 10
4480.0
 20
-6762.0
 30
0.0
 11
4467.4
 21
-6385.0
 31
0.0
 70
32
 71
5
  1
<>
100
AcDbAlignedDimension
 13
4600.0
 23
-6762.0
 33
0.0
 14
4600.0
 24
-6008.0
 34
0.0
 50
90.0
100
AcDbRotatedDimension
  0
DIMENSION
  5
30C
330
17
100
AcDbEntity
  8
0
100
AcDbDimension
  2
*D33
  3
FURN
 10
4600.0
 20
-6882.0
 30
0.0
 11
4889.0
 21
-6869.4
 31
0.0
 70
32
 71
5
  1
<>
100
AcDbAlignedDimension
 13
4600.0
 23
-6762.0
 33
0.0
 14
5178.0
 24
-6762.0
 34
0.0
 50
0.0
100
AcDbRotatedDimension
  0
LWPOLYLINE
  5
31B
330
17
100
AcDbEntity
  8
PANEL_18
100
AcDbPolyline
 90
4
 70
1
 10
5878.0
 20
-6762.0
 10
6456.0
 20
-6762.0
 10
6456.0
 20
-6008.0
 10
5878.0
 20
-6008.0
  0
LWPOLYLINE
  5
31C
330
17
100
AcDbEntity
  8
EDGE_1MM
370
100
100
AcDbPolyline
 90
2
 70
0
 10
5878.0
 20
-6008.0
 10
6456.0
 20
-6008.0
  0
LWPOLYLINE
  5
31D
330
17
100
AcDbEntity
  8
EDGE_1MM
370
100
100
AcDbPolyline
 90
2
 70
0
 10
5878.0
 20
-6762.0
 10
6456.0
 20
-6762.0
  0
LWPOLYLINE
  5
31E
330
17
100
AcDbEntity
  8
EDGE_1MM
370
100
100
AcDbPolyline
 90
2
 70
0
 10
5878.0
 20
-6762.0
 10
5878.0
 20
-6008.0
  0
LWPOLYLINE
  5
31F
330
17
100
AcDbEntity
  8
EDGE_1MM
370
100
100
AcDbPolyline
 90
2
 70
0
 10
6456.0
 20
-6762.0
 10
6456.0
 20
-6008.0
  0
TEXT
  5
320
330
17
100
AcDbEntity
  8
TITLE
100
AcDbText
 10
5878.0
 20
-6817.0
 30
0.0
 40
30.0
  1
P_Cabinet_001_Unit_L_DF3  抽屉面板-3
  7
HZ
 11
5878.0
 21
-6817.0
 31
0.0
100
AcDbText
  0
TEXT
  5
321
330
17
100
AcDbEntity
  8
NOTE
100
AcDbText
 10
5878.0
 20
-6859.0
 30
0.0
 40
30.0
  1
754 × 578 × 18   数量 1
  7
HZ
 11
5878.0
 21
-6859.0
 31
0.0
100
AcDbText
  0
TEXT
  5
322
330
17
100
AcDbEntity
  8
NOTE
100
AcDbText
 10
5878.0
 20
-6901.0
 30
0.0
 40
26.0
  1
M_BOARD_18_WOOD  封边：四周 1mm（可见面）
  7
HZ
 11
5878.0
 21
-6901.0
 31
0.0
100
AcDbText
  0
TEXT
  5
323
330
17
100
AcDbEntity
  8
NOTE
100
AcDbText
 10
5688.0
 20
-6385.0
 30
0.0
 40
24.0
  1
封边
  7
HZ
 11
5688.0
 21
-6385.0
 31
0.0
100
AcDbText
  0
TEXT
  5
324
330
17
100
AcDbEntity
  8
NOTE
100
AcDbText
 10
6127.0
 20
-5996.0
 30
0.0
 40
24.0
  1
封边
  7
HZ
 11
6127.0
 21
-5996.0
 31
0.0
100
AcDbText
  0
DIMENSION
  5
325
330
17
100
AcDbEntity
  8
0
100
AcDbDimension
  2
*D34
  3
FURN
 10
5758.0
 20
-6762.0
 30
0.0
 11
5745.4
 21
-6385.0
 31
0.0
 70
32
 71
5
  1
<>
100
AcDbAlignedDimension
 13
5878.0
 23
-6762.0
 33
0.0
 14
5878.0
 24
-6008.0
 34
0.0
 50
90.0
100
AcDbRotatedDimension
  0
DIMENSION
  5
334
330
17
100
AcDbEntity
  8
0
100
AcDbDimension
  2
*D35
  3
FURN
 10
5878.0
 20
-6882.0
 30
0.0
 11
6167.0
 21
-6869.4
 31
0.0
 70
32
 71
5
  1
<>
100
AcDbAlignedDimension
 13
5878.0
 23
-6762.0
 33
0.0
 14
6456.0
 24
-6762.0
 34
0.0
 50
0.0
100
AcDbRotatedDimension
  0
LWPOLYLINE
  5
343
330
17
100
AcDbEntity
  8
PANEL_15
100
AcDbPolyline
 90
4
 70
1
 10
7156.0
 20
-6535.0
 10
7882.0
 20
-6535.0
 10
7882.0
 20
-6008.0
 10
7156.0
 20
-6008.0
  0
LWPOLYLINE
  5
344
330
17
100
AcDbEntity
  8
EDGE_1MM
370
100
100
AcDbPolyline
 90
2
 70
0
 10
7156.0
 20
-6008.0
 10
7882.0
 20
-6008.0
  0
LWPOLYLINE
  5
345
330
17
100
AcDbEntity
  8
EDGE_NONE
370
9
100
AcDbPolyline
 90
2
 70
0
 10
7156.0
 20
-6535.0
 10
7882.0
 20
-6535.0
  0
LWPOLYLINE
  5
346
330
17
100
AcDbEntity
  8
EDGE_NONE
370
9
100
AcDbPolyline
 90
2
 70
0
 10
7156.0
 20
-6535.0
 10
7156.0
 20
-6008.0
  0
LWPOLYLINE
  5
347
330
17
100
AcDbEntity
  8
EDGE_NONE
370
9
100
AcDbPolyline
 90
2
 70
0
 10
7882.0
 20
-6535.0
 10
7882.0
 20
-6008.0
  0
TEXT
  5
348
330
17
100
AcDbEntity
  8
TITLE
100
AcDbText
 10
7156.0
 20
-6590.0
 30
0.0
 40
30.0
  1
P_Cabinet_001_Unit_L_DB1  抽屉后板-1
  7
HZ
 11
7156.0
 21
-6590.0
 31
0.0
100
AcDbText
  0
TEXT
  5
349
330
17
100
AcDbEntity
  8
NOTE
100
AcDbText
 10
7156.0
 20
-6632.0
 30
0.0
 40
30.0
  1
527 × 726 × 15   数量 1
  7
HZ
 11
7156.0
 21
-6632.0
 31
0.0
100
AcDbText
  0
TEXT
  5
34A
330
17
100
AcDbEntity
  8
NOTE
100
AcDbText
 10
7156.0
 20
-6674.0
 30
0.0
 40
26.0
  1
M_BOARD_15_WOOD  封边：上棱 1mm
  7
HZ
 11
7156.0
 21
-6674.0
 31
0.0
100
AcDbText
  0
TEXT
  5
34B
330
17
100
AcDbEntity
  8
NOTE
100
AcDbText
 10
7479.0
 20
-5996.0
 30
0.0
 40
24.0
  1
封边
  7
HZ
 11
7479.0
 21
-5996.0
 31
0.0
100
AcDbText
  0
DIMENSION
  5
34C
330
17
100
AcDbEntity
  8
0
100
AcDbDimension
  2
*D36
  3
FURN
 10
7036.0
 20
-6535.0
 30
0.0
 11
7023.4
 21
-6271.5
 31
0.0
 70
32
 71
5
  1
<>
100
AcDbAlignedDimension
 13
7156.0
 23
-6535.0
 33
0.0
 14
7156.0
 24
-6008.0
 34
0.0
 50
90.0
100
AcDbRotatedDimension
  0
DIMENSION
  5
35B
330
17
100
AcDbEntity
  8
0
100
AcDbDimension
  2
*D37
  3
FURN
 10
7156.0
 20
-6655.0
 30
0.0
 11
7519.0
 21
-6642.4
 31
0.0
 70
32
 71
5
  1
<>
100
AcDbAlignedDimension
 13
7156.0
 23
-6535.0
 33
0.0
 14
7882.0
 24
-6535.0
 34
0.0
 50
0.0
100
AcDbRotatedDimension
  0
LWPOLYLINE
  5
36A
330
17
100
AcDbEntity
  8
PANEL_15
100
AcDbPolyline
 90
4
 70
1
 10
8582.0
 20
-6535.0
 10
9306.0
 20
-6535.0
 10
9306.0
 20
-6008.0
 10
8582.0
 20
-6008.0
  0
LWPOLYLINE
  5
36B
330
17
100
AcDbEntity
  8
EDGE_1MM
370
100
100
AcDbPolyline
 90
2
 70
0
 10
8582.0
 20
-6008.0
 10
9306.0
 20
-6008.0
  0
LWPOLYLINE
  5
36C
330
17
100
AcDbEntity
  8
EDGE_NONE
370
9
100
AcDbPolyline
 90
2
 70
0
 10
8582.0
 20
-6535.0
 10
9306.0
 20
-6535.0
  0
LWPOLYLINE
  5
36D
330
17
100
AcDbEntity
  8
EDGE_NONE
370
9
100
AcDbPolyline
 90
2
 70
0
 10
8582.0
 20
-6535.0
 10
8582.0
 20
-6008.0
  0
LWPOLYLINE
  5
36E
330
17
100
AcDbEntity
  8
EDGE_NONE
370
9
100
AcDbPolyline
 90
2
 70
0
 10
9306.0
 20
-6535.0
 10
9306.0
 20
-6008.0
  0
TEXT
  5
36F
330
17
100
AcDbEntity
  8
TITLE
100
AcDbText
 10
8582.0
 20
-6590.0
 30
0.0
 40
30.0
  1
P_Cabinet_001_Unit_L_DB2  抽屉后板-2
  7
HZ
 11
8582.0
 21
-6590.0
 31
0.0
100
AcDbText
  0
TEXT
  5
370
330
17
100
AcDbEntity
  8
NOTE
100
AcDbText
 10
8582.0
 20
-6632.0
 30
0.0
 40
30.0
  1
527 × 724 × 15   数量 1
  7
HZ
 11
8582.0
 21
-6632.0
 31
0.0
100
AcDbText
  0
TEXT
  5
371
330
17
100
AcDbEntity
  8
NOTE
100
AcDbText
 10
8582.0
 20
-6674.0
 30
0.0
 40
26.0
  1
M_BOARD_15_WOOD  封边：上棱 1mm
  7
HZ
 11
8582.0
 21
-6674.0
 31
0.0
100
AcDbText
  0
TEXT
  5
372
330
17
100
AcDbEntity
  8
NOTE
100
AcDbText
 10
8904.0
 20
-5996.0
 30
0.0
 40
24.0
  1
封边
  7
HZ
 11
8904.0
 21
-5996.0
 31
0.0
100
AcDbText
  0
DIMENSION
  5
373
330
17
100
AcDbEntity
  8
0
100
AcDbDimension
  2
*D38
  3
FURN
 10
8462.0
 20
-6535.0
 30
0.0
 11
8449.4
 21
-6271.5
 31
0.0
 70
32
 71
5
  1
<>
100
AcDbAlignedDimension
 13
8582.0
 23
-6535.0
 33
0.0
 14
8582.0
 24
-6008.0
 34
0.0
 50
90.0
100
AcDbRotatedDimension
  0
DIMENSION
  5
382
330
17
100
AcDbEntity
  8
0
100
AcDbDimension
  2
*D39
  3
FURN
 10
8582.0
 20
-6655.0
 30
0.0
 11
8944.0
 21
-6642.4
 31
0.0
 70
32
 71
5
  1
<>
100
AcDbAlignedDimension
 13
8582.0
 23
-6535.0
 33
0.0
 14
9306.0
 24
-6535.0
 34
0.0
 50
0.0
100
AcDbRotatedDimension
  0
LWPOLYLINE
  5
391
330
17
100
AcDbEntity
  8
PANEL_15
100
AcDbPolyline
 90
4
 70
1
 10
10006.0
 20
-6535.0
 10
10730.0
 20
-6535.0
 10
10730.0
 20
-6008.0
 10
10006.0
 20
-6008.0
  0
LWPOLYLINE
  5
392
330
17
100
AcDbEntity
  8
EDGE_1MM
370
100
100
AcDbPolyline
 90
2
 70
0
 10
10006.0
 20
-6008.0
 10
10730.0
 20
-6008.0
  0
LWPOLYLINE
  5
393
330
17
100
AcDbEntity
  8
EDGE_NONE
370
9
100
AcDbPolyline
 90
2
 70
0
 10
10006.0
 20
-6535.0
 10
10730.0
 20
-6535.0
  0
LWPOLYLINE
  5
394
330
17
100
AcDbEntity
  8
EDGE_NONE
370
9
100
AcDbPolyline
 90
2
 70
0
 10
10006.0
 20
-6535.0
 10
10006.0
 20
-6008.0
  0
LWPOLYLINE
  5
395
330
17
100
AcDbEntity
  8
EDGE_NONE
370
9
100
AcDbPolyline
 90
2
 70
0
 10
10730.0
 20
-6535.0
 10
10730.0
 20
-6008.0
  0
TEXT
  5
396
330
17
100
AcDbEntity
  8
TITLE
100
AcDbText
 10
10006.0
 20
-6590.0
 30
0.0
 40
30.0
  1
P_Cabinet_001_Unit_L_DB3  抽屉后板-3
  7
HZ
 11
10006.0
 21
-6590.0
 31
0.0
100
AcDbText
  0
TEXT
  5
397
330
17
100
AcDbEntity
  8
NOTE
100
AcDbText
 10
10006.0
 20
-6632.0
 30
0.0
 40
30.0
  1
527 × 724 × 15   数量 1
  7
HZ
 11
10006.0
 21
-6632.0
 31
0.0
100
AcDbText
  0
TEXT
  5
398
330
17
100
AcDbEntity
  8
NOTE
100
AcDbText
 10
10006.0
 20
-6674.0
 30
0.0
 40
26.0
  1
M_BOARD_15_WOOD  封边：上棱 1mm
  7
HZ
 11
10006.0
 21
-6674.0
 31
0.0
100
AcDbText
  0
TEXT
  5
399
330
17
100
AcDbEntity
  8
NOTE
100
AcDbText
 10
10328.0
 20
-5996.0
 30
0.0
 40
24.0
  1
封边
  7
HZ
 11
10328.0
 21
-5996.0
 31
0.0
100
AcDbText
  0
DIMENSION
  5
39A
330
17
100
AcDbEntity
  8
0
100
AcDbDimension
  2
*D40
  3
FURN
 10
9886.0
 20
-6535.0
 30
0.0
 11
9873.4
 21
-6271.5
 31
0.0
 70
32
 71
5
  1
<>
100
AcDbAlignedDimension
 13
10006.0
 23
-6535.0
 33
0.0
 14
10006.0
 24
-6008.0
 34
0.0
 50
90.0
100
AcDbRotatedDimension
  0
DIMENSION
  5
3A9
330
17
100
AcDbEntity
  8
0
100
AcDbDimension
  2
*D41
  3
FURN
 10
10006.0
 20
-6655.0
 30
0.0
 11
10368.0
 21
-6642.4
 31
0.0
 70
32
 71
5
  1
<>
100
AcDbAlignedDimension
 13
10006.0
 23
-6535.0
 33
0.0
 14
10730.0
 24
-6535.0
 34
0.0
 50
0.0
100
AcDbRotatedDimension
  0
LWPOLYLINE
  5
3B8
330
17
100
AcDbEntity
  8
PANEL_15
100
AcDbPolyline
 90
4
 70
1
 10
4600.0
 20
-8132.0
 10
5326.0
 20
-8132.0
 10
5326.0
 20
-7632.0
 10
4600.0
 20
-7632.0
  0
LWPOLYLINE
  5
3B9
330
17
100
AcDbEntity
  8
EDGE_1MM
370
100
100
AcDbPolyline
 90
2
 70
0
 10
4600.0
 20
-7632.0
 10
5326.0
 20
-7632.0
  0
LWPOLYLINE
  5
3BA
330
17
100
AcDbEntity
  8
EDGE_NONE
370
9
100
AcDbPolyline
 90
2
 70
0
 10
4600.0
 20
-8132.0
 10
5326.0
 20
-8132.0
  0
LWPOLYLINE
  5
3BB
330
17
100
AcDbEntity
  8
EDGE_NONE
370
9
100
AcDbPolyline
 90
2
 70
0
 10
4600.0
 20
-8132.0
 10
4600.0
 20
-7632.0
  0
LWPOLYLINE
  5
3BC
330
17
100
AcDbEntity
  8
EDGE_NONE
370
9
100
AcDbPolyline
 90
2
 70
0
 10
5326.0
 20
-8132.0
 10
5326.0
 20
-7632.0
  0
TEXT
  5
3BD
330
17
100
AcDbEntity
  8
TITLE
100
AcDbText
 10
4600.0
 20
-8187.0
 30
0.0
 40
30.0
  1
P_Cabinet_001_Unit_L_DS1  抽屉侧板-1
  7
HZ
 11
4600.0
 21
-8187.0
 31
0.0
100
AcDbText
  0
TEXT
  5
3BE
330
17
100
AcDbEntity
  8
NOTE
100
AcDbText
 10
4600.0
 20
-8229.0
 30
0.0
 40
30.0
  1
500 × 726 × 15   数量 2
  7
HZ
 11
4600.0
 21
-8229.0
 31
0.0
100
AcDbText
  0
TEXT
  5
3BF
330
17
100
AcDbEntity
  8
NOTE
100
AcDbText
 10
4600.0
 20
-8271.0
 30
0.0
 40
26.0
  1
M_BOARD_15_WOOD  封边：上棱 1mm
  7
HZ
 11
4600.0
 21
-8271.0
 31
0.0
100
AcDbText
  0
TEXT
  5
3C0
330
17
100
AcDbEntity
  8
NOTE
100
AcDbText
 10
4923.0
 20
-7620.0
 30
0.0
 40
24.0
  1
封边
  7
HZ
 11
4923.0
 21
-7620.0
 31
0.0
100
AcDbText
  0
DIMENSION
  5
3C1
330
17
100
AcDbEntity
  8
0
100
AcDbDimension
  2
*D42
  3
FURN
 10
4480.0
 20
-8132.0
 30
0.0
 11
4467.4
 21
-7882.0
 31
0.0
 70
32
 71
5
  1
<>
100
AcDbAlignedDimension
 13
4600.0
 23
-8132.0
 33
0.0
 14
4600.0
 24
-7632.0
 34
0.0
 50
90.0
100
AcDbRotatedDimension
  0
DIMENSION
  5
3D0
330
17
100
AcDbEntity
  8
0
100
AcDbDimension
  2
*D43
  3
FURN
 10
4600.0
 20
-8252.0
 30
0.0
 11
4963.0
 21
-8239.4
 31
0.0
 70
32
 71
5
  1
<>
100
AcDbAlignedDimension
 13
4600.0
 23
-8132.0
 33
0.0
 14
5326.0
 24
-8132.0
 34
0.0
 50
0.0
100
AcDbRotatedDimension
  0
LWPOLYLINE
  5
3DF
330
17
100
AcDbEntity
  8
PANEL_15
100
AcDbPolyline
 90
4
 70
1
 10
6026.0
 20
-8132.0
 10
6750.0
 20
-8132.0
 10
6750.0
 20
-7632.0
 10
6026.0
 20
-7632.0
  0
LWPOLYLINE
  5
3E0
330
17
100
AcDbEntity
  8
EDGE_1MM
370
100
100
AcDbPolyline
 90
2
 70
0
 10
6026.0
 20
-7632.0
 10
6750.0
 20
-7632.0
  0
LWPOLYLINE
  5
3E1
330
17
100
AcDbEntity
  8
EDGE_NONE
370
9
100
AcDbPolyline
 90
2
 70
0
 10
6026.0
 20
-8132.0
 10
6750.0
 20
-8132.0
  0
LWPOLYLINE
  5
3E2
330
17
100
AcDbEntity
  8
EDGE_NONE
370
9
100
AcDbPolyline
 90
2
 70
0
 10
6026.0
 20
-8132.0
 10
6026.0
 20
-7632.0
  0
LWPOLYLINE
  5
3E3
330
17
100
AcDbEntity
  8
EDGE_NONE
370
9
100
AcDbPolyline
 90
2
 70
0
 10
6750.0
 20
-8132.0
 10
6750.0
 20
-7632.0
  0
TEXT
  5
3E4
330
17
100
AcDbEntity
  8
TITLE
100
AcDbText
 10
6026.0
 20
-8187.0
 30
0.0
 40
30.0
  1
P_Cabinet_001_Unit_L_DS2  抽屉侧板-2
  7
HZ
 11
6026.0
 21
-8187.0
 31
0.0
100
AcDbText
  0
TEXT
  5
3E5
330
17
100
AcDbEntity
  8
NOTE
100
AcDbText
 10
6026.0
 20
-8229.0
 30
0.0
 40
30.0
  1
500 × 724 × 15   数量 2
  7
HZ
 11
6026.0
 21
-8229.0
 31
0.0
100
AcDbText
  0
TEXT
  5
3E6
330
17
100
AcDbEntity
  8
NOTE
100
AcDbText
 10
6026.0
 20
-8271.0
 30
0.0
 40
26.0
  1
M_BOARD_15_WOOD  封边：上棱 1mm
  7
HZ
 11
6026.0
 21
-8271.0
 31
0.0
100
AcDbText
  0
TEXT
  5
3E7
330
17
100
AcDbEntity
  8
NOTE
100
AcDbText
 10
6348.0
 20
-7620.0
 30
0.0
 40
24.0
  1
封边
  7
HZ
 11
6348.0
 21
-7620.0
 31
0.0
100
AcDbText
  0
DIMENSION
  5
3E8
330
17
100
AcDbEntity
  8
0
100
AcDbDimension
  2
*D44
  3
FURN
 10
5906.0
 20
-8132.0
 30
0.0
 11
5893.4
 21
-7882.0
 31
0.0
 70
32
 71
5
  1
<>
100
AcDbAlignedDimension
 13
6026.0
 23
-8132.0
 33
0.0
 14
6026.0
 24
-7632.0
 34
0.0
 50
90.0
100
AcDbRotatedDimension
  0
DIMENSION
  5
3F7
330
17
100
AcDbEntity
  8
0
100
AcDbDimension
  2
*D45
  3
FURN
 10
6026.0
 20
-8252.0
 30
0.0
 11
6388.0
 21
-8239.4
 31
0.0
 70
32
 71
5
  1
<>
100
AcDbAlignedDimension
 13
6026.0
 23
-8132.0
 33
0.0
 14
6750.0
 24
-8132.0
 34
0.0
 50
0.0
100
AcDbRotatedDimension
  0
LWPOLYLINE
  5
406
330
17
100
AcDbEntity
  8
PANEL_15
100
AcDbPolyline
 90
4
 70
1
 10
7450.0
 20
-8132.0
 10
8174.0
 20
-8132.0
 10
8174.0
 20
-7632.0
 10
7450.0
 20
-7632.0
  0
LWPOLYLINE
  5
407
330
17
100
AcDbEntity
  8
EDGE_1MM
370
100
100
AcDbPolyline
 90
2
 70
0
 10
7450.0
 20
-7632.0
 10
8174.0
 20
-7632.0
  0
LWPOLYLINE
  5
408
330
17
100
AcDbEntity
  8
EDGE_NONE
370
9
100
AcDbPolyline
 90
2
 70
0
 10
7450.0
 20
-8132.0
 10
8174.0
 20
-8132.0
  0
LWPOLYLINE
  5
409
330
17
100
AcDbEntity
  8
EDGE_NONE
370
9
100
AcDbPolyline
 90
2
 70
0
 10
7450.0
 20
-8132.0
 10
7450.0
 20
-7632.0
  0
LWPOLYLINE
  5
40A
330
17
100
AcDbEntity
  8
EDGE_NONE
370
9
100
AcDbPolyline
 90
2
 70
0
 10
8174.0
 20
-8132.0
 10
8174.0
 20
-7632.0
  0
TEXT
  5
40B
330
17
100
AcDbEntity
  8
TITLE
100
AcDbText
 10
7450.0
 20
-8187.0
 30
0.0
 40
30.0
  1
P_Cabinet_001_Unit_L_DS3  抽屉侧板-3
  7
HZ
 11
7450.0
 21
-8187.0
 31
0.0
100
AcDbText
  0
TEXT
  5
40C
330
17
100
AcDbEntity
  8
NOTE
100
AcDbText
 10
7450.0
 20
-8229.0
 30
0.0
 40
30.0
  1
500 × 724 × 15   数量 2
  7
HZ
 11
7450.0
 21
-8229.0
 31
0.0
100
AcDbText
  0
TEXT
  5
40D
330
17
100
AcDbEntity
  8
NOTE
100
AcDbText
 10
7450.0
 20
-8271.0
 30
0.0
 40
26.0
  1
M_BOARD_15_WOOD  封边：上棱 1mm
  7
HZ
 11
7450.0
 21
-8271.0
 31
0.0
100
AcDbText
  0
TEXT
  5
40E
330
17
100
AcDbEntity
  8
NOTE
100
AcDbText
 10
7772.0
 20
-7620.0
 30
0.0
 40
24.0
  1
封边
  7
HZ
 11
7772.0
 21
-7620.0
 31
0.0
100
AcDbText
  0
DIMENSION
  5
40F
330
17
100
AcDbEntity
  8
0
100
AcDbDimension
  2
*D46
  3
FURN
 10
7330.0
 20
-8132.0
 30
0.0
 11
7317.4
 21
-7882.0
 31
0.0
 70
32
 71
5
  1
<>
100
AcDbAlignedDimension
 13
7450.0
 23
-8132.0
 33
0.0
 14
7450.0
 24
-7632.0
 34
0.0
 50
90.0
100
AcDbRotatedDimension
  0
DIMENSION
  5
41E
330
17
100
AcDbEntity
  8
0
100
AcDbDimension
  2
*D47
  3
FURN
 10
7450.0
 20
-8252.0
 30
0.0
 11
7812.0
 21
-8239.4
 31
0.0
 70
32
 71
5
  1
<>
100
AcDbAlignedDimension
 13
7450.0
 23
-8132.0
 33
0.0
 14
8174.0
 24
-8132.0
 34
0.0
 50
0.0
100
AcDbRotatedDimension
  0
LWPOLYLINE
  5
42D
330
17
100
AcDbEntity
  8
PANEL_18
100
AcDbPolyline
 90
4
 70
1
 10
8874.0
 20
-8213.0
 10
9444.0
 20
-8213.0
 10
9444.0
 20
-7632.0
 10
8874.0
 20
-7632.0
  0
LWPOLYLINE
  5
42E
330
17
100
AcDbEntity
  8
EDGE_1MM
370
100
100
AcDbPolyline
 90
2
 70
0
 10
8874.0
 20
-7632.0
 10
9444.0
 20
-7632.0
  0
LWPOLYLINE
  5
42F
330
17
100
AcDbEntity
  8
EDGE_NONE
370
9
100
AcDbPolyline
 90
2
 70
0
 10
8874.0
 20
-8213.0
 10
9444.0
 20
-8213.0
  0
LWPOLYLINE
  5
430
330
17
100
AcDbEntity
  8
EDGE_1MM
370
100
100
AcDbPolyline
 90
2
 70
0
 10
8874.0
 20
-8213.0
 10
8874.0
 20
-7632.0
  0
LWPOLYLINE
  5
431
330
17
100
AcDbEntity
  8
EDGE_NONE
370
9
100
AcDbPolyline
 90
2
 70
0
 10
9444.0
 20
-8213.0
 10
9444.0
 20
-7632.0
  0
TEXT
  5
432
330
17
100
AcDbEntity
  8
TITLE
100
AcDbText
 10
8874.0
 20
-8268.0
 30
0.0
 40
30.0
  1
P_Cabinet_001_Unit_R_SH1  层板-1
  7
HZ
 11
8874.0
 21
-8268.0
 31
0.0
100
AcDbText
  0
TEXT
  5
433
330
17
100
AcDbEntity
  8
NOTE
100
AcDbText
 10
8874.0
 20
-8310.0
 30
0.0
 40
30.0
  1
581 × 570 × 18   数量 1
  7
HZ
 11
8874.0
 21
-8310.0
 31
0.0
100
AcDbText
  0
TEXT
  5
434
330
17
100
AcDbEntity
  8
NOTE
100
AcDbText
 10
8874.0
 20
-8352.0
 30
0.0
 40
26.0
  1
M_BOARD_18_WOOD  封边：前边 1mm；位置：距柜内底 457mm
  7
HZ
 11
8874.0
 21
-8352.0
 31
0.0
100
AcDbText
  0
TEXT
  5
435
330
17
100
AcDbEntity
  8
NOTE
100
AcDbText
 10
8684.0
 20
-7922.5
 30
0.0
 40
24.0
  1
封边
  7
HZ
 11
8684.0
 21
-7922.5
 31
0.0
100
AcDbText
  0
TEXT
  5
436
330
17
100
AcDbEntity
  8
NOTE
100
AcDbText
 10
9119.0
 20
-7620.0
 30
0.0
 40
24.0
  1
封边
  7
HZ
 11
9119.0
 21
-7620.0
 31
0.0
100
AcDbText
  0
DIMENSION
  5
437
330
17
100
AcDbEntity
  8
0
100
AcDbDimension
  2
*D48
  3
FURN
 10
8754.0
 20
-8213.0
 30
0.0
 11
8741.4
 21
-7922.5
 31
0.0
 70
32
 71
5
  1
<>
100
AcDbAlignedDimension
 13
8874.0
 23
-8213.0
 33
0.0
 14
8874.0
 24
-7632.0
 34
0.0
 50
90.0
100
AcDbRotatedDimension
  0
DIMENSION
  5
446
330
17
100
AcDbEntity
  8
0
100
AcDbDimension
  2
*D49
  3
FURN
 10
8874.0
 20
-8333.0
 30
0.0
 11
9159.0
 21
-8320.4
 31
0.0
 70
32
 71
5
  1
<>
100
AcDbAlignedDimension
 13
8874.0
 23
-8213.0
 33
0.0
 14
9444.0
 24
-8213.0
 34
0.0
 50
0.0
100
AcDbRotatedDimension
  0
LWPOLYLINE
  5
455
330
17
100
AcDbEntity
  8
PANEL_18
100
AcDbPolyline
 90
4
 70
1
 10
10144.0
 20
-8213.0
 10
10714.0
 20
-8213.0
 10
10714.0
 20
-7632.0
 10
10144.0
 20
-7632.0
  0
LWPOLYLINE
  5
456
330
17
100
AcDbEntity
  8
EDGE_1MM
370
100
100
AcDbPolyline
 90
2
 70
0
 10
10144.0
 20
-7632.0
 10
10714.0
 20
-7632.0
  0
LWPOLYLINE
  5
457
330
17
100
AcDbEntity
  8
EDGE_NONE
370
9
100
AcDbPolyline
 90
2
 70
0
 10
10144.0
 20
-8213.0
 10
10714.0
 20
-8213.0
  0
LWPOLYLINE
  5
458
330
17
100
AcDbEntity
  8
EDGE_1MM
370
100
100
AcDbPolyline
 90
2
 70
0
 10
10144.0
 20
-8213.0
 10
10144.0
 20
-7632.0
  0
LWPOLYLINE
  5
459
330
17
100
AcDbEntity
  8
EDGE_NONE
370
9
100
AcDbPolyline
 90
2
 70
0
 10
10714.0
 20
-8213.0
 10
10714.0
 20
-7632.0
  0
TEXT
  5
45A
330
17
100
AcDbEntity
  8
TITLE
100
AcDbText
 10
10144.0
 20
-8268.0
 30
0.0
 40
30.0
  1
P_Cabinet_001_Unit_R_SH2  层板-2
  7
HZ
 11
10144.0
 21
-8268.0
 31
0.0
100
AcDbText
  0
TEXT
  5
45B
330
17
100
AcDbEntity
  8
NOTE
100
AcDbText
 10
10144.0
 20
-8310.0
 30
0.0
 40
30.0
  1
581 × 570 × 18   数量 1
  7
HZ
 11
10144.0
 21
-8310.0
 31
0.0
100
AcDbText
  0
TEXT
  5
45C
330
17
100
AcDbEntity
  8
NOTE
100
AcDbText
 10
10144.0
 20
-8352.0
 30
0.0
 40
26.0
  1
M_BOARD_18_WOOD  封边：前边 1mm；位置：距柜内底 914mm
  7
HZ
 11
10144.0
 21
-8352.0
 31
0.0
100
AcDbText
  0
TEXT
  5
45D
330
17
100
AcDbEntity
  8
NOTE
100
AcDbText
 10
9954.0
 20
-7922.5
 30
0.0
 40
24.0
  1
封边
  7
HZ
 11
9954.0
 21
-7922.5
 31
0.0
100
AcDbText
  0
TEXT
  5
45E
330
17
100
AcDbEntity
  8
NOTE
100
AcDbText
 10
10389.0
 20
-7620.0
 30
0.0
 40
24.0
  1
封边
  7
HZ
 11
10389.0
 21
-7620.0
 31
0.0
100
AcDbText
  0
DIMENSION
  5
45F
330
17
100
AcDbEntity
  8
0
100
AcDbDimension
  2
*D50
  3
FURN
 10
10024.0
 20
-8213.0
 30
0.0
 11
10011.4
 21
-7922.5
 31
0.0
 70
32
 71
5
  1
<>
100
AcDbAlignedDimension
 13
10144.0
 23
-8213.0
 33
0.0
 14
10144.0
 24
-7632.0
 34
0.0
 50
90.0
100
AcDbRotatedDimension
  0
DIMENSION
  5
46E
330
17
100
AcDbEntity
  8
0
100
AcDbDimension
  2
*D51
  3
FURN
 10
10144.0
 20
-8333.0
 30
0.0
 11
10429.0
 21
-8320.4
 31
0.0
 70
32
 71
5
  1
<>
100
AcDbAlignedDimension
 13
10144.0
 23
-8213.0
 33
0.0
 14
10714.0
 24
-8213.0
 34
0.0
 50
0.0
100
AcDbRotatedDimension
  0
LWPOLYLINE
  5
47D
330
17
100
AcDbEntity
  8
PANEL_18
100
AcDbPolyline
 90
4
 70
1
 10
4600.0
 20
-9664.0
 10
5170.0
 20
-9664.0
 10
5170.0
 20
-9083.0
 10
4600.0
 20
-9083.0
  0
LWPOLYLINE
  5
47E
330
17
100
AcDbEntity
  8
EDGE_1MM
370
100
100
AcDbPolyline
 90
2
 70
0
 10
4600.0
 20
-9083.0
 10
5170.0
 20
-9083.0
  0
LWPOLYLINE
  5
47F
330
17
100
AcDbEntity
  8
EDGE_NONE
370
9
100
AcDbPolyline
 90
2
 70
0
 10
4600.0
 20
-9664.0
 10
5170.0
 20
-9664.0
  0
LWPOLYLINE
  5
480
330
17
100
AcDbEntity
  8
EDGE_1MM
370
100
100
AcDbPolyline
 90
2
 70
0
 10
4600.0
 20
-9664.0
 10
4600.0
 20
-9083.0
  0
LWPOLYLINE
  5
481
330
17
100
AcDbEntity
  8
EDGE_NONE
370
9
100
AcDbPolyline
 90
2
 70
0
 10
5170.0
 20
-9664.0
 10
5170.0
 20
-9083.0
  0
TEXT
  5
482
330
17
100
AcDbEntity
  8
TITLE
100
AcDbText
 10
4600.0
 20
-9719.0
 30
0.0
 40
30.0
  1
P_Cabinet_001_Unit_R_SH3  层板-3
  7
HZ
 11
4600.0
 21
-9719.0
 31
0.0
100
AcDbText
  0
TEXT
  5
483
330
17
100
AcDbEntity
  8
NOTE
100
AcDbText
 10
4600.0
 20
-9761.0
 30
0.0
 40
30.0
  1
581 × 570 × 18   数量 1
  7
HZ
 11
4600.0
 21
-9761.0
 31
0.0
100
AcDbText
  0
TEXT
  5
484
330
17
100
AcDbEntity
  8
NOTE
100
AcDbText
 10
4600.0
 20
-9803.0
 30
0.0
 40
26.0
  1
M_BOARD_18_WOOD  封边：前边 1mm；位置：距柜内底 1370mm
  7
HZ
 11
4600.0
 21
-9803.0
 31
0.0
100
AcDbText
  0
TEXT
  5
485
330
17
100
AcDbEntity
  8
NOTE
100
AcDbText
 10
4410.0
 20
-9373.5
 30
0.0
 40
24.0
  1
封边
  7
HZ
 11
4410.0
 21
-9373.5
 31
0.0
100
AcDbText
  0
TEXT
  5
486
330
17
100
AcDbEntity
  8
NOTE
100
AcDbText
 10
4845.0
 20
-9071.0
 30
0.0
 40
24.0
  1
封边
  7
HZ
 11
4845.0
 21
-9071.0
 31
0.0
100
AcDbText
  0
DIMENSION
  5
487
330
17
100
AcDbEntity
  8
0
100
AcDbDimension
  2
*D52
  3
FURN
 10
4480.0
 20
-9664.0
 30
0.0
 11
4467.4
 21
-9373.5
 31
0.0
 70
32
 71
5
  1
<>
100
AcDbAlignedDimension
 13
4600.0
 23
-9664.0
 33
0.0
 14
4600.0
 24
-9083.0
 34
0.0
 50
90.0
100
AcDbRotatedDimension
  0
DIMENSION
  5
496
330
17
100
AcDbEntity
  8
0
100
AcDbDimension
  2
*D53
  3
FURN
 10
4600.0
 20
-9784.0
 30
0.0
 11
4885.0
 21
-9771.4
 31
0.0
 70
32
 71
5
  1
<>
100
AcDbAlignedDimension
 13
4600.0
 23
-9664.0
 33
0.0
 14
5170.0
 24
-9664.0
 34
0.0
 50
0.0
100
AcDbRotatedDimension
  0
LWPOLYLINE
  5
4A5
330
17
100
AcDbEntity
  8
PANEL_18
100
AcDbPolyline
 90
4
 70
1
 10
5870.0
 20
-9664.0
 10
6440.0
 20
-9664.0
 10
6440.0
 20
-9083.0
 10
5870.0
 20
-9083.0
  0
LWPOLYLINE
  5
4A6
330
17
100
AcDbEntity
  8
EDGE_1MM
370
100
100
AcDbPolyline
 90
2
 70
0
 10
5870.0
 20
-9083.0
 10
6440.0
 20
-9083.0
  0
LWPOLYLINE
  5
4A7
330
17
100
AcDbEntity
  8
EDGE_NONE
370
9
100
AcDbPolyline
 90
2
 70
0
 10
5870.0
 20
-9664.0
 10
6440.0
 20
-9664.0
  0
LWPOLYLINE
  5
4A8
330
17
100
AcDbEntity
  8
EDGE_1MM
370
100
100
AcDbPolyline
 90
2
 70
0
 10
5870.0
 20
-9664.0
 10
5870.0
 20
-9083.0
  0
LWPOLYLINE
  5
4A9
330
17
100
AcDbEntity
  8
EDGE_NONE
370
9
100
AcDbPolyline
 90
2
 70
0
 10
6440.0
 20
-9664.0
 10
6440.0
 20
-9083.0
  0
TEXT
  5
4AA
330
17
100
AcDbEntity
  8
TITLE
100
AcDbText
 10
5870.0
 20
-9719.0
 30
0.0
 40
30.0
  1
P_Cabinet_001_Unit_R_SH4  层板-4
  7
HZ
 11
5870.0
 21
-9719.0
 31
0.0
100
AcDbText
  0
TEXT
  5
4AB
330
17
100
AcDbEntity
  8
NOTE
100
AcDbText
 10
5870.0
 20
-9761.0
 30
0.0
 40
30.0
  1
581 × 570 × 18   数量 1
  7
HZ
 11
5870.0
 21
-9761.0
 31
0.0
100
AcDbText
  0
TEXT
  5
4AC
330
17
100
AcDbEntity
  8
NOTE
100
AcDbText
 10
5870.0
 20
-9803.0
 30
0.0
 40
26.0
  1
M_BOARD_18_WOOD  封边：前边 1mm；位置：距柜内底 1827mm
  7
HZ
 11
5870.0
 21
-9803.0
 31
0.0
100
AcDbText
  0
TEXT
  5
4AD
330
17
100
AcDbEntity
  8
NOTE
100
AcDbText
 10
5680.0
 20
-9373.5
 30
0.0
 40
24.0
  1
封边
  7
HZ
 11
5680.0
 21
-9373.5
 31
0.0
100
AcDbText
  0
TEXT
  5
4AE
330
17
100
AcDbEntity
  8
NOTE
100
AcDbText
 10
6115.0
 20
-9071.0
 30
0.0
 40
24.0
  1
封边
  7
HZ
 11
6115.0
 21
-9071.0
 31
0.0
100
AcDbText
  0
DIMENSION
  5
4AF
330
17
100
AcDbEntity
  8
0
100
AcDbDimension
  2
*D54
  3
FURN
 10
5750.0
 20
-9664.0
 30
0.0
 11
5737.4
 21
-9373.5
 31
0.0
 70
32
 71
5
  1
<>
100
AcDbAlignedDimension
 13
5870.0
 23
-9664.0
 33
0.0
 14
5870.0
 24
-9083.0
 34
0.0
 50
90.0
100
AcDbRotatedDimension
  0
DIMENSION
  5
4BE
330
17
100
AcDbEntity
  8
0
100
AcDbDimension
  2
*D55
  3
FURN
 10
5870.0
 20
-9784.0
 30
0.0
 11
6155.0
 21
-9771.4
 31
0.0
 70
32
 71
5
  1
<>
100
AcDbAlignedDimension
 13
5870.0
 23
-9664.0
 33
0.0
 14
6440.0
 24
-9664.0
 34
0.0
 50
0.0
100
AcDbRotatedDimension
  0
LWPOLYLINE
  5
4CD
330
17
100
AcDbEntity
  8
PANEL_5
100
AcDbPolyline
 90
4
 70
1
 10
7140.0
 20
-9594.0
 10
7678.0
 20
-9594.0
 10
7678.0
 20
-9083.0
 10
7140.0
 20
-9083.0
  0
LWPOLYLINE
  5
4CE
330
17
100
AcDbEntity
  8
EDGE_NONE
370
9
100
AcDbPolyline
 90
2
 70
0
 10
7140.0
 20
-9083.0
 10
7678.0
 20
-9083.0
  0
LWPOLYLINE
  5
4CF
330
17
100
AcDbEntity
  8
EDGE_NONE
370
9
100
AcDbPolyline
 90
2
 70
0
 10
7140.0
 20
-9594.0
 10
7678.0
 20
-9594.0
  0
LWPOLYLINE
  5
4D0
330
17
100
AcDbEntity
  8
EDGE_NONE
370
9
100
AcDbPolyline
 90
2
 70
0
 10
7140.0
 20
-9594.0
 10
7140.0
 20
-9083.0
  0
LWPOLYLINE
  5
4D1
330
17
100
AcDbEntity
  8
EDGE_NONE
370
9
100
AcDbPolyline
 90
2
 70
0
 10
7678.0
 20
-9594.0
 10
7678.0
 20
-9083.0
  0
TEXT
  5
4D2
330
17
100
AcDbEntity
  8
TITLE
100
AcDbText
 10
7140.0
 20
-9649.0
 30
0.0
 40
30.0
  1
P_Cabinet_001_Unit_L_DBOT1  抽屉底板-1
  7
HZ
 11
7140.0
 21
-9649.0
 31
0.0
100
AcDbText
  0
TEXT
  5
4D3
330
17
100
AcDbEntity
  8
NOTE
100
AcDbText
 10
7140.0
 20
-9691.0
 30
0.0
 40
30.0
  1
511 × 538 × 5   数量 1
  7
HZ
 11
7140.0
 21
-9691.0
 31
0.0
100
AcDbText
  0
TEXT
  5
4D4
330
17
100
AcDbEntity
  8
NOTE
100
AcDbText
 10
7140.0
 20
-9733.0
 30
0.0
 40
26.0
  1
M_BOARD_5  封边：嵌槽，不封边
  7
HZ
 11
7140.0
 21
-9733.0
 31
0.0
100
AcDbText
  0
DIMENSION
  5
4D5
330
17
100
AcDbEntity
  8
0
100
AcDbDimension
  2
*D56
  3
FURN
 10
7020.0
 20
-9594.0
 30
0.0
 11
7007.4
 21
-9338.5
 31
0.0
 70
32
 71
5
  1
<>
100
AcDbAlignedDimension
 13
7140.0
 23
-9594.0
 33
0.0
 14
7140.0
 24
-9083.0
 34
0.0
 50
90.0
100
AcDbRotatedDimension
  0
DIMENSION
  5
4E4
330
17
100
AcDbEntity
  8
0
100
AcDbDimension
  2
*D57
  3
FURN
 10
7140.0
 20
-9714.0
 30
0.0
 11
7409.0
 21
-9701.4
 31
0.0
 70
32
 71
5
  1
<>
100
AcDbAlignedDimension
 13
7140.0
 23
-9594.0
 33
0.0
 14
7678.0
 24
-9594.0
 34
0.0
 50
0.0
100
AcDbRotatedDimension
  0
LWPOLYLINE
  5
4F3
330
17
100
AcDbEntity
  8
PANEL_5
100
AcDbPolyline
 90
4
 70
1
 10
8378.0
 20
-9594.0
 10
8916.0
 20
-9594.0
 10
8916.0
 20
-9083.0
 10
8378.0
 20
-9083.0
  0
LWPOLYLINE
  5
4F4
330
17
100
AcDbEntity
  8
EDGE_NONE
370
9
100
AcDbPolyline
 90
2
 70
0
 10
8378.0
 20
-9083.0
 10
8916.0
 20
-9083.0
  0
LWPOLYLINE
  5
4F5
330
17
100
AcDbEntity
  8
EDGE_NONE
370
9
100
AcDbPolyline
 90
2
 70
0
 10
8378.0
 20
-9594.0
 10
8916.0
 20
-9594.0
  0
LWPOLYLINE
  5
4F6
330
17
100
AcDbEntity
  8
EDGE_NONE
370
9
100
AcDbPolyline
 90
2
 70
0
 10
8378.0
 20
-9594.0
 10
8378.0
 20
-9083.0
  0
LWPOLYLINE
  5
4F7
330
17
100
AcDbEntity
  8
EDGE_NONE
370
9
100
AcDbPolyline
 90
2
 70
0
 10
8916.0
 20
-9594.0
 10
8916.0
 20
-9083.0
  0
TEXT
  5
4F8
330
17
100
AcDbEntity
  8
TITLE
100
AcDbText
 10
8378.0
 20
-9649.0
 30
0.0
 40
30.0
  1
P_Cabinet_001_Unit_L_DBOT2  抽屉底板-2
  7
HZ
 11
8378.0
 21
-9649.0
 31
0.0
100
AcDbText
  0
TEXT
  5
4F9
330
17
100
AcDbEntity
  8
NOTE
100
AcDbText
 10
8378.0
 20
-9691.0
 30
0.0
 40
30.0
  1
511 × 538 × 5   数量 1
  7
HZ
 11
8378.0
 21
-9691.0
 31
0.0
100
AcDbText
  0
TEXT
  5
4FA
330
17
100
AcDbEntity
  8
NOTE
100
AcDbText
 10
8378.0
 20
-9733.0
 30
0.0
 40
26.0
  1
M_BOARD_5  封边：嵌槽，不封边
  7
HZ
 11
8378.0
 21
-9733.0
 31
0.0
100
AcDbText
  0
DIMENSION
  5
4FB
330
17
100
AcDbEntity
  8
0
100
AcDbDimension
  2
*D58
  3
FURN
 10
8258.0
 20
-9594.0
 30
0.0
 11
8245.4
 21
-9338.5
 31
0.0
 70
32
 71
5
  1
<>
100
AcDbAlignedDimension
 13
8378.0
 23
-9594.0
 33
0.0
 14
8378.0
 24
-9083.0
 34
0.0
 50
90.0
100
AcDbRotatedDimension
  0
DIMENSION
  5
50A
330
17
100
AcDbEntity
  8
0
100
AcDbDimension
  2
*D59
  3
FURN
 10
8378.0
 20
-9714.0
 30
0.0
 11
8647.0
 21
-9701.4
 31
0.0
 70
32
 71
5
  1
<>
100
AcDbAlignedDimension
 13
8378.0
 23
-9594.0
 33
0.0
 14
8916.0
 24
-9594.0
 34
0.0
 50
0.0
100
AcDbRotatedDimension
  0
LWPOLYLINE
  5
519
330
17
100
AcDbEntity
  8
PANEL_5
100
AcDbPolyline
 90
4
 70
1
 10
9616.0
 20
-9594.0
 10
10154.0
 20
-9594.0
 10
10154.0
 20
-9083.0
 10
9616.0
 20
-9083.0
  0
LWPOLYLINE
  5
51A
330
17
100
AcDbEntity
  8
EDGE_NONE
370
9
100
AcDbPolyline
 90
2
 70
0
 10
9616.0
 20
-9083.0
 10
10154.0
 20
-9083.0
  0
LWPOLYLINE
  5
51B
330
17
100
AcDbEntity
  8
EDGE_NONE
370
9
100
AcDbPolyline
 90
2
 70
0
 10
9616.0
 20
-9594.0
 10
10154.0
 20
-9594.0
  0
LWPOLYLINE
  5
51C
330
17
100
AcDbEntity
  8
EDGE_NONE
370
9
100
AcDbPolyline
 90
2
 70
0
 10
9616.0
 20
-9594.0
 10
9616.0
 20
-9083.0
  0
LWPOLYLINE
  5
51D
330
17
100
AcDbEntity
  8
EDGE_NONE
370
9
100
AcDbPolyline
 90
2
 70
0
 10
10154.0
 20
-9594.0
 10
10154.0
 20
-9083.0
  0
TEXT
  5
51E
330
17
100
AcDbEntity
  8
TITLE
100
AcDbText
 10
9616.0
 20
-9649.0
 30
0.0
 40
30.0
  1
P_Cabinet_001_Unit_L_DBOT3  抽屉底板-3
  7
HZ
 11
9616.0
 21
-9649.0
 31
0.0
100
AcDbText
  0
TEXT
  5
51F
330
17
100
AcDbEntity
  8
NOTE
100
AcDbText
 10
9616.0
 20
-9691.0
 30
0.0
 40
30.0
  1
511 × 538 × 5   数量 1
  7
HZ
 11
9616.0
 21
-9691.0
 31
0.0
100
AcDbText
  0
TEXT
  5
520
330
17
100
AcDbEntity
  8
NOTE
100
AcDbText
 10
9616.0
 20
-9733.0
 30
0.0
 40
26.0
  1
M_BOARD_5  封边：嵌槽，不封边
  7
HZ
 11
9616.0
 21
-9733.0
 31
0.0
100
AcDbText
  0
DIMENSION
  5
521
330
17
100
AcDbEntity
  8
0
100
AcDbDimension
  2
*D60
  3
FURN
 10
9496.0
 20
-9594.0
 30
0.0
 11
9483.4
 21
-9338.5
 31
0.0
 70
32
 71
5
  1
<>
100
AcDbAlignedDimension
 13
9616.0
 23
-9594.0
 33
0.0
 14
9616.0
 24
-9083.0
 34
0.0
 50
90.0
100
AcDbRotatedDimension
  0
DIMENSION
  5
530
330
17
100
AcDbEntity
  8
0
100
AcDbDimension
  2
*D61
  3
FURN
 10
9616.0
 20
-9714.0
 30
0.0
 11
9885.0
 21
-9701.4
 31
0.0
 70
32
 71
5
  1
<>
100
AcDbAlignedDimension
 13
9616.0
 23
-9594.0
 33
0.0
 14
10154.0
 24
-9594.0
 34
0.0
 50
0.0
100
AcDbRotatedDimension
  0
LWPOLYLINE
  5
53F
330
17
100
AcDbEntity
  8
PANEL_18
100
AcDbPolyline
 90
4
 70
1
 10
10854.0
 20
-11447.0
 10
10934.0
 20
-11447.0
 10
10934.0
 20
-9083.0
 10
10854.0
 20
-9083.0
  0
LWPOLYLINE
  5
540
330
17
100
AcDbEntity
  8
EDGE_NONE
370
9
100
AcDbPolyline
 90
2
 70
0
 10
10854.0
 20
-9083.0
 10
10934.0
 20
-9083.0
  0
LWPOLYLINE
  5
541
330
17
100
AcDbEntity
  8
EDGE_NONE
370
9
100
AcDbPolyline
 90
2
 70
0
 10
10854.0
 20
-11447.0
 10
10934.0
 20
-11447.0
  0
LWPOLYLINE
  5
542
330
17
100
AcDbEntity
  8
EDGE_1MM
370
100
100
AcDbPolyline
 90
2
 70
0
 10
10854.0
 20
-11447.0
 10
10854.0
 20
-9083.0
  0
LWPOLYLINE
  5
543
330
17
100
AcDbEntity
  8
EDGE_NONE
370
9
100
AcDbPolyline
 90
2
 70
0
 10
10934.0
 20
-11447.0
 10
10934.0
 20
-9083.0
  0
TEXT
  5
544
330
17
100
AcDbEntity
  8
TITLE
100
AcDbText
 10
10854.0
 20
-11502.0
 30
0.0
 40
30.0
  1
P_Cabinet_001_KICK  踢脚板
  7
HZ
 11
10854.0
 21
-11502.0
 31
0.0
100
AcDbText
  0
TEXT
  5
545
330
17
100
AcDbEntity
  8
NOTE
100
AcDbText
 10
10854.0
 20
-11544.0
 30
0.0
 40
30.0
  1
2364 × 80 × 18   数量 1
  7
HZ
 11
10854.0
 21
-11544.0
 31
0.0
100
AcDbText
  0
TEXT
  5
546
330
17
100
AcDbEntity
  8
NOTE
100
AcDbText
 10
10854.0
 20
-11586.0
 30
0.0
 40
26.0
  1
M_BOARD_18_WOOD  封边：上棱 1mm
  7
HZ
 11
10854.0
 21
-11586.0
 31
0.0
100
AcDbText
  0
TEXT
  5
547
330
17
100
AcDbEntity
  8
NOTE
100
AcDbText
 10
10664.0
 20
-10265.0
 30
0.0
 40
24.0
  1
封边
  7
HZ
 11
10664.0
 21
-10265.0
 31
0.0
100
AcDbText
  0
DIMENSION
  5
548
330
17
100
AcDbEntity
  8
0
100
AcDbDimension
  2
*D62
  3
FURN
 10
10734.0
 20
-11447.0
 30
0.0
 11
10721.4
 21
-10265.0
 31
0.0
 70
32
 71
5
  1
<>
100
AcDbAlignedDimension
 13
10854.0
 23
-11447.0
 33
0.0
 14
10854.0
 24
-9083.0
 34
0.0
 50
90.0
100
AcDbRotatedDimension
  0
DIMENSION
  5
557
330
17
100
AcDbEntity
  8
0
100
AcDbDimension
  2
*D63
  3
FURN
 10
10854.0
 20
-11567.0
 30
0.0
 11
10894.0
 21
-11554.4
 31
0.0
 70
32
 71
5
  1
<>
100
AcDbAlignedDimension
 13
10854.0
 23
-11447.0
 33
0.0
 14
10934.0
 24
-11447.0
 34
0.0
 50
0.0
100
AcDbRotatedDimension
  0
TEXT
  5
566
330
17
100
AcDbEntity
  8
TITLE
100
AcDbText
 10
4600.0
 20
-12317.0
 30
0.0
 40
45.0
  1
═══ 制造信息（可追溯）═══
  7
HZ
 11
4600.0
 21
-12317.0
 31
0.0
100
AcDbText
  0
TEXT
  5
567
330
17
100
AcDbEntity
  8
NOTE
100
AcDbText
 10
4600.0
 20
-12407.0
 30
0.0
 40
32.0
  1
柜体：Cabinet_001  主卧衣柜
  7
HZ
 11
4600.0
 21
-12407.0
 31
0.0
100
AcDbText
  0
TEXT
  5
568
330
17
100
AcDbEntity
  8
NOTE
100
AcDbText
 10
4600.0
 20
-12467.0
 30
0.0
 40
32.0
  1
外尺寸：2400 × 2400 × 600 mm（宽×高×深）　内空：2364 × 2284 mm
  7
HZ
 11
4600.0
 21
-12467.0
 31
0.0
100
AcDbText
  0
TEXT
  5
569
330
17
100
AcDbEntity
  8
NOTE
100
AcDbText
 10
4600.0
 20
-12527.0
 30
0.0
 40
32.0
  1
板件种类 28 / 总件数 31 / 板材面积 22.8 m² / 估重 244.8 kg
  7
HZ
 11
4600.0
 21
-12527.0
 31
0.0
100
AcDbText
  0
TEXT
  5
56A
330
17
100
AcDbEntity
  8
NOTE
100
AcDbText
 10
4600.0
 20
-12587.0
 30
0.0
 40
32.0
  1
模型版本：Cabinet_001 @ schema 0.1
  7
HZ
 11
4600.0
 21
-12587.0
 31
0.0
100
AcDbText
  0
TEXT
  5
56B
330
17
100
AcDbEntity
  8
NOTE
100
AcDbText
 10
4600.0
 20
-12647.0
 30
0.0
 40
32.0
  1
生成器版本：spike@0.1.0
  7
HZ
 11
4600.0
 21
-12647.0
 31
0.0
100
AcDbText
  0
TEXT
  5
56C
330
17
100
AcDbEntity
  8
NOTE
100
AcDbText
 10
4600.0
 20
-12707.0
 30
0.0
 40
32.0
  1
规则集版本：factory_default_v1@1
  7
HZ
 11
4600.0
 21
-12707.0
 31
0.0
100
AcDbText
  0
TEXT
  5
56D
330
17
100
AcDbEntity
  8
NOTE
100
AcDbText
 10
4600.0
 20
-12767.0
 30
0.0
 40
32.0
  1
生成时间：2026-09-23T09:03:59.640Z
  7
HZ
 11
4600.0
 21
-12767.0
 31
0.0
100
AcDbText
  0
TEXT
  5
56E
330
17
100
AcDbEntity
  8
TITLE
100
AcDbText
 10
4600.0
 20
-12947.0
 30
0.0
 40
45.0
  1
═══ 五金清单 ═══
  7
HZ
 11
4600.0
 21
-12947.0
 31
0.0
100
AcDbText
  0
TEXT
  5
56F
330
17
100
AcDbEntity
  8
NOTE
100
AcDbText
 10
4600.0
 20
-13037.0
 30
0.0
 40
30.0
  1
抽屉滑轨  × 3   三节轨 500mm，L=500mm
  7
HZ
 11
4600.0
 21
-13037.0
 31
0.0
100
AcDbText
  0
TEXT
  5
570
330
17
100
AcDbEntity
  8
NOTE
100
AcDbText
 10
4600.0
 20
-13097.0
 30
0.0
 40
30.0
  1
层板托  × 4   每块层板 4 只
  7
HZ
 11
4600.0
 21
-13097.0
 31
0.0
100
AcDbText
  0
TEXT
  5
571
330
17
100
AcDbEntity
  8
NOTE
100
AcDbText
 10
4600.0
 20
-13157.0
 30
0.0
 40
30.0
  1
挂衣杆  × 1   挂衣杆 25mm 铝合金 L=1162mm，距柜内底 1800mm
  7
HZ
 11
4600.0
 21
-13157.0
 31
0.0
100
AcDbText
  0
TEXT
  5
572
330
17
100
AcDbEntity
  8
NOTE
100
AcDbText
 10
4600.0
 20
-13217.0
 30
0.0
 40
30.0
  1
层板托  × 16   每块层板 4 只
  7
HZ
 11
4600.0
 21
-13217.0
 31
0.0
100
AcDbText
  0
TEXT
  5
573
330
17
100
AcDbEntity
  8
NOTE
100
AcDbText
 10
4600.0
 20
-13277.0
 30
0.0
 40
30.0
  1
门铰链  × 10   110度快装铰链，每扇 5 只（按门高 2280mm / 间距上限 500mm 计算）
  7
HZ
 11
4600.0
 21
-13277.0
 31
0.0
100
AcDbText
  0
TEXT
  5
574
330
17
100
AcDbEntity
  8
NOTE
100
AcDbText
 10
4600.0
 20
-13337.0
 30
0.0
 40
30.0
  1
拉手  × 2   HW_HANDLE_128 128mm 孔距
  7
HZ
 11
4600.0
 21
-13337.0
 31
0.0
100
AcDbText
  0
TEXT
  5
575
330
17
100
AcDbEntity
  8
TITLE
100
AcDbText
 10
4600.0
 20
-13517.0
 30
0.0
 40
45.0
  1
═══ 校验问题（导出前须清零 ERROR）═══
  7
HZ
 11
4600.0
 21
-13517.0
 31
0.0
100
AcDbText
  0
TEXT
  5
576
330
17
100
AcDbEntity
  8
NOTE
100
AcDbText
 10
4600.0
 20
-13607.0
 30
0.0
 40
28.0
  1
[INFO] ALLOC-FIT-TOTAL — 总宽 2400mm 固定，扣除两侧板 18×2 与立板 18×2 后可用净宽 2328mm，按期望比例重新分配：Unit_L 期望净宽 600 → 实际 582（-18mm）；Unit_M 期望净宽 1200 → 实际 1164（-36mm）；Unit_R 期望净宽 600 → 实际 582（-18mm）。这是「总宽优先」策略的必然结果，不是错误。
  7
HZ
 11
4600.0
 21
-13607.0
 31
0.0
100
AcDbText
  0
TEXT
  5
577
330
17
100
AcDbEntity
  8
NOTE
100
AcDbText
 10
4600.0
 20
-13667.0
 30
0.0
 40
28.0
  1
[WARNING] RULE-BACKPANEL-SPLIT — 背板 2379×2299mm 超出板材最大幅面 2440×1220，已按高度方向拆为 2 块。
  7
HZ
 11
4600.0
 21
-13667.0
 31
0.0
100
AcDbText
  0
TEXT
  5
578
330
17
100
AcDbEntity
  8
NOTE
100
AcDbText
 10
4600.0
 20
-13727.0
 30
0.0
 40
28.0
  1
[WARNING] RULE-DRAWER-TALL-FRONT — 抽屉面板最高 756mm，超出单抽常用高度（≤400mm）。
  7
HZ
 11
4600.0
 21
-13727.0
 31
0.0
100
AcDbText
  0
TEXT
  5
579
330
17
100
AcDbEntity
  8
NOTE
100
AcDbText
 10
4600.0
 20
-13787.0
 30
0.0
 40
28.0
  1
[WARNING] RULE-SHELF-SPAN — Unit_M 层板跨度 1164mm 超过建议上限 900mm。
  7
HZ
 11
4600.0
 21
-13787.0
 31
0.0
100
AcDbText
  0
TEXT
  5
57A
330
17
100
AcDbEntity
  8
NOTE
100
AcDbText
 10
4600.0
 20
-13847.0
 30
0.0
 40
28.0
  1
[INFO] RULE-DOOR-TALL — 门板高 2280mm，需 5 只铰链；建议复核铰链品牌与承重。
  7
HZ
 11
4600.0
 21
-13847.0
 31
0.0
100
AcDbText
  0
ENDSEC
  0
SECTION
  2
OBJECTS
  0
DICTIONARY
  5
A
330
0
100
AcDbDictionary
281
1
  3
ACAD_COLOR
350
B
  3
ACAD_GROUP
350
C
  3
ACAD_LAYOUT
350
D
  3
ACAD_MATERIAL
350
E
  3
ACAD_MLEADERSTYLE
350
F
  3
ACAD_MLINESTYLE
350
10
  3
ACAD_PLOTSETTINGS
350
11
  3
ACAD_PLOTSTYLENAME
350
12
  3
ACAD_SCALELIST
350
14
  3
ACAD_TABLESTYLE
350
15
  3
ACAD_VISUALSTYLE
350
16
  3
EZDXF_META
350
2D
  0
DICTIONARY
  5
B
330
A
100
AcDbDictionary
281
1
  0
DICTIONARY
  5
C
330
A
100
AcDbDictionary
281
1
  0
DICTIONARY
  5
D
330
A
100
AcDbDictionary
281
1
  3
Model
350
1A
  3
Layout1
350
1E
  0
DICTIONARY
  5
E
330
A
100
AcDbDictionary
281
1
  3
ByBlock
350
1F
  3
ByLayer
350
20
  3
Global
350
21
  0
DICTIONARY
  5
F
330
A
100
AcDbDictionary
281
1
  3
Standard
350
2C
  0
DICTIONARY
  5
10
330
A
100
AcDbDictionary
281
1
  3
Standard
350
22
  0
DICTIONARY
  5
11
330
A
100
AcDbDictionary
281
1
  0
ACDBDICTIONARYWDFLT
  5
12
330
A
100
AcDbDictionary
281
1
  3
Normal
350
13
100
AcDbDictionaryWithDefault
340
13
  0
ACDBPLACEHOLDER
  5
13
330
12
  0
DICTIONARY
  5
14
330
A
100
AcDbDictionary
281
1
  0
DICTIONARY
  5
15
330
A
100
AcDbDictionary
281
1
  0
DICTIONARY
  5
16
330
A
100
AcDbDictionary
281
1
  3
2dWireframe
350
5A
  3
Basic
350
5B
  3
Brighten
350
5C
  3
ColorChange
350
5D
  3
Conceptual
350
5E
  3
Dim
350
5F
  3
EdgeColorOff
350
60
  3
Facepattern
350
61
  3
Flat
350
62
  3
FlatWithEdges
350
63
  3
Gouraud
350
64
  3
GouraudWithEdges
350
65
  3
Hidden
350
66
  3
JitterOff
350
67
  3
Linepattern
350
68
  3
Modeling
350
69
  3
OverhangOff
350
6A
  3
Realistic
350
6B
  3
Shaded
350
6C
  3
Shaded with edges
350
6D
  3
Shades of Gray
350
6E
  3
Sketchy
350
6F
  3
Thicken
350
70
  3
Wireframe
350
71
  3
X-Ray
350
72
  0
LAYOUT
  5
1A
330
D
100
AcDbPlotSettings
  1

  4
A3
  6

 40
7.5
 41
20.0
 42
7.5
 43
20.0
 44
420.0
 45
297.0
 46
0.0
 47
0.0
 48
0.0
 49
0.0
140
0.0
141
0.0
142
1.0
143
1.0
 70
1024
 72
1
 73
0
 74
5
  7

 75
16
 76
0
 77
2
 78
300
147
1.0
148
0.0
149
0.0
100
AcDbLayout
  1
Model
 70
1
 71
0
 10
0.0
 20
0.0
 11
420.0
 21
297.0
 12
0.0
 22
0.0
 32
0.0
 14
1e+20
 24
1e+20
 34
1e+20
 15
-1e+20
 25
-1e+20
 35
-1e+20
146
0.0
 13
0.0
 23
0.0
 33
0.0
 16
1.0
 26
0.0
 36
0.0
 17
0.0
 27
1.0
 37
0.0
 76
1
330
17
  0
LAYOUT
  5
1E
330
D
100
AcDbPlotSettings
  1

  4
A3
  6

 40
7.5
 41
20.0
 42
7.5
 43
20.0
 44
420.0
 45
297.0
 46
0.0
 47
0.0
 48
0.0
 49
0.0
140
0.0
141
0.0
142
1.0
143
1.0
 70
0
 72
1
 73
0
 74
5
  7

 75
16
 76
0
 77
2
 78
300
147
1.0
148
0.0
149
0.0
100
AcDbLayout
  1
Layout1
 70
1
 71
1
 10
0.0
 20
0.0
 11
420.0
 21
297.0
 12
0.0
 22
0.0
 32
0.0
 14
1e+20
 24
1e+20
 34
1e+20
 15
-1e+20
 25
-1e+20
 35
-1e+20
146
0.0
 13
0.0
 23
0.0
 33
0.0
 16
1.0
 26
0.0
 36
0.0
 17
0.0
 27
1.0
 37
0.0
 76
1
330
1B
  0
MATERIAL
  5
1F
102
{ACAD_REACTORS
330
E
102
}
330
E
100
AcDbMaterial
  1
ByBlock
  2

 70
0
 40
1.0
 71
1
 41
1.0
 91
-1023410177
 42
1.0
 72
1
  3

 73
1
 74
1
 75
1
 44
0.5
 73
0
 45
1.0
 46
1.0
 77
1
  4

 78
1
 79
1
170
1
 48
1.0
171
1
  6

172
1
173
1
174
1
140
1.0
141
1.0
175
1
  7

176
1
177
1
178
1
143
1.0
179
1
  8

270
1
271
1
272
1
145
1.0
146
1.0
273
1
  9

274
1
275
1
276
1
 42
1.0
 72
1
  3

 73
1
 74
1
 75
1
 94
63
  0
MATERIAL
  5
20
102
{ACAD_REACTORS
330
E
102
}
330
E
100
AcDbMaterial
  1
ByLayer
  2

 70
0
 40
1.0
 71
1
 41
1.0
 91
-1023410177
 42
1.0
 72
1
  3

 73
1
 74
1
 75
1
 44
0.5
 73
0
 45
1.0
 46
1.0
 77
1
  4

 78
1
 79
1
170
1
 48
1.0
171
1
  6

172
1
173
1
174
1
140
1.0
141
1.0
175
1
  7

176
1
177
1
178
1
143
1.0
179
1
  8

270
1
271
1
272
1
145
1.0
146
1.0
273
1
  9

274
1
275
1
276
1
 42
1.0
 72
1
  3

 73
1
 74
1
 75
1
 94
63
  0
MATERIAL
  5
21
102
{ACAD_REACTORS
330
E
102
}
330
E
100
AcDbMaterial
  1
Global
  2

 70
0
 40
1.0
 71
1
 41
1.0
 91
-1023410177
 42
1.0
 72
1
  3

 73
1
 74
1
 75
1
 44
0.5
 73
0
 45
1.0
 46
1.0
 77
1
  4

 78
1
 79
1
170
1
 48
1.0
171
1
  6

172
1
173
1
174
1
140
1.0
141
1.0
175
1
  7

176
1
177
1
178
1
143
1.0
179
1
  8

270
1
271
1
272
1
145
1.0
146
1.0
273
1
  9

274
1
275
1
276
1
 42
1.0
 72
1
  3

 73
1
 74
1
 75
1
 94
63
  0
MLINESTYLE
  5
22
102
{ACAD_REACTORS
330
10
102
}
330
10
100
AcDbMlineStyle
  2
Standard
 70
0
  3

 62
256
 51
90.0
 52
90.0
 71
2
 49
0.5
 62
256
  6
BYLAYER
 49
-0.5
 62
256
  6
BYLAYER
  0
MLEADERSTYLE
  5
2C
102
{ACAD_REACTORS
330
F
102
}
330
F
100
AcDbMLeaderStyle
179
2
170
2
171
1
172
0
 90
2
 40
0.0
 41
0.0
173
1
 91
-1056964608
 92
-2
290
1
 42
2.0
291
1
 43
8.0
  3
Standard
 44
4.0
300

342
29
174
1
175
1
176
0
178
1
 93
-1056964608
 45
4.0
292
0
297
0
 46
4.0
 94
-1056964608
 47
1.0
 49
1.0
140
1.0
294
1
141
0.0
177
0
142
1.0
295
0
296
0
143
3.75
271
0
272
9
273
9
  0
DICTIONARY
  5
2D
330
A
100
AcDbDictionary
280
1
281
1
  3
CREATED_BY_EZDXF
350
2E
  3
WRITTEN_BY_EZDXF
350
57D
  0
DICTIONARYVAR
  5
2E
330
2D
100
DictionaryVariables
280
0
  1
1.4.4 @ 2026-09-23T09:04:02.011367+00:00
  0
VISUALSTYLE
  5
5A
102
{ACAD_REACTORS
330
16
102
}
330
16
100
AcDbVisualStyle
  2
2dWireframe
 70
4
 90
0
 40
0.6
 62
7
290
0
291
0
  0
VISUALSTYLE
  5
5B
102
{ACAD_REACTORS
330
16
102
}
330
16
100
AcDbVisualStyle
  2
Basic
 70
7
 90
1
 40
0.6
 62
7
290
0
291
1
  0
VISUALSTYLE
  5
5C
102
{ACAD_REACTORS
330
16
102
}
330
16
100
AcDbVisualStyle
  2
Brighten
 70
12
 90
2
 40
0.6
 62
7
290
0
291
1
  0
VISUALSTYLE
  5
5D
102
{ACAD_REACTORS
330
16
102
}
330
16
100
AcDbVisualStyle
  2
ColorChange
 70
16
 90
2
 40
0.6
 62
8
290
0
291
1
  0
VISUALSTYLE
  5
5E
102
{ACAD_REACTORS
330
16
102
}
330
16
100
AcDbVisualStyle
  2
Conceptual
 70
9
 90
3
 40
0.6
 62
7
290
0
291
0
  0
VISUALSTYLE
  5
5F
102
{ACAD_REACTORS
330
16
102
}
330
16
100
AcDbVisualStyle
  2
Dim
 70
11
 90
2
 40
0.6
 62
7
290
0
291
1
  0
VISUALSTYLE
  5
60
102
{ACAD_REACTORS
330
16
102
}
330
16
100
AcDbVisualStyle
  2
EdgeColorOff
 70
22
 90
2
 40
0.6
 62
7
290
0
291
1
  0
VISUALSTYLE
  5
61
102
{ACAD_REACTORS
330
16
102
}
330
16
100
AcDbVisualStyle
  2
Facepattern
 70
15
 90
2
 40
0.6
 62
7
290
0
291
1
  0
VISUALSTYLE
  5
62
102
{ACAD_REACTORS
330
16
102
}
330
16
100
AcDbVisualStyle
  2
Flat
 70
0
 90
2
 40
0.6
 62
7
290
0
291
1
  0
VISUALSTYLE
  5
63
102
{ACAD_REACTORS
330
16
102
}
330
16
100
AcDbVisualStyle
  2
FlatWithEdges
 70
1
 90
2
 40
0.6
 62
7
290
0
291
1
  0
VISUALSTYLE
  5
64
102
{ACAD_REACTORS
330
16
102
}
330
16
100
AcDbVisualStyle
  2
Gouraud
 70
2
 90
2
 40
0.6
 62
7
290
0
291
1
  0
VISUALSTYLE
  5
65
102
{ACAD_REACTORS
330
16
102
}
330
16
100
AcDbVisualStyle
  2
GouraudWithEdges
 70
3
 90
2
 40
0.6
 62
7
290
0
291
1
  0
VISUALSTYLE
  5
66
102
{ACAD_REACTORS
330
16
102
}
330
16
100
AcDbVisualStyle
  2
Hidden
 70
6
 90
1
 40
0.6
 62
7
290
0
291
0
  0
VISUALSTYLE
  5
67
102
{ACAD_REACTORS
330
16
102
}
330
16
100
AcDbVisualStyle
  2
JitterOff
 70
20
 90
2
 40
0.6
 62
7
290
0
291
1
  0
VISUALSTYLE
  5
68
102
{ACAD_REACTORS
330
16
102
}
330
16
100
AcDbVisualStyle
  2
Linepattern
 70
14
 90
2
 40
0.6
 62
7
290
0
291
1
  0
VISUALSTYLE
  5
69
102
{ACAD_REACTORS
330
16
102
}
330
16
100
AcDbVisualStyle
  2
Modeling
 70
10
 90
2
 40
0.6
 62
7
290
0
291
0
  0
VISUALSTYLE
  5
6A
102
{ACAD_REACTORS
330
16
102
}
330
16
100
AcDbVisualStyle
  2
OverhangOff
 70
21
 90
2
 40
0.6
 62
7
290
0
291
1
  0
VISUALSTYLE
  5
6B
102
{ACAD_REACTORS
330
16
102
}
330
16
100
AcDbVisualStyle
  2
Realistic
 70
8
 90
2
 40
0.6
 62
7
290
0
291
0
  0
VISUALSTYLE
  5
6C
102
{ACAD_REACTORS
330
16
102
}
330
16
100
AcDbVisualStyle
  2
Shaded
 70
27
 90
2
 40
0.6
 62
7
290
0
291
0
  0
VISUALSTYLE
  5
6D
102
{ACAD_REACTORS
330
16
102
}
330
16
100
AcDbVisualStyle
  2
Shaded with edges
 70
26
 90
2
 40
0.6
 62
7
290
0
291
0
  0
VISUALSTYLE
  5
6E
102
{ACAD_REACTORS
330
16
102
}
330
16
100
AcDbVisualStyle
  2
Shades of Gray
 70
23
 90
2
 40
0.6
 62
7
290
0
291
0
  0
VISUALSTYLE
  5
6F
102
{ACAD_REACTORS
330
16
102
}
330
16
100
AcDbVisualStyle
  2
Sketchy
 70
24
 90
1
 40
0.6
 62
7
290
0
291
0
  0
VISUALSTYLE
  5
70
102
{ACAD_REACTORS
330
16
102
}
330
16
100
AcDbVisualStyle
  2
Thicken
 70
13
 90
2
 40
0.6
 62
7
290
0
291
1
  0
VISUALSTYLE
  5
71
102
{ACAD_REACTORS
330
16
102
}
330
16
100
AcDbVisualStyle
  2
Wireframe
 70
5
 90
0
 40
0.6
 62
7
290
0
291
0
  0
VISUALSTYLE
  5
72
102
{ACAD_REACTORS
330
16
102
}
330
16
100
AcDbVisualStyle
  2
X-Ray
 70
25
 90
2
 40
0.5
 62
7
290
0
291
0
  0
DICTIONARYVAR
  5
57D
330
2D
100
DictionaryVariables
280
0
  1
1.4.4 @ 2026-09-23T09:04:02.084069+00:00
  0
ENDSEC
  0
EOF
